<?xml version="1.0" encoding="UTF-8" standalone="no"?><svg xmlns="http://www.w3.org/2000/svg" xmlns:xlink="http://www.w3.org/1999/xlink" clip-rule="evenodd" stroke-miterlimit="4.00" viewBox="0 0 752 742"><desc>SVG generated by Keynote</desc><defs></defs><g transform="matrix(1.00, 0.00, -0.00, -1.00, 0.0, 742.0)"><g><clipPath id="clip-16657"><path d="M 9.0 737.0 L 743.0 737.0 L 743.0 15.0 L 9.0 15.0 Z M 8.9 737.0 "></path></clipPath><g clip-path="url(#clip-16657)"><g><clipPath id="clip-16658"><path d="M 9.0 15.0 L 743.0 15.0 L 743.0 737.0 L 9.0 737.0 Z M 9.0 15.0 "></path></clipPath><g clip-path="url(#clip-16658)"><g><g><clipPath id="clip-16659"><path d="M 9.0 738.9 L 743.0 738.9 L 743.0 -303.0 L 9.0 -303.0 Z M 9.0 738.9 "></path></clipPath><g clip-path="url(#clip-16659)"><g><clipPath id="clip-16660"><path d="M 9.0 15.0 L 743.0 15.0 L 743.0 737.0 L 9.0 737.0 Z M 9.0 15.0 "></path></clipPath><g clip-path="url(#clip-16660)"><g opacity="0.00"><g><clipPath id="clip-16661"><path d="M 4.8 11.2 L 746.2 11.2 L 746.2 945.9 L 4.8 945.9 Z M 4.8 11.2 "></path></clipPath><g clip-path="url(#clip-16661)"><g><clipPath id="clip-16662"><path d="M 9.0 15.0 L 743.0 15.0 L 743.0 737.0 L 9.0 737.0 Z M 9.0 15.0 "></path></clipPath><g clip-path="url(#clip-16662)"><path d="M 4.8 945.9 L 746.2 945.9 L 746.2 11.2 L 4.8 11.2 Z M 4.8 945.9 " fill="#1A1918"></path></g></g></g></g></g></g></g></g></g><g><clipPath id="clip-16663"><path d="M 9.0 15.0 L 743.0 15.0 L 743.0 737.0 L 9.0 737.0 Z M 9.0 15.0 "></path></clipPath><g clip-path="url(#clip-16663)"><path d="M 9.0 12.3 L 743.0 12.3 L 743.0 737.0 L 9.0 737.0 Z M 9.0 12.3 " fill="#00864E"></path></g></g><g><clipPath id="clip-16664"><path d="M 9.0 738.9 L 743.0 738.9 L 743.0 -303.0 L 9.0 -303.0 Z M 9.0 738.9 "></path></clipPath><g clip-path="url(#clip-16664)"><g><clipPath id="clip-16665"><path d="M 9.0 15.0 L 743.0 15.0 L 743.0 737.0 L 9.0 737.0 Z M 9.0 15.0 "></path></clipPath><g clip-path="url(#clip-16665)"><path d="M -0.4 594.2 L 420.7 594.2 L 420.7 180.1 L -0.4 180.1 Z M -0.4 594.2 " fill="none" stroke="#EBEBE8" stroke-width="2.00" stroke-miterlimit="8.00" transform="matrix(1.75, 0.00, 0.00, 1.75, 9.0, -303.0)"></path></g></g></g></g><g><clipPath id="clip-16666"><path d="M 9.0 738.9 L 743.0 738.9 L 743.0 -303.0 L 9.0 -303.0 Z M 9.0 738.9 "></path></clipPath><g clip-path="url(#clip-16666)"><g><clipPath id="clip-16667"><path d="M 9.0 15.0 L 743.0 15.0 L 743.0 737.0 L 9.0 737.0 Z M 9.0 15.0 "></path></clipPath><g clip-path="url(#clip-16667)"><g opacity="0.30"><g><clipPath id="clip-16668"><path d="M 126.1 509.5 L 624.9 509.5 L 624.9 944.2 L 126.1 944.2 Z M 126.1 509.5 "></path></clipPath><g clip-path="url(#clip-16668)"><g><clipPath id="clip-16669"><path d="M 126.0 509.0 L 625.0 509.0 L 625.0 737.0 L 126.0 737.0 Z M 126.0 509.0 "></path></clipPath><g clip-path="url(#clip-16669)"><path d="M 0.0 0.0 C 55.3 -48.1 55.3 -126.1 0.0 -174.2 C -55.3 -222.3 -144.9 -222.3 -200.2 -174.2 C -255.5 -126.1 -255.5 -48.1 -200.2 0.0 C -144.9 48.1 -55.3 48.1 0.0 0.0 " fill="none" stroke="#FFFEFE" stroke-width="2.00" stroke-miterlimit="8.00" stroke-linejoin="round" transform="matrix(1.75, 0.00, 0.00, 1.75, 550.6, 879.3)"></path></g></g></g></g></g></g></g></g></g><g><clipPath id="clip-16670"><path d="M 9.0 738.9 L 743.0 738.9 L 743.0 -303.0 L 9.0 -303.0 Z M 9.0 738.9 "></path></clipPath><g clip-path="url(#clip-16670)"><g><clipPath id="clip-16671"><path d="M 9.0 15.0 L 743.0 15.0 L 743.0 737.0 L 9.0 737.0 Z M 9.0 15.0 "></path></clipPath><g clip-path="url(#clip-16671)"><g opacity="0.30"><g><clipPath id="clip-16672"><path d="M 3.7 111.6 L 747.3 111.6 L 747.3 119.5 L 3.7 119.5 Z M 3.7 111.6 "></path></clipPath><g clip-path="url(#clip-16672)"><g><clipPath id="clip-16673"><path d="M 3.7 111.6 L 747.3 111.6 L 747.3 119.5 L 3.7 119.5 Z M 3.7 111.6 "></path></clipPath><g clip-path="url(#clip-16673)"><g><clipPath id="clip-16674"><path d="M 9.0 111.0 L 743.0 111.0 L 743.0 120.0 L 9.0 120.0 Z M 9.0 111.0 "></path></clipPath><g clip-path="url(#clip-16674)"><path d="M 0.0 0.0 L 421.1 -0.1 " fill="none" stroke="#FFFEFE" stroke-width="3.00" stroke-miterlimit="8.00" stroke-linejoin="round" transform="matrix(1.75, 0.00, 0.00, 1.75, 7.1, 116.2)"></path></g></g></g></g></g></g></g></g></g></g></g><g><clipPath id="clip-16675"><path d="M 9.0 738.9 L 743.0 738.9 L 743.0 -303.0 L 9.0 -303.0 Z M 9.0 738.9 "></path></clipPath><g clip-path="url(#clip-16675)"><g><clipPath id="clip-16676"><path d="M 9.0 15.0 L 743.0 15.0 L 743.0 737.0 L 9.0 737.0 Z M 9.0 15.0 "></path></clipPath><g clip-path="url(#clip-16676)"><g opacity="0.47"><g><clipPath id="clip-16677"><path d="M 3.7 407.4 L 747.3 407.4 L 747.3 415.3 L 3.7 415.3 Z M 3.7 407.4 "></path></clipPath><g clip-path="url(#clip-16677)"><g><clipPath id="clip-16678"><path d="M 3.7 407.4 L 747.3 407.4 L 747.3 415.3 L 3.7 415.3 Z M 3.7 407.4 "></path></clipPath><g clip-path="url(#clip-16678)"><g><clipPath id="clip-16679"><path d="M 9.0 407.0 L 743.0 407.0 L 743.0 416.0 L 9.0 416.0 Z M 9.0 407.0 "></path></clipPath><g clip-path="url(#clip-16679)"><path d="M 0.0 0.0 L 421.1 -0.1 " fill="none" stroke="#FFFEFE" stroke-width="3.00" stroke-miterlimit="8.00" stroke-linejoin="round" stroke-dasharray="27.0, 9.0" transform="matrix(1.75, 0.00, 0.00, 1.75, 7.1, 411.9)"></path></g></g></g></g></g></g></g></g></g></g></g></g></g></g></g></g><image xlink:href="../../0C930E86-4277-443F-87C0-83660A271B3B/assets/0831C380C4876CB459EDE4787970FEB9.png" width="748.00" height="740.00" transform="matrix(1.00, 0.00, -0.00, 1.00, 1.9, 1.0)"></image></g></svg>