<?xml version="1.0" encoding="UTF-8" standalone="no"?><svg xmlns="http://www.w3.org/2000/svg" xmlns:xlink="http://www.w3.org/1999/xlink" clip-rule="evenodd" stroke-miterlimit="4.00" viewBox="0 0 27 27"><desc>SVG generated by Keynote</desc><defs></defs><g transform="matrix(1.00, 0.00, -0.00, -1.00, 0.0, 27.0)"><path d="M 21.9 21.8 C 26.5 17.1 26.5 9.6 21.9 5.0 C 17.2 0.3 9.6 0.3 4.9 5.0 C 0.2 9.6 0.2 17.1 4.9 21.8 C 9.6 26.4 17.2 26.4 21.9 21.8 Z M 21.9 21.8 " fill="#D71E00"></path><image xlink:href="../../1F46F10E-630D-408F-BB51-062C4FDE7492/assets/B2EFED46CF607AE64B070904CFA37AC3.png" width="13.00" height="11.00" transform="matrix(1.00, 0.00, -0.00, -1.00, 8.0, 18.0)"></image><g><clipPath id="clip-18263"><path d="M 1.4 1.5 L 26.6 1.5 L 26.6 25.3 L 1.4 25.3 Z M 1.4 1.5 "></path></clipPath><g clip-path="url(#clip-18263)"><text xml:space="preserve" font-family="Helvetica-Bold" font-weight="bold" font-size="7.0" fill="#FEFFFF" transform="matrix(1.00, 0.00, -0.00, -1.00, 9.0, 11.0)">S</text><text xml:space="preserve" font-family="Helvetica-Bold" font-weight="bold" font-size="7.0" fill="#FEFFFF" transform="matrix(1.00, 0.00, -0.00, -1.00, 13.7, 11.0)">2</text></g></g></g></svg>