<?xml version="1.0" encoding="UTF-8" standalone="no"?><svg xmlns="http://www.w3.org/2000/svg" xmlns:xlink="http://www.w3.org/1999/xlink" clip-rule="evenodd" stroke-miterlimit="4.00" viewBox="0 0 27 27"><desc>SVG generated by Keynote</desc><defs></defs><g transform="matrix(1.00, 0.00, -0.00, -1.00, 0.0, 27.0)"><path d="M 22.0 21.6 C 26.7 17.0 26.7 9.4 22.0 4.8 C 17.3 0.1 9.7 0.1 5.0 4.8 C 0.3 9.4 0.3 17.0 5.0 21.6 C 9.7 26.3 17.3 26.3 22.0 21.6 Z M 22.0 21.6 " fill="#D71E00"></path><image xlink:href="../../1F46F10E-630D-408F-BB51-062C4FDE7492/assets/B2EFED46CF607AE64B070904CFA37AC3.png" width="13.00" height="11.00" transform="matrix(1.00, 0.00, -0.00, -1.00, 8.0, 18.0)"></image><g><clipPath id="clip-18413"><path d="M 1.5 1.3 L 26.7 1.3 L 26.7 25.1 L 1.5 25.1 Z M 1.5 1.3 "></path></clipPath><g clip-path="url(#clip-18413)"><text xml:space="preserve" font-family="Helvetica-Bold" font-weight="bold" font-size="7.0" fill="#FEFFFF" transform="matrix(1.00, 0.00, -0.00, -1.00, 9.0, 11.0)">S</text><text xml:space="preserve" font-family="Helvetica-Bold" font-weight="bold" font-size="7.0" fill="#FEFFFF" transform="matrix(1.00, 0.00, -0.00, -1.00, 13.7, 11.0)">2</text></g></g></g></svg>