<?xml version="1.0" encoding="UTF-8" standalone="no"?><svg xmlns="http://www.w3.org/2000/svg" xmlns:xlink="http://www.w3.org/1999/xlink" clip-rule="evenodd" stroke-miterlimit="4.00" viewBox="0 0 27 27"><desc>SVG generated by Keynote</desc><defs></defs><g transform="matrix(1.00, 0.00, -0.00, -1.00, 0.0, 27.0)"><path d="M 22.2 21.6 C 26.9 16.9 26.9 9.4 22.2 4.7 C 17.5 0.1 9.9 0.1 5.2 4.7 C 0.6 9.4 0.6 16.9 5.2 21.6 C 9.9 26.2 17.5 26.2 22.2 21.6 Z M 22.2 21.6 " fill="#0065C0"></path><image xlink:href="../../1F46F10E-630D-408F-BB51-062C4FDE7492/assets/E9A21EA7B50670355401C399A101573B.png" width="13.00" height="11.00" transform="matrix(1.00, 0.00, -0.00, -1.00, 8.0, 18.0)"></image><g><clipPath id="clip-18377"><path d="M 1.7 1.2 L 26.9 1.2 L 26.9 25.0 L 1.7 25.0 Z M 1.7 1.2 "></path></clipPath><g clip-path="url(#clip-18377)"><text xml:space="preserve" font-family="Helvetica-Bold" font-weight="bold" font-size="7.0" fill="#FEFFFF" transform="matrix(1.00, 0.00, -0.00, -1.00, 9.0, 11.0)">S</text><text xml:space="preserve" font-family="Helvetica-Bold" font-weight="bold" font-size="7.0" fill="#FEFFFF" transform="matrix(1.00, 0.00, -0.00, -1.00, 13.7, 11.0)">3</text></g></g></g></svg>