<?xml version="1.0" encoding="UTF-8" standalone="no"?><svg xmlns="http://www.w3.org/2000/svg" xmlns:xlink="http://www.w3.org/1999/xlink" clip-rule="evenodd" stroke-miterlimit="4.00" viewBox="0 0 27 27"><desc>SVG generated by Keynote</desc><defs></defs><g transform="matrix(1.00, 0.00, -0.00, -1.00, 0.0, 27.0)"><path d="M 22.5 21.8 C 27.1 17.1 27.1 9.6 22.5 4.9 C 17.8 0.3 10.2 0.3 5.5 4.9 C 0.8 9.6 0.8 17.1 5.5 21.8 C 10.2 26.4 17.8 26.4 22.5 21.8 Z M 22.5 21.8 " fill="#D71E00"></path><image xlink:href="../../1F46F10E-630D-408F-BB51-062C4FDE7492/assets/B2EFED46CF607AE64B070904CFA37AC3.png" width="13.00" height="11.00" transform="matrix(1.00, 0.00, -0.00, -1.00, 9.0, 18.0)"></image><g><clipPath id="clip-18376"><path d="M 2.0 1.4 L 27.2 1.4 L 27.2 25.3 L 2.0 25.3 Z M 2.0 1.4 "></path></clipPath><g clip-path="url(#clip-18376)"><text xml:space="preserve" font-family="Helvetica-Bold" font-weight="bold" font-size="7.0" fill="#FEFFFF" transform="matrix(1.00, 0.00, -0.00, -1.00, 10.0, 11.0)">S</text><text xml:space="preserve" font-family="Helvetica-Bold" font-weight="bold" font-size="7.0" fill="#FEFFFF" transform="matrix(1.00, 0.00, -0.00, -1.00, 14.7, 11.0)">2</text></g></g></g></svg>