<?xml version="1.0" encoding="UTF-8" standalone="no"?><svg xmlns="http://www.w3.org/2000/svg" xmlns:xlink="http://www.w3.org/1999/xlink" clip-rule="evenodd" stroke-miterlimit="4.00" viewBox="0 0 30 31"><desc>SVG generated by Keynote</desc><defs></defs><g transform="matrix(1.00, 0.00, -0.00, -1.00, 0.0, 31.0)"><path d="M 14.9 29.7 C 11.4 29.7 7.9 28.3 5.2 25.5 C -0.1 19.9 -0.1 10.9 5.2 5.4 C 10.5 -0.2 19.2 -0.2 24.5 5.4 C 29.8 10.9 29.8 19.9 24.5 25.5 C 21.8 28.3 18.4 29.7 14.9 29.7 Z M 14.9 24.3 C 17.2 24.3 19.5 23.4 21.3 21.7 C 24.9 18.2 24.9 12.6 21.3 9.2 C 17.7 5.7 12.0 5.7 8.4 9.2 C 4.8 12.6 4.8 18.2 8.4 21.7 C 10.2 23.4 12.5 24.3 14.9 24.3 Z M 14.9 24.3 " fill="#000000"></path></g></svg>