<?xml version="1.0" encoding="UTF-8" standalone="no"?><svg xmlns="http://www.w3.org/2000/svg" xmlns:xlink="http://www.w3.org/1999/xlink" clip-rule="evenodd" stroke-miterlimit="4.00" viewBox="0 0 1024 768"><desc>SVG generated by Keynote</desc><defs><linearGradient id="gradSh1.59" x1="0.0" y1="0.0" x2="100.0" y2="0.0" gradientUnits="userSpaceOnUse" gradientTransform="matrix(0.00, -7.70, -10.26, 0.00, 512.0, 769.0)"><stop offset="0.00000" stop-color="#0066C1"></stop><stop offset="0.00147" stop-color="#0065C0"></stop><stop offset="0.05352" stop-color="#0164BE"></stop><stop offset="0.06378" stop-color="#0163BE"></stop><stop offset="0.15982" stop-color="#0260B9"></stop><stop offset="0.17669" stop-color="#0260B8"></stop><stop offset="0.37243" stop-color="#045AB0"></stop><stop offset="0.37390" stop-color="#045AAF"></stop><stop offset="0.79692" stop-color="#084C9C"></stop><stop offset="0.80938" stop-color="#084B9C"></stop><stop offset="1.00000" stop-color="#094593"></stop></linearGradient></defs><g transform="matrix(1.00, 0.00, -0.00, -1.00, 0.0, 768.0)"><g><clipPath id="clip-18531"><path d="M 0.0 768.0 L 1024.0 768.0 L 1024.0 0.0 L 0.0 0.0 Z M 0.0 768.0 "></path></clipPath><g clip-path="url(#clip-18531)"><path d="M 0.0 768.0 L 1024.0 768.0 L 1024.0 0.0 L 0.0 0.0 Z M 0.0 768.0 " fill="url(#gradSh1.59)"></path></g></g><text xml:space="preserve" font-family="Helvetica-Bold" font-weight="bold" font-size="33.6" fill="#FEFFFF" transform="matrix(1.00, 0.00, -0.00, -1.00, 213.0, 474.0)">P</text><text xml:space="preserve" font-family="Helvetica-Bold" font-weight="bold" font-size="33.6" fill="#FEFFFF" transform="matrix(1.00, 0.00, -0.00, -1.00, 235.4, 474.0)">l</text><text xml:space="preserve" font-family="Helvetica-Bold" font-weight="bold" font-size="33.6" fill="#FEFFFF" transform="matrix(1.00, 0.00, -0.00, -1.00, 244.7, 474.0)">a</text><text xml:space="preserve" font-family="Helvetica-Bold" font-weight="bold" font-size="33.6" fill="#FEFFFF" transform="matrix(1.00, 0.00, -0.00, -1.00, 263.4, 474.0)">y</text><text xml:space="preserve" font-family="Helvetica-Bold" font-weight="bold" font-size="33.6" fill="#FEFFFF" transform="matrix(1.00, 0.00, -0.00, -1.00, 282.1, 474.0)">e</text><text xml:space="preserve" font-family="Helvetica-Bold" font-weight="bold" font-size="33.6" fill="#FEFFFF" transform="matrix(1.00, 0.00, -0.00, -1.00, 300.8, 474.0)">r</text><text xml:space="preserve" font-family="Helvetica-Bold" font-weight="bold" font-size="33.6" fill="#FEFFFF" transform="matrix(1.00, 0.00, -0.00, -1.00, 313.9, 474.0)"> </text><text xml:space="preserve" font-family="Helvetica-Bold" font-weight="bold" font-size="33.6" fill="#FEFFFF" transform="matrix(1.00, 0.00, -0.00, -1.00, 323.2, 474.0)">D</text><text xml:space="preserve" font-family="Helvetica-Bold" font-weight="bold" font-size="33.6" fill="#FEFFFF" transform="matrix(1.00, 0.00, -0.00, -1.00, 347.5, 474.0)">r</text><text xml:space="preserve" font-family="Helvetica-Bold" font-weight="bold" font-size="33.6" fill="#FEFFFF" transform="matrix(1.00, 0.00, -0.00, -1.00, 360.6, 474.0)">i</text><text xml:space="preserve" font-family="Helvetica-Bold" font-weight="bold" font-size="33.6" fill="#FEFFFF" transform="matrix(1.00, 0.00, -0.00, -1.00, 369.9, 474.0)">v</text><text xml:space="preserve" font-family="Helvetica-Bold" font-weight="bold" font-size="33.6" fill="#FEFFFF" transform="matrix(1.00, 0.00, -0.00, -1.00, 388.6, 474.0)">e</text><text xml:space="preserve" font-family="Helvetica-Bold" font-weight="bold" font-size="33.6" fill="#FEFFFF" transform="matrix(1.00, 0.00, -0.00, -1.00, 407.3, 474.0)">n</text><text xml:space="preserve" font-family="Helvetica-Bold" font-weight="bold" font-size="33.6" fill="#FEFFFF" transform="matrix(1.00, 0.00, -0.00, -1.00, 427.8, 474.0)">:</text><text xml:space="preserve" font-family="Helvetica-Bold" font-weight="bold" font-size="33.6" fill="#FEFFFF" transform="matrix(1.00, 0.00, -0.00, -1.00, 439.0, 474.0)"> </text><text xml:space="preserve" font-family="Helvetica-Bold" font-weight="bold" font-size="33.6" fill="#FEFFFF" transform="matrix(1.00, 0.00, -0.00, -1.00, 448.3, 474.0)">G</text><text xml:space="preserve" font-family="Helvetica-Bold" font-weight="bold" font-size="33.6" fill="#FEFFFF" transform="matrix(1.00, 0.00, -0.00, -1.00, 474.5, 474.0)">a</text><text xml:space="preserve" font-family="Helvetica-Bold" font-weight="bold" font-size="33.6" fill="#FEFFFF" transform="matrix(1.00, 0.00, -0.00, -1.00, 493.2, 474.0)">m</text><text xml:space="preserve" font-family="Helvetica-Bold" font-weight="bold" font-size="33.6" fill="#FEFFFF" transform="matrix(1.00, 0.00, -0.00, -1.00, 523.0, 474.0)">e</text><text xml:space="preserve" font-family="Helvetica-Bold" font-weight="bold" font-size="33.6" fill="#FEFFFF" transform="matrix(1.00, 0.00, -0.00, -1.00, 541.7, 474.0)"> </text><text xml:space="preserve" font-family="Helvetica-Bold" font-weight="bold" font-size="33.6" fill="#FEFFFF" transform="matrix(1.00, 0.00, -0.00, -1.00, 551.1, 474.0)">S</text><text xml:space="preserve" font-family="Helvetica-Bold" font-weight="bold" font-size="33.6" fill="#FEFFFF" transform="matrix(1.00, 0.00, -0.00, -1.00, 573.5, 474.0)">e</text><text xml:space="preserve" font-family="Helvetica-Bold" font-weight="bold" font-size="33.6" fill="#FEFFFF" transform="matrix(1.00, 0.00, -0.00, -1.00, 592.2, 474.0)">n</text><text xml:space="preserve" font-family="Helvetica-Bold" font-weight="bold" font-size="33.6" fill="#FEFFFF" transform="matrix(1.00, 0.00, -0.00, -1.00, 612.7, 474.0)">s</text><text xml:space="preserve" font-family="Helvetica-Bold" font-weight="bold" font-size="33.6" fill="#FEFFFF" transform="matrix(1.00, 0.00, -0.00, -1.00, 631.4, 474.0)">e</text><text xml:space="preserve" font-family="Helvetica-Bold" font-weight="bold" font-size="33.6" fill="#FEFFFF" transform="matrix(1.00, 0.00, -0.00, -1.00, 650.1, 474.0)"> </text><text xml:space="preserve" font-family="Helvetica-Bold" font-weight="bold" font-size="33.6" fill="#FEFFFF" transform="matrix(1.00, 0.00, -0.00, -1.00, 659.4, 474.0)">F</text><text xml:space="preserve" font-family="Helvetica-Bold" font-weight="bold" font-size="33.6" fill="#FEFFFF" transform="matrix(1.00, 0.00, -0.00, -1.00, 679.9, 474.0)">l</text><text xml:space="preserve" font-family="Helvetica-Bold" font-weight="bold" font-size="33.6" fill="#FEFFFF" transform="matrix(1.00, 0.00, -0.00, -1.00, 689.2, 474.0)">o</text><text xml:space="preserve" font-family="Helvetica-Bold" font-weight="bold" font-size="33.6" fill="#FEFFFF" transform="matrix(1.00, 0.00, -0.00, -1.00, 709.8, 474.0)">w</text><text xml:space="preserve" font-family="Helvetica-Bold" font-weight="bold" font-size="33.6" fill="#FEFFFF" transform="matrix(1.00, 0.00, -0.00, -1.00, 735.9, 474.0)"> </text><text xml:space="preserve" font-family="Helvetica-Bold" font-weight="bold" font-size="33.6" fill="#FEFFFF" transform="matrix(1.00, 0.00, -0.00, -1.00, 745.2, 474.0)">D</text><text xml:space="preserve" font-family="Helvetica-Bold" font-weight="bold" font-size="33.6" fill="#FEFFFF" transform="matrix(1.00, 0.00, -0.00, -1.00, 769.5, 474.0)">r</text><text xml:space="preserve" font-family="Helvetica-Bold" font-weight="bold" font-size="33.6" fill="#FEFFFF" transform="matrix(1.00, 0.00, -0.00, -1.00, 782.6, 474.0)">i</text><text xml:space="preserve" font-family="Helvetica-Bold" font-weight="bold" font-size="33.6" fill="#FEFFFF" transform="matrix(1.00, 0.00, -0.00, -1.00, 791.9, 474.0)">l</text><text xml:space="preserve" font-family="Helvetica-Bold" font-weight="bold" font-size="33.6" fill="#FEFFFF" transform="matrix(1.00, 0.00, -0.00, -1.00, 801.2, 474.0)">l</text><text xml:space="preserve" font-family="Helvetica-Bold" font-weight="bold" font-size="33.6" fill="#FEFFFF" transform="matrix(1.00, 0.00, -0.00, -1.00, 810.6, 474.0)"> </text><text xml:space="preserve" font-family="Helvetica-Light" font-size="33.6" fill="#FEFFFF" transform="matrix(1.00, 0.00, -0.00, -1.00, 374.0, 433.0)">5</text><text xml:space="preserve" font-family="Helvetica-Light" font-size="33.6" fill="#FEFFFF" transform="matrix(1.00, 0.00, -0.00, -1.00, 392.7, 433.0)"> </text><text xml:space="preserve" font-family="Helvetica-Light" font-size="33.6" fill="#FEFFFF" transform="matrix(1.00, 0.00, -0.00, -1.00, 402.0, 433.0)">P</text><text xml:space="preserve" font-family="Helvetica-Light" font-size="33.6" fill="#FEFFFF" transform="matrix(1.00, 0.00, -0.00, -1.00, 422.6, 433.0)">l</text><text xml:space="preserve" font-family="Helvetica-Light" font-size="33.6" fill="#FEFFFF" transform="matrix(1.00, 0.00, -0.00, -1.00, 430.0, 433.0)">a</text><text xml:space="preserve" font-family="Helvetica-Light" font-size="33.6" fill="#FEFFFF" transform="matrix(1.00, 0.00, -0.00, -1.00, 448.7, 433.0)">y</text><text xml:space="preserve" font-family="Helvetica-Light" font-size="33.6" fill="#FEFFFF" transform="matrix(1.00, 0.00, -0.00, -1.00, 465.5, 433.0)">e</text><text xml:space="preserve" font-family="Helvetica-Light" font-size="33.6" fill="#FEFFFF" transform="matrix(1.00, 0.00, -0.00, -1.00, 484.2, 433.0)">r</text><text xml:space="preserve" font-family="Helvetica-Light" font-size="33.6" fill="#FEFFFF" transform="matrix(1.00, 0.00, -0.00, -1.00, 495.4, 433.0)">s</text><text xml:space="preserve" font-family="Helvetica-Light" font-size="33.6" fill="#FEFFFF" transform="matrix(1.00, 0.00, -0.00, -1.00, 512.2, 433.0)"> </text><text xml:space="preserve" font-family="Helvetica-Light" font-size="33.6" fill="#FEFFFF" transform="matrix(1.00, 0.00, -0.00, -1.00, 521.5, 433.0)">a</text><text xml:space="preserve" font-family="Helvetica-Light" font-size="33.6" fill="#FEFFFF" transform="matrix(1.00, 0.00, -0.00, -1.00, 540.2, 433.0)">t</text><text xml:space="preserve" font-family="Helvetica-Light" font-size="33.6" fill="#FEFFFF" transform="matrix(1.00, 0.00, -0.00, -1.00, 549.5, 433.0)"> </text><text xml:space="preserve" font-family="Helvetica-Light" font-size="33.6" fill="#FEFFFF" transform="matrix(1.00, 0.00, -0.00, -1.00, 558.9, 433.0)">a</text><text xml:space="preserve" font-family="Helvetica-Light" font-size="33.6" fill="#FEFFFF" transform="matrix(1.00, 0.00, -0.00, -1.00, 577.5, 433.0)"> </text><text xml:space="preserve" font-family="Helvetica-Light" font-size="33.6" fill="#FEFFFF" transform="matrix(1.00, 0.00, -0.00, -1.00, 586.9, 433.0)">t</text><text xml:space="preserve" font-family="Helvetica-Light" font-size="33.6" fill="#FEFFFF" transform="matrix(1.00, 0.00, -0.00, -1.00, 596.2, 433.0)">i</text><text xml:space="preserve" font-family="Helvetica-Light" font-size="33.6" fill="#FEFFFF" transform="matrix(1.00, 0.00, -0.00, -1.00, 603.7, 433.0)">m</text><text xml:space="preserve" font-family="Helvetica-Light" font-size="33.6" fill="#FEFFFF" transform="matrix(1.00, 0.00, -0.00, -1.00, 631.7, 433.0)">e</text><text xml:space="preserve" font-family="Helvetica-Light" font-size="33.6" fill="#FEFFFF" transform="matrix(1.00, 0.00, -0.00, -1.00, 650.4, 433.0)"> </text><text xml:space="preserve" font-family="Helvetica-Light" font-size="33.6" fill="#FEFFFF" transform="matrix(1.00, 0.00, -0.00, -1.00, 299.0, 392.0)">E</text><text xml:space="preserve" font-family="Helvetica-Light" font-size="33.6" fill="#FEFFFF" transform="matrix(1.00, 0.00, -0.00, -1.00, 319.5, 392.0)">v</text><text xml:space="preserve" font-family="Helvetica-Light" font-size="33.6" fill="#FEFFFF" transform="matrix(1.00, 0.00, -0.00, -1.00, 336.3, 392.0)">e</text><text xml:space="preserve" font-family="Helvetica-Light" font-size="33.6" fill="#FEFFFF" transform="matrix(1.00, 0.00, -0.00, -1.00, 355.0, 392.0)">r</text><text xml:space="preserve" font-family="Helvetica-Light" font-size="33.6" fill="#FEFFFF" transform="matrix(1.00, 0.00, -0.00, -1.00, 366.8, 392.0)">y</text><text xml:space="preserve" font-family="Helvetica-Light" font-size="33.6" fill="#FEFFFF" transform="matrix(1.00, 0.00, -0.00, -1.00, 383.6, 392.0)"> </text><text xml:space="preserve" font-family="Helvetica-Light" font-size="33.6" fill="#FEFFFF" transform="matrix(1.00, 0.00, -0.00, -1.00, 392.9, 392.0)">p</text><text xml:space="preserve" font-family="Helvetica-Light" font-size="33.6" fill="#FEFFFF" transform="matrix(1.00, 0.00, -0.00, -1.00, 413.5, 392.0)">l</text><text xml:space="preserve" font-family="Helvetica-Light" font-size="33.6" fill="#FEFFFF" transform="matrix(1.00, 0.00, -0.00, -1.00, 420.9, 392.0)">a</text><text xml:space="preserve" font-family="Helvetica-Light" font-size="33.6" fill="#FEFFFF" transform="matrix(1.00, 0.00, -0.00, -1.00, 439.6, 392.0)">y</text><text xml:space="preserve" font-family="Helvetica-Light" font-size="33.6" fill="#FEFFFF" transform="matrix(1.00, 0.00, -0.00, -1.00, 456.4, 392.0)">e</text><text xml:space="preserve" font-family="Helvetica-Light" font-size="33.6" fill="#FEFFFF" transform="matrix(1.00, 0.00, -0.00, -1.00, 475.1, 392.0)">r</text><text xml:space="preserve" font-family="Helvetica-Light" font-size="33.6" fill="#FEFFFF" transform="matrix(1.00, 0.00, -0.00, -1.00, 486.3, 392.0)"> </text><text xml:space="preserve" font-family="Helvetica-Light" font-size="33.6" fill="#FEFFFF" transform="matrix(1.00, 0.00, -0.00, -1.00, 495.6, 392.0)">m</text><text xml:space="preserve" font-family="Helvetica-Light" font-size="33.6" fill="#FEFFFF" transform="matrix(1.00, 0.00, -0.00, -1.00, 523.6, 392.0)">u</text><text xml:space="preserve" font-family="Helvetica-Light" font-size="33.6" fill="#FEFFFF" transform="matrix(1.00, 0.00, -0.00, -1.00, 542.3, 392.0)">s</text><text xml:space="preserve" font-family="Helvetica-Light" font-size="33.6" fill="#FEFFFF" transform="matrix(1.00, 0.00, -0.00, -1.00, 559.1, 392.0)">t</text><text xml:space="preserve" font-family="Helvetica-Light" font-size="33.6" fill="#FEFFFF" transform="matrix(1.00, 0.00, -0.00, -1.00, 568.4, 392.0)"> </text><text xml:space="preserve" font-family="Helvetica-Light" font-size="33.6" fill="#FEFFFF" transform="matrix(1.00, 0.00, -0.00, -1.00, 577.8, 392.0)">t</text><text xml:space="preserve" font-family="Helvetica-Light" font-size="33.6" fill="#FEFFFF" transform="matrix(1.00, 0.00, -0.00, -1.00, 587.1, 392.0)">o</text><text xml:space="preserve" font-family="Helvetica-Light" font-size="33.6" fill="#FEFFFF" transform="matrix(1.00, 0.00, -0.00, -1.00, 605.8, 392.0)">u</text><text xml:space="preserve" font-family="Helvetica-Light" font-size="33.6" fill="#FEFFFF" transform="matrix(1.00, 0.00, -0.00, -1.00, 624.5, 392.0)">c</text><text xml:space="preserve" font-family="Helvetica-Light" font-size="33.6" fill="#FEFFFF" transform="matrix(1.00, 0.00, -0.00, -1.00, 643.2, 392.0)">h</text><text xml:space="preserve" font-family="Helvetica-Light" font-size="33.6" fill="#FEFFFF" transform="matrix(1.00, 0.00, -0.00, -1.00, 661.8, 392.0)"> </text><text xml:space="preserve" font-family="Helvetica-Light" font-size="33.6" fill="#FEFFFF" transform="matrix(1.00, 0.00, -0.00, -1.00, 671.2, 392.0)">b</text><text xml:space="preserve" font-family="Helvetica-Light" font-size="33.6" fill="#FEFFFF" transform="matrix(1.00, 0.00, -0.00, -1.00, 691.7, 392.0)">a</text><text xml:space="preserve" font-family="Helvetica-Light" font-size="33.6" fill="#FEFFFF" transform="matrix(1.00, 0.00, -0.00, -1.00, 710.4, 392.0)">l</text><text xml:space="preserve" font-family="Helvetica-Light" font-size="33.6" fill="#FEFFFF" transform="matrix(1.00, 0.00, -0.00, -1.00, 717.9, 392.0)">l</text><text xml:space="preserve" font-family="Helvetica-Light" font-size="33.6" fill="#FEFFFF" transform="matrix(1.00, 0.00, -0.00, -1.00, 725.3, 392.0)"> </text><text xml:space="preserve" font-family="Helvetica-Light" font-size="33.6" fill="#FEFFFF" transform="matrix(1.00, 0.00, -0.00, -1.00, 288.0, 351.0)">C</text><text xml:space="preserve" font-family="Helvetica-Light" font-size="33.6" fill="#FEFFFF" transform="matrix(1.00, 0.00, -0.00, -1.00, 312.3, 351.0)">a</text><text xml:space="preserve" font-family="Helvetica-Light" font-size="33.6" fill="#FEFFFF" transform="matrix(1.00, 0.00, -0.00, -1.00, 330.9, 351.0)">n</text><text xml:space="preserve" font-family="Helvetica-Light" font-size="33.6" fill="#FEFFFF" transform="matrix(1.00, 0.00, -0.00, -1.00, 349.6, 351.0)">’</text><text xml:space="preserve" font-family="Helvetica-Light" font-size="33.6" fill="#FEFFFF" transform="matrix(1.00, 0.00, -0.00, -1.00, 356.5, 351.0)">t</text><text xml:space="preserve" font-family="Helvetica-Light" font-size="33.6" fill="#FEFFFF" transform="matrix(1.00, 0.00, -0.00, -1.00, 365.8, 351.0)"> </text><text xml:space="preserve" font-family="Helvetica-Light" font-size="33.6" fill="#FEFFFF" transform="matrix(1.00, 0.00, -0.00, -1.00, 375.2, 351.0)">c</text><text xml:space="preserve" font-family="Helvetica-Light" font-size="33.6" fill="#FEFFFF" transform="matrix(1.00, 0.00, -0.00, -1.00, 393.8, 351.0)">a</text><text xml:space="preserve" font-family="Helvetica-Light" font-size="33.6" fill="#FEFFFF" transform="matrix(1.00, 0.00, -0.00, -1.00, 412.5, 351.0)">r</text><text xml:space="preserve" font-family="Helvetica-Light" font-size="33.6" fill="#FEFFFF" transform="matrix(1.00, 0.00, -0.00, -1.00, 423.7, 351.0)">r</text><text xml:space="preserve" font-family="Helvetica-Light" font-size="33.6" fill="#FEFFFF" transform="matrix(1.00, 0.00, -0.00, -1.00, 435.5, 351.0)">y</text><text xml:space="preserve" font-family="Helvetica-Light" font-size="33.6" fill="#FEFFFF" transform="matrix(1.00, 0.00, -0.00, -1.00, 452.3, 351.0)"> </text><text xml:space="preserve" font-family="Helvetica-Light" font-size="33.6" fill="#FEFFFF" transform="matrix(1.00, 0.00, -0.00, -1.00, 461.6, 351.0)">a</text><text xml:space="preserve" font-family="Helvetica-Light" font-size="33.6" fill="#FEFFFF" transform="matrix(1.00, 0.00, -0.00, -1.00, 480.3, 351.0)">c</text><text xml:space="preserve" font-family="Helvetica-Light" font-size="33.6" fill="#FEFFFF" transform="matrix(1.00, 0.00, -0.00, -1.00, 499.0, 351.0)">r</text><text xml:space="preserve" font-family="Helvetica-Light" font-size="33.6" fill="#FEFFFF" transform="matrix(1.00, 0.00, -0.00, -1.00, 509.6, 351.0)">o</text><text xml:space="preserve" font-family="Helvetica-Light" font-size="33.6" fill="#FEFFFF" transform="matrix(1.00, 0.00, -0.00, -1.00, 528.3, 351.0)">s</text><text xml:space="preserve" font-family="Helvetica-Light" font-size="33.6" fill="#FEFFFF" transform="matrix(1.00, 0.00, -0.00, -1.00, 545.1, 351.0)">s</text><text xml:space="preserve" font-family="Helvetica-Light" font-size="33.6" fill="#FEFFFF" transform="matrix(1.00, 0.00, -0.00, -1.00, 561.9, 351.0)"> </text><text xml:space="preserve" font-family="Helvetica-Light" font-size="33.6" fill="#FEFFFF" transform="matrix(1.00, 0.00, -0.00, -1.00, 571.2, 351.0)">a</text><text xml:space="preserve" font-family="Helvetica-Light" font-size="33.6" fill="#FEFFFF" transform="matrix(1.00, 0.00, -0.00, -1.00, 589.9, 351.0)"> </text><text xml:space="preserve" font-family="Helvetica-Light" font-size="33.6" fill="#FEFFFF" transform="matrix(1.00, 0.00, -0.00, -1.00, 599.2, 351.0)">q</text><text xml:space="preserve" font-family="Helvetica-Light" font-size="33.6" fill="#FEFFFF" transform="matrix(1.00, 0.00, -0.00, -1.00, 619.8, 351.0)">u</text><text xml:space="preserve" font-family="Helvetica-Light" font-size="33.6" fill="#FEFFFF" transform="matrix(1.00, 0.00, -0.00, -1.00, 638.4, 351.0)">a</text><text xml:space="preserve" font-family="Helvetica-Light" font-size="33.6" fill="#FEFFFF" transform="matrix(1.00, 0.00, -0.00, -1.00, 657.1, 351.0)">d</text><text xml:space="preserve" font-family="Helvetica-Light" font-size="33.6" fill="#FEFFFF" transform="matrix(1.00, 0.00, -0.00, -1.00, 677.7, 351.0)">r</text><text xml:space="preserve" font-family="Helvetica-Light" font-size="33.6" fill="#FEFFFF" transform="matrix(1.00, 0.00, -0.00, -1.00, 688.8, 351.0)">a</text><text xml:space="preserve" font-family="Helvetica-Light" font-size="33.6" fill="#FEFFFF" transform="matrix(1.00, 0.00, -0.00, -1.00, 707.5, 351.0)">n</text><text xml:space="preserve" font-family="Helvetica-Light" font-size="33.6" fill="#FEFFFF" transform="matrix(1.00, 0.00, -0.00, -1.00, 726.2, 351.0)">t</text><text xml:space="preserve" font-family="Helvetica-Light" font-size="33.6" fill="#FEFFFF" transform="matrix(1.00, 0.00, -0.00, -1.00, 735.6, 351.0)"> </text><text xml:space="preserve" font-family="Helvetica-Light" font-size="33.6" fill="#FEFFFF" transform="matrix(1.00, 0.00, -0.00, -1.00, 744.9, 351.0)"> </text><text xml:space="preserve" font-family="Helvetica-Light" font-size="33.6" fill="#FEFFFF" transform="matrix(1.00, 0.00, -0.00, -1.00, 111.0, 310.0)">B</text><text xml:space="preserve" font-family="Helvetica-Light" font-size="33.6" fill="#FEFFFF" transform="matrix(1.00, 0.00, -0.00, -1.00, 133.4, 310.0)">a</text><text xml:space="preserve" font-family="Helvetica-Light" font-size="33.6" fill="#FEFFFF" transform="matrix(1.00, 0.00, -0.00, -1.00, 152.1, 310.0)">l</text><text xml:space="preserve" font-family="Helvetica-Light" font-size="33.6" fill="#FEFFFF" transform="matrix(1.00, 0.00, -0.00, -1.00, 159.6, 310.0)">l</text><text xml:space="preserve" font-family="Helvetica-Light" font-size="33.6" fill="#FEFFFF" transform="matrix(1.00, 0.00, -0.00, -1.00, 167.0, 310.0)">s</text><text xml:space="preserve" font-family="Helvetica-Light" font-size="33.6" fill="#FEFFFF" transform="matrix(1.00, 0.00, -0.00, -1.00, 183.8, 310.0)"> </text><text xml:space="preserve" font-family="Helvetica-Light" font-size="33.6" fill="#FEFFFF" transform="matrix(1.00, 0.00, -0.00, -1.00, 193.2, 310.0)">m</text><text xml:space="preserve" font-family="Helvetica-Light" font-size="33.6" fill="#FEFFFF" transform="matrix(1.00, 0.00, -0.00, -1.00, 221.1, 310.0)">u</text><text xml:space="preserve" font-family="Helvetica-Light" font-size="33.6" fill="#FEFFFF" transform="matrix(1.00, 0.00, -0.00, -1.00, 239.8, 310.0)">s</text><text xml:space="preserve" font-family="Helvetica-Light" font-size="33.6" fill="#FEFFFF" transform="matrix(1.00, 0.00, -0.00, -1.00, 256.6, 310.0)">t</text><text xml:space="preserve" font-family="Helvetica-Light" font-size="33.6" fill="#FEFFFF" transform="matrix(1.00, 0.00, -0.00, -1.00, 266.0, 310.0)"> </text><text xml:space="preserve" font-family="Helvetica-Light" font-size="33.6" fill="#FEFFFF" transform="matrix(1.00, 0.00, -0.00, -1.00, 275.3, 310.0)">g</text><text xml:space="preserve" font-family="Helvetica-Light" font-size="33.6" fill="#FEFFFF" transform="matrix(1.00, 0.00, -0.00, -1.00, 295.8, 310.0)">o</text><text xml:space="preserve" font-family="Helvetica-Light" font-size="33.6" fill="#FEFFFF" transform="matrix(1.00, 0.00, -0.00, -1.00, 314.5, 310.0)"> </text><text xml:space="preserve" font-family="Helvetica-Light" font-size="33.6" fill="#FEFFFF" transform="matrix(1.00, 0.00, -0.00, -1.00, 323.9, 310.0)">o</text><text xml:space="preserve" font-family="Helvetica-Light" font-size="33.6" fill="#FEFFFF" transform="matrix(1.00, 0.00, -0.00, -1.00, 342.5, 310.0)">u</text><text xml:space="preserve" font-family="Helvetica-Light" font-size="33.6" fill="#FEFFFF" transform="matrix(1.00, 0.00, -0.00, -1.00, 361.2, 310.0)">t</text><text xml:space="preserve" font-family="Helvetica-Light" font-size="33.6" fill="#FEFFFF" transform="matrix(1.00, 0.00, -0.00, -1.00, 370.6, 310.0)">s</text><text xml:space="preserve" font-family="Helvetica-Light" font-size="33.6" fill="#FEFFFF" transform="matrix(1.00, 0.00, -0.00, -1.00, 387.4, 310.0)">i</text><text xml:space="preserve" font-family="Helvetica-Light" font-size="33.6" fill="#FEFFFF" transform="matrix(1.00, 0.00, -0.00, -1.00, 394.8, 310.0)">d</text><text xml:space="preserve" font-family="Helvetica-Light" font-size="33.6" fill="#FEFFFF" transform="matrix(1.00, 0.00, -0.00, -1.00, 415.3, 310.0)">e</text><text xml:space="preserve" font-family="Helvetica-Light" font-size="33.6" fill="#FEFFFF" transform="matrix(1.00, 0.00, -0.00, -1.00, 434.0, 310.0)"> </text><text xml:space="preserve" font-family="Helvetica-Light" font-size="33.6" fill="#FEFFFF" transform="matrix(1.00, 0.00, -0.00, -1.00, 443.4, 310.0)">b</text><text xml:space="preserve" font-family="Helvetica-Light" font-size="33.6" fill="#FEFFFF" transform="matrix(1.00, 0.00, -0.00, -1.00, 463.9, 310.0)">o</text><text xml:space="preserve" font-family="Helvetica-Light" font-size="33.6" fill="#FEFFFF" transform="matrix(1.00, 0.00, -0.00, -1.00, 482.6, 310.0)">t</text><text xml:space="preserve" font-family="Helvetica-Light" font-size="33.6" fill="#FEFFFF" transform="matrix(1.00, 0.00, -0.00, -1.00, 491.9, 310.0)">h</text><text xml:space="preserve" font-family="Helvetica-Light" font-size="33.6" fill="#FEFFFF" transform="matrix(1.00, 0.00, -0.00, -1.00, 510.6, 310.0)"> </text><text xml:space="preserve" font-family="Helvetica-Light" font-size="33.6" fill="#FEFFFF" transform="matrix(1.00, 0.00, -0.00, -1.00, 519.9, 310.0)">t</text><text xml:space="preserve" font-family="Helvetica-Light" font-size="33.6" fill="#FEFFFF" transform="matrix(1.00, 0.00, -0.00, -1.00, 529.3, 310.0)">i</text><text xml:space="preserve" font-family="Helvetica-Light" font-size="33.6" fill="#FEFFFF" transform="matrix(1.00, 0.00, -0.00, -1.00, 536.7, 310.0)">r</text><text xml:space="preserve" font-family="Helvetica-Light" font-size="33.6" fill="#FEFFFF" transform="matrix(1.00, 0.00, -0.00, -1.00, 547.3, 310.0)">e</text><text xml:space="preserve" font-family="Helvetica-Light" font-size="33.6" fill="#FEFFFF" transform="matrix(1.00, 0.00, -0.00, -1.00, 566.0, 310.0)">s</text><text xml:space="preserve" font-family="Helvetica-Light" font-size="33.6" fill="#FEFFFF" transform="matrix(1.00, 0.00, -0.00, -1.00, 582.8, 310.0)"> </text><text xml:space="preserve" font-family="Helvetica-Light" font-size="33.6" fill="#FEFFFF" transform="matrix(1.00, 0.00, -0.00, -1.00, 592.2, 310.0)">b</text><text xml:space="preserve" font-family="Helvetica-Light" font-size="33.6" fill="#FEFFFF" transform="matrix(1.00, 0.00, -0.00, -1.00, 612.7, 310.0)">e</text><text xml:space="preserve" font-family="Helvetica-Light" font-size="33.6" fill="#FEFFFF" transform="matrix(1.00, 0.00, -0.00, -1.00, 631.4, 310.0)">f</text><text xml:space="preserve" font-family="Helvetica-Light" font-size="33.6" fill="#FEFFFF" transform="matrix(1.00, 0.00, -0.00, -1.00, 640.7, 310.0)">o</text><text xml:space="preserve" font-family="Helvetica-Light" font-size="33.6" fill="#FEFFFF" transform="matrix(1.00, 0.00, -0.00, -1.00, 659.4, 310.0)">r</text><text xml:space="preserve" font-family="Helvetica-Light" font-size="33.6" fill="#FEFFFF" transform="matrix(1.00, 0.00, -0.00, -1.00, 670.0, 310.0)">e</text><text xml:space="preserve" font-family="Helvetica-Light" font-size="33.6" fill="#FEFFFF" transform="matrix(1.00, 0.00, -0.00, -1.00, 688.7, 310.0)"> </text><text xml:space="preserve" font-family="Helvetica-Light" font-size="33.6" fill="#FEFFFF" transform="matrix(1.00, 0.00, -0.00, -1.00, 698.0, 310.0)">e</text><text xml:space="preserve" font-family="Helvetica-Light" font-size="33.6" fill="#FEFFFF" transform="matrix(1.00, 0.00, -0.00, -1.00, 716.7, 310.0)">n</text><text xml:space="preserve" font-family="Helvetica-Light" font-size="33.6" fill="#FEFFFF" transform="matrix(1.00, 0.00, -0.00, -1.00, 735.4, 310.0)">t</text><text xml:space="preserve" font-family="Helvetica-Light" font-size="33.6" fill="#FEFFFF" transform="matrix(1.00, 0.00, -0.00, -1.00, 744.7, 310.0)">e</text><text xml:space="preserve" font-family="Helvetica-Light" font-size="33.6" fill="#FEFFFF" transform="matrix(1.00, 0.00, -0.00, -1.00, 763.4, 310.0)">r</text><text xml:space="preserve" font-family="Helvetica-Light" font-size="33.6" fill="#FEFFFF" transform="matrix(1.00, 0.00, -0.00, -1.00, 774.6, 310.0)">i</text><text xml:space="preserve" font-family="Helvetica-Light" font-size="33.6" fill="#FEFFFF" transform="matrix(1.00, 0.00, -0.00, -1.00, 782.0, 310.0)">n</text><text xml:space="preserve" font-family="Helvetica-Light" font-size="33.6" fill="#FEFFFF" transform="matrix(1.00, 0.00, -0.00, -1.00, 800.7, 310.0)">g</text><text xml:space="preserve" font-family="Helvetica-Light" font-size="33.6" fill="#FEFFFF" transform="matrix(1.00, 0.00, -0.00, -1.00, 821.2, 310.0)"> </text><text xml:space="preserve" font-family="Helvetica-Light" font-size="33.6" fill="#FEFFFF" transform="matrix(1.00, 0.00, -0.00, -1.00, 830.6, 310.0)">c</text><text xml:space="preserve" font-family="Helvetica-Light" font-size="33.6" fill="#FEFFFF" transform="matrix(1.00, 0.00, -0.00, -1.00, 849.3, 310.0)">i</text><text xml:space="preserve" font-family="Helvetica-Light" font-size="33.6" fill="#FEFFFF" transform="matrix(1.00, 0.00, -0.00, -1.00, 856.7, 310.0)">r</text><text xml:space="preserve" font-family="Helvetica-Light" font-size="33.6" fill="#FEFFFF" transform="matrix(1.00, 0.00, -0.00, -1.00, 867.3, 310.0)">c</text><text xml:space="preserve" font-family="Helvetica-Light" font-size="33.6" fill="#FEFFFF" transform="matrix(1.00, 0.00, -0.00, -1.00, 886.0, 310.0)">l</text><text xml:space="preserve" font-family="Helvetica-Light" font-size="33.6" fill="#FEFFFF" transform="matrix(1.00, 0.00, -0.00, -1.00, 893.4, 310.0)">e</text><text xml:space="preserve" font-family="Helvetica-Light" font-size="33.6" fill="#FEFFFF" transform="matrix(1.00, 0.00, -0.00, -1.00, 912.1, 310.0)"> </text></g></svg>