<?xml version="1.0" encoding="UTF-8" standalone="no"?><svg xmlns="http://www.w3.org/2000/svg" xmlns:xlink="http://www.w3.org/1999/xlink" clip-rule="evenodd" stroke-miterlimit="4.00" viewBox="0 0 46 40"><desc>SVG generated by Keynote</desc><defs></defs><g transform="matrix(1.00, 0.00, -0.00, -1.00, 0.0, 40.0)"><g><clipPath id="clip-19096"><path d="M 3.3 1.3 L 25.3 1.3 L 25.3 23.3 L 3.3 23.3 Z M 3.3 1.3 "></path></clipPath><g clip-path="url(#clip-19096)"><image xlink:href="../../0DED08B5-48C8-4E6A-B1AD-B01FA6B3AB41/assets/12FBFBF7A323C8BDCACC7E2724B223EA.png" width="20.00" height="20.00" transform="matrix(1.00, 0.00, -0.00, -1.00, 4.3, 22.3)" opacity="0.80"></image><path d="M 17.1 15.2 C 18.7 13.6 18.7 11.1 17.1 9.5 C 15.6 7.9 13.0 7.9 11.5 9.5 C 9.9 11.1 9.9 13.6 11.5 15.2 C 13.0 16.7 15.6 16.7 17.1 15.2 Z M 17.1 15.2 " fill="#FEFFFE"></path></g></g><g><clipPath id="clip-19097"><path d="M 13.3 0.3 L 35.3 0.3 L 35.3 22.3 L 13.3 22.3 Z M 13.3 0.3 "></path></clipPath><g clip-path="url(#clip-19097)"><image xlink:href="../../0DED08B5-48C8-4E6A-B1AD-B01FA6B3AB41/assets/12FBFBF7A323C8BDCACC7E2724B223EA.png" width="20.00" height="20.00" transform="matrix(1.00, 0.00, -0.00, -1.00, 14.3, 21.3)" opacity="0.80"></image><path d="M 27.1 14.2 C 28.7 12.6 28.7 10.1 27.1 8.5 C 25.6 6.9 23.0 6.9 21.5 8.5 C 19.9 10.1 19.9 12.6 21.5 14.2 C 23.0 15.7 25.6 15.7 27.1 14.2 Z M 27.1 14.2 " fill="#FEFFFE"></path></g></g><g><clipPath id="clip-19098"><path d="M 23.3 0.3 L 45.3 0.3 L 45.3 22.3 L 23.3 22.3 Z M 23.3 0.3 "></path></clipPath><g clip-path="url(#clip-19098)"><image xlink:href="../../0DED08B5-48C8-4E6A-B1AD-B01FA6B3AB41/assets/12FBFBF7A323C8BDCACC7E2724B223EA.png" width="20.00" height="20.00" transform="matrix(1.00, 0.00, -0.00, -1.00, 24.3, 21.3)" opacity="0.80"></image><path d="M 37.1 14.2 C 38.7 12.6 38.7 10.1 37.1 8.5 C 35.6 6.9 33.0 6.9 31.5 8.5 C 29.9 10.1 29.9 12.6 31.5 14.2 C 33.0 15.7 35.6 15.7 37.1 14.2 Z M 37.1 14.2 " fill="#FEFFFE"></path></g></g><g><clipPath id="clip-19099"><path d="M 0.3 10.2 L 22.3 10.2 L 22.3 32.2 L 0.3 32.2 Z M 0.3 10.2 "></path></clipPath><g clip-path="url(#clip-19099)"><image xlink:href="../../0DED08B5-48C8-4E6A-B1AD-B01FA6B3AB41/assets/12FBFBF7A323C8BDCACC7E2724B223EA.png" width="20.00" height="20.00" transform="matrix(1.00, 0.00, -0.00, -1.00, 1.3, 31.2)" opacity="0.80"></image><path d="M 14.1 24.1 C 15.7 22.5 15.7 20.0 14.1 18.4 C 12.6 16.8 10.0 16.8 8.5 18.4 C 6.9 20.0 6.9 22.5 8.5 24.1 C 10.0 25.6 12.6 25.6 14.1 24.1 Z M 14.1 24.1 " fill="#FEFFFE"></path></g></g><g><clipPath id="clip-19100"><path d="M 10.3 9.2 L 32.3 9.2 L 32.3 31.2 L 10.3 31.2 Z M 10.3 9.2 "></path></clipPath><g clip-path="url(#clip-19100)"><image xlink:href="../../0DED08B5-48C8-4E6A-B1AD-B01FA6B3AB41/assets/12FBFBF7A323C8BDCACC7E2724B223EA.png" width="20.00" height="20.00" transform="matrix(1.00, 0.00, -0.00, -1.00, 11.3, 30.2)" opacity="0.80"></image><path d="M 24.1 23.1 C 25.7 21.5 25.7 19.0 24.1 17.4 C 22.6 15.8 20.0 15.8 18.5 17.4 C 16.9 19.0 16.9 21.5 18.5 23.1 C 20.0 24.6 22.6 24.6 24.1 23.1 Z M 24.1 23.1 " fill="#FEFFFE"></path></g></g><g><clipPath id="clip-19101"><path d="M 20.3 9.2 L 42.3 9.2 L 42.3 31.2 L 20.3 31.2 Z M 20.3 9.2 "></path></clipPath><g clip-path="url(#clip-19101)"><image xlink:href="../../0DED08B5-48C8-4E6A-B1AD-B01FA6B3AB41/assets/12FBFBF7A323C8BDCACC7E2724B223EA.png" width="20.00" height="20.00" transform="matrix(1.00, 0.00, -0.00, -1.00, 21.3, 30.2)" opacity="0.80"></image><path d="M 34.1 23.1 C 35.7 21.5 35.7 19.0 34.1 17.4 C 32.6 15.8 30.0 15.8 28.5 17.4 C 26.9 19.0 26.9 21.5 28.5 23.1 C 30.0 24.6 32.6 24.6 34.1 23.1 Z M 34.1 23.1 " fill="#FEFFFE"></path></g></g><g><clipPath id="clip-19102"><path d="M 5.3 17.2 L 27.3 17.2 L 27.3 39.2 L 5.3 39.2 Z M 5.3 17.2 "></path></clipPath><g clip-path="url(#clip-19102)"><image xlink:href="../../0DED08B5-48C8-4E6A-B1AD-B01FA6B3AB41/assets/12FBFBF7A323C8BDCACC7E2724B223EA.png" width="20.00" height="20.00" transform="matrix(1.00, 0.00, -0.00, -1.00, 6.3, 38.2)" opacity="0.80"></image><path d="M 19.1 31.1 C 20.7 29.5 20.7 27.0 19.1 25.4 C 17.6 23.8 15.0 23.8 13.5 25.4 C 11.9 27.0 11.9 29.5 13.5 31.1 C 15.0 32.6 17.6 32.6 19.1 31.1 Z M 19.1 31.1 " fill="#FEFFFE"></path></g></g><g><clipPath id="clip-19103"><path d="M 15.3 17.2 L 37.3 17.2 L 37.3 39.2 L 15.3 39.2 Z M 15.3 17.2 "></path></clipPath><g clip-path="url(#clip-19103)"><image xlink:href="../../0DED08B5-48C8-4E6A-B1AD-B01FA6B3AB41/assets/12FBFBF7A323C8BDCACC7E2724B223EA.png" width="20.00" height="20.00" transform="matrix(1.00, 0.00, -0.00, -1.00, 16.3, 38.2)" opacity="0.80"></image><path d="M 29.1 31.1 C 30.7 29.5 30.7 27.0 29.1 25.4 C 27.6 23.8 25.0 23.8 23.5 25.4 C 21.9 27.0 21.9 29.5 23.5 31.1 C 25.0 32.6 27.6 32.6 29.1 31.1 Z M 29.1 31.1 " fill="#FEFFFE"></path></g></g></g></svg>