<?xml version="1.0" encoding="UTF-8" standalone="no"?><svg xmlns="http://www.w3.org/2000/svg" xmlns:xlink="http://www.w3.org/1999/xlink" clip-rule="evenodd" stroke-miterlimit="4.00" viewBox="0 0 378 52"><desc>SVG generated by Keynote</desc><defs></defs><g transform="matrix(1.00, 0.00, -0.00, -1.00, 0.0, 52.0)"><text xml:space="preserve" font-family="Helvetica-Bold" font-weight="bold" font-size="60.0" fill="#FEFFFF" transform="matrix(1.00, 0.00, -0.00, -1.00, 0.0, 5.0)">S</text><text xml:space="preserve" font-family="Helvetica-Bold" font-weight="bold" font-size="60.0" fill="#FEFFFF" transform="matrix(1.00, 0.00, -0.00, -1.00, 40.0, 5.0)">t</text><text xml:space="preserve" font-family="Helvetica-Bold" font-weight="bold" font-size="60.0" fill="#FEFFFF" transform="matrix(1.00, 0.00, -0.00, -1.00, 60.0, 5.0)">r</text><text xml:space="preserve" font-family="Helvetica-Bold" font-weight="bold" font-size="60.0" fill="#FEFFFF" transform="matrix(1.00, 0.00, -0.00, -1.00, 83.4, 5.0)">i</text><text xml:space="preserve" font-family="Helvetica-Bold" font-weight="bold" font-size="60.0" fill="#FEFFFF" transform="matrix(1.00, 0.00, -0.00, -1.00, 100.0, 5.0)">k</text><text xml:space="preserve" font-family="Helvetica-Bold" font-weight="bold" font-size="60.0" fill="#FEFFFF" transform="matrix(1.00, 0.00, -0.00, -1.00, 133.4, 5.0)">e</text><text xml:space="preserve" font-family="Helvetica-Bold" font-weight="bold" font-size="60.0" fill="#FEFFFF" transform="matrix(1.00, 0.00, -0.00, -1.00, 166.8, 5.0)">r</text><text xml:space="preserve" font-family="Helvetica-Bold" font-weight="bold" font-size="60.0" fill="#FEFFFF" transform="matrix(1.00, 0.00, -0.00, -1.00, 190.1, 5.0)"> </text><text xml:space="preserve" font-family="Helvetica-Bold" font-weight="bold" font-size="60.0" fill="#FEFFFF" transform="matrix(1.00, 0.00, -0.00, -1.00, 206.8, 5.0)">Q</text><text xml:space="preserve" font-family="Helvetica-Bold" font-weight="bold" font-size="60.0" fill="#FEFFFF" transform="matrix(1.00, 0.00, -0.00, -1.00, 253.5, 5.0)">u</text><text xml:space="preserve" font-family="Helvetica-Bold" font-weight="bold" font-size="60.0" fill="#FEFFFF" transform="matrix(1.00, 0.00, -0.00, -1.00, 290.1, 5.0)">e</text><text xml:space="preserve" font-family="Helvetica-Bold" font-weight="bold" font-size="60.0" fill="#FEFFFF" transform="matrix(1.00, 0.00, -0.00, -1.00, 323.5, 5.0)">s</text><text xml:space="preserve" font-family="Helvetica-Bold" font-weight="bold" font-size="60.0" fill="#FEFFFF" transform="matrix(1.00, 0.00, -0.00, -1.00, 356.9, 5.0)">t</text></g></svg>