<?xml version="1.0" encoding="UTF-8" standalone="no"?><svg xmlns="http://www.w3.org/2000/svg" xmlns:xlink="http://www.w3.org/1999/xlink" clip-rule="evenodd" stroke-miterlimit="4.00" viewBox="0 0 213 26"><desc>SVG generated by Keynote</desc><defs></defs><g transform="matrix(1.00, 0.00, -0.00, -1.00, 0.0, 26.0)"><text xml:space="preserve" font-family="Helvetica-Light" font-size="26.0" fill="#FEFFFF" transform="matrix(1.00, 0.00, -0.00, -1.00, -1.8, 4.0)">1</text><text xml:space="preserve" font-family="Helvetica-Light" font-size="26.0" fill="#FEFFFF" transform="matrix(1.00, 0.00, -0.00, -1.00, 12.7, 4.0)"> </text><text xml:space="preserve" font-family="Helvetica-Light" font-size="26.0" fill="#FEFFFF" transform="matrix(1.00, 0.00, -0.00, -1.00, 19.9, 4.0)">F</text><text xml:space="preserve" font-family="Helvetica-Light" font-size="26.0" fill="#FEFFFF" transform="matrix(1.00, 0.00, -0.00, -1.00, 34.4, 4.0)">l</text><text xml:space="preserve" font-family="Helvetica-Light" font-size="26.0" fill="#FEFFFF" transform="matrix(1.00, 0.00, -0.00, -1.00, 40.1, 4.0)">i</text><text xml:space="preserve" font-family="Helvetica-Light" font-size="26.0" fill="#FEFFFF" transform="matrix(1.00, 0.00, -0.00, -1.00, 45.9, 4.0)">c</text><text xml:space="preserve" font-family="Helvetica-Light" font-size="26.0" fill="#FEFFFF" transform="matrix(1.00, 0.00, -0.00, -1.00, 60.4, 4.0)">k</text><text xml:space="preserve" font-family="Helvetica-Light" font-size="26.0" fill="#FEFFFF" transform="matrix(1.00, 0.00, -0.00, -1.00, 73.4, 4.0)">/</text><text xml:space="preserve" font-family="Helvetica-Light" font-size="26.0" fill="#FEFFFF" transform="matrix(1.00, 0.00, -0.00, -1.00, 80.6, 4.0)">L</text><text xml:space="preserve" font-family="Helvetica-Light" font-size="26.0" fill="#FEFFFF" transform="matrix(1.00, 0.00, -0.00, -1.00, 95.1, 4.0)">i</text><text xml:space="preserve" font-family="Helvetica-Light" font-size="26.0" fill="#FEFFFF" transform="matrix(1.00, 0.00, -0.00, -1.00, 100.8, 4.0)">f</text><text xml:space="preserve" font-family="Helvetica-Light" font-size="26.0" fill="#FEFFFF" transform="matrix(1.00, 0.00, -0.00, -1.00, 108.1, 4.0)">t</text><text xml:space="preserve" font-family="Helvetica-Light" font-size="26.0" fill="#FEFFFF" transform="matrix(1.00, 0.00, -0.00, -1.00, 115.3, 4.0)">e</text><text xml:space="preserve" font-family="Helvetica-Light" font-size="26.0" fill="#FEFFFF" transform="matrix(1.00, 0.00, -0.00, -1.00, 129.7, 4.0)">d</text><text xml:space="preserve" font-family="Helvetica-Light" font-size="26.0" fill="#FEFFFF" transform="matrix(1.00, 0.00, -0.00, -1.00, 145.6, 4.0)"> </text><text xml:space="preserve" font-family="Helvetica-Light" font-size="26.0" fill="#FEFFFF" transform="matrix(1.00, 0.00, -0.00, -1.00, 152.8, 4.0)">F</text><text xml:space="preserve" font-family="Helvetica-Light" font-size="26.0" fill="#FEFFFF" transform="matrix(1.00, 0.00, -0.00, -1.00, 167.3, 4.0)">e</text><text xml:space="preserve" font-family="Helvetica-Light" font-size="26.0" fill="#FEFFFF" transform="matrix(1.00, 0.00, -0.00, -1.00, 181.8, 4.0)">e</text><text xml:space="preserve" font-family="Helvetica-Light" font-size="26.0" fill="#FEFFFF" transform="matrix(1.00, 0.00, -0.00, -1.00, 196.2, 4.0)">d</text></g></svg>