<?xml version="1.0" encoding="UTF-8" standalone="no"?><svg xmlns="http://www.w3.org/2000/svg" xmlns:xlink="http://www.w3.org/1999/xlink" clip-rule="evenodd" stroke-miterlimit="4.00" viewBox="0 0 140 28"><desc>SVG generated by Keynote</desc><defs></defs><g transform="matrix(1.00, 0.00, -0.00, -1.00, 0.0, 28.0)"><text xml:space="preserve" font-family="Helvetica-Light" font-size="26.0" fill="#FEFFFF" transform="matrix(1.00, 0.00, -0.00, -1.00, 1.0, 7.0)">W</text><text xml:space="preserve" font-family="Helvetica-Light" font-size="26.0" fill="#FEFFFF" transform="matrix(1.00, 0.00, -0.00, -1.00, 23.6, 7.0)">o</text><text xml:space="preserve" font-family="Helvetica-Light" font-size="26.0" fill="#FEFFFF" transform="matrix(1.00, 0.00, -0.00, -1.00, 38.1, 7.0)">r</text><text xml:space="preserve" font-family="Helvetica-Light" font-size="26.0" fill="#FEFFFF" transform="matrix(1.00, 0.00, -0.00, -1.00, 46.8, 7.0)">k</text><text xml:space="preserve" font-family="Helvetica-Light" font-size="26.0" fill="#FEFFFF" transform="matrix(1.00, 0.00, -0.00, -1.00, 59.8, 7.0)">i</text><text xml:space="preserve" font-family="Helvetica-Light" font-size="26.0" fill="#FEFFFF" transform="matrix(1.00, 0.00, -0.00, -1.00, 65.5, 7.0)">n</text><text xml:space="preserve" font-family="Helvetica-Light" font-size="26.0" fill="#FEFFFF" transform="matrix(1.00, 0.00, -0.00, -1.00, 80.0, 7.0)">g</text><text xml:space="preserve" font-family="Helvetica-Light" font-size="26.0" fill="#FEFFFF" transform="matrix(1.00, 0.00, -0.00, -1.00, 95.9, 7.0)"> </text><text xml:space="preserve" font-family="Helvetica-Light" font-size="26.0" fill="#FEFFFF" transform="matrix(1.00, 0.00, -0.00, -1.00, 103.1, 7.0)">o</text><text xml:space="preserve" font-family="Helvetica-Light" font-size="26.0" fill="#FEFFFF" transform="matrix(1.00, 0.00, -0.00, -1.00, 117.6, 7.0)">n</text><text xml:space="preserve" font-family="Helvetica-Light" font-size="26.0" fill="#FEFFFF" transform="matrix(1.00, 0.00, -0.00, -1.00, 132.0, 7.0)">:</text></g></svg>