<?xml version="1.0" encoding="UTF-8" standalone="no"?><svg xmlns="http://www.w3.org/2000/svg" xmlns:xlink="http://www.w3.org/1999/xlink" clip-rule="evenodd" stroke-miterlimit="4.00" viewBox="0 0 26 26"><desc>SVG generated by Keynote</desc><defs></defs><g transform="matrix(1.00, 0.00, -0.00, -1.00, 0.0, 26.0)"><path d="M 21.5 21.4 C 26.2 16.8 26.2 9.2 21.5 4.6 C 16.8 -0.1 9.2 -0.1 4.5 4.6 C -0.2 9.2 -0.2 16.8 4.5 21.4 C 9.2 26.1 16.8 26.1 21.5 21.4 Z M 21.5 21.4 " fill="#0065C0"></path><image xlink:href="../../1F46F10E-630D-408F-BB51-062C4FDE7492/assets/BEB4937F5297B0C68BAC043E23A0814B.png" width="12.00" height="11.00" transform="matrix(1.00, 0.00, -0.00, -1.00, 8.0, 18.0)"></image><g><clipPath id="clip-18301"><path d="M 1.0 1.1 L 26.2 1.1 L 26.2 24.9 L 1.0 24.9 Z M 1.0 1.1 "></path></clipPath><g clip-path="url(#clip-18301)"><text xml:space="preserve" font-family="Helvetica-Bold" font-weight="bold" font-size="7.0" fill="#FEFFFF" transform="matrix(1.00, 0.00, -0.00, -1.00, 9.0, 11.0)">S</text><text xml:space="preserve" font-family="Helvetica-Bold" font-weight="bold" font-size="7.0" fill="#FEFFFF" transform="matrix(1.00, 0.00, -0.00, -1.00, 13.7, 11.0)">1</text></g></g></g></svg>