<?xml version="1.0" encoding="UTF-8" standalone="no"?><svg xmlns="http://www.w3.org/2000/svg" xmlns:xlink="http://www.w3.org/1999/xlink" clip-rule="evenodd" stroke-miterlimit="4.00" viewBox="0 0 915 542"><desc>SVG generated by Keynote</desc><defs></defs><g transform="matrix(1.00, 0.00, -0.00, -1.00, 0.0, 542.0)"><g><clipPath id="clip-17652"><path d="M 0.2 1.0 L 0.2 541.6 L 531.8 541.6 L 531.8 1.0 Z M 0.2 1.0 "></path></clipPath><g clip-path="url(#clip-17652)"><g><clipPath id="clip-17653"><path d="M 0.0 1.0 L 0.0 542.0 L 532.0 542.0 L 532.0 1.0 Z M 0.2 1.0 "></path></clipPath><g clip-path="url(#clip-17653)"><g><clipPath id="clip-17654"><path d="M 532.0 1.0 L 532.0 542.0 L 0.0 542.0 L 0.0 1.0 Z M 532.0 1.0 "></path></clipPath><g clip-path="url(#clip-17654)"><g><g><clipPath id="clip-17655"><path d="M -1.4 1.0 L -1.4 542.0 L 766.3 542.0 L 766.3 1.0 Z M -1.4 1.0 "></path></clipPath><g clip-path="url(#clip-17655)"><g><clipPath id="clip-17656"><path d="M 0.0 1.0 L 532.0 1.0 L 532.0 542.0 L 0.0 542.0 Z M 0.0 1.0 "></path></clipPath><g clip-path="url(#clip-17656)"><g opacity="0.00"><g><clipPath id="clip-17657"><path d="M 534.8 -2.0 L 534.8 544.4 L -153.9 544.4 L -153.9 -2.0 Z M 534.8 -2.0 "></path></clipPath><g clip-path="url(#clip-17657)"><g><clipPath id="clip-17658"><path d="M 0.0 1.0 L 532.0 1.0 L 532.0 542.0 L 0.0 542.0 Z M 0.0 1.0 "></path></clipPath><g clip-path="url(#clip-17658)"><path d="M -153.9 -2.0 L -153.9 544.4 L 534.8 544.4 L 534.8 -2.0 Z M -153.9 -2.0 " fill="#1A1918"></path></g></g></g></g></g></g></g></g></g><g><clipPath id="clip-17659"><path d="M 0.0 1.0 L 532.0 1.0 L 532.0 542.0 L 0.0 542.0 Z M 0.0 1.0 "></path></clipPath><g clip-path="url(#clip-17659)"><path d="M 534.0 1.0 L 534.0 542.0 L 0.0 542.0 L 0.0 1.0 Z M 534.0 1.0 " fill="#00864E"></path></g></g><g><clipPath id="clip-17660"><path d="M -1.4 1.0 L -1.4 542.0 L 766.3 542.0 L 766.3 1.0 Z M -1.4 1.0 "></path></clipPath><g clip-path="url(#clip-17660)"><g><clipPath id="clip-17661"><path d="M 0.0 1.0 L 532.0 1.0 L 532.0 542.0 L 0.0 542.0 Z M 0.0 1.0 "></path></clipPath><g clip-path="url(#clip-17661)"><path d="M -0.4 594.2 L 420.7 594.2 L 420.7 180.1 L -0.4 180.1 Z M -0.4 594.2 " fill="none" stroke="#EBEBE8" stroke-width="2.00" stroke-miterlimit="8.00" transform="matrix(0.00, 1.29, -1.29, 0.00, 766.3, 1.0)"></path></g></g></g></g><g><clipPath id="clip-17662"><path d="M -1.4 1.0 L -1.4 542.0 L 766.3 542.0 L 766.3 1.0 Z M -1.4 1.0 "></path></clipPath><g clip-path="url(#clip-17662)"><g><clipPath id="clip-17663"><path d="M 0.0 1.0 L 532.0 1.0 L 532.0 542.0 L 0.0 542.0 Z M 0.0 1.0 "></path></clipPath><g clip-path="url(#clip-17663)"><g opacity="0.30"><g><clipPath id="clip-17664"><path d="M 167.6 87.3 L 167.6 455.0 L -152.7 455.0 L -152.7 87.3 Z M 167.6 87.3 "></path></clipPath><g clip-path="url(#clip-17664)"><g><clipPath id="clip-17665"><path d="M 0.0 87.0 L 168.0 87.0 L 168.0 456.0 L 0.0 456.0 Z M 0.0 87.0 "></path></clipPath><g clip-path="url(#clip-17665)"><path d="M 0.0 0.0 C 55.3 -48.1 55.3 -126.1 0.0 -174.2 C -55.3 -222.3 -144.9 -222.3 -200.2 -174.2 C -255.5 -126.1 -255.5 -48.1 -200.2 0.0 C -144.9 48.1 -55.3 48.1 0.0 0.0 " fill="none" stroke="#FFFEFE" stroke-width="2.00" stroke-miterlimit="8.00" stroke-linejoin="round" transform="matrix(0.00, 1.29, -1.29, 0.00, -104.9, 400.2)"></path></g></g></g></g></g></g></g></g></g><g><clipPath id="clip-17666"><path d="M -1.4 1.0 L -1.4 542.0 L 766.3 542.0 L 766.3 1.0 Z M -1.4 1.0 "></path></clipPath><g clip-path="url(#clip-17666)"><g><clipPath id="clip-17667"><path d="M 0.0 1.0 L 532.0 1.0 L 532.0 542.0 L 0.0 542.0 Z M 0.0 1.0 "></path></clipPath><g clip-path="url(#clip-17667)"><g opacity="0.30"><g><clipPath id="clip-17668"><path d="M 460.8 -2.9 L 460.8 545.2 L 455.0 545.2 L 455.0 -2.9 Z M 460.8 -2.9 "></path></clipPath><g clip-path="url(#clip-17668)"><g><clipPath id="clip-17669"><path d="M 460.8 -2.9 L 460.8 545.2 L 455.0 545.2 L 455.0 -2.9 Z M 460.8 -2.9 "></path></clipPath><g clip-path="url(#clip-17669)"><g><clipPath id="clip-17670"><path d="M 454.0 1.0 L 461.0 1.0 L 461.0 542.0 L 454.0 542.0 Z M 454.0 1.0 "></path></clipPath><g clip-path="url(#clip-17670)"><path d="M 0.0 0.0 L 421.1 -0.1 " fill="none" stroke="#FFFEFE" stroke-width="3.00" stroke-miterlimit="8.00" stroke-linejoin="round" transform="matrix(0.00, 1.29, -1.29, 0.00, 457.5, -0.4)"></path></g></g></g></g></g></g></g></g></g></g></g><g><clipPath id="clip-17671"><path d="M -1.4 1.0 L -1.4 542.0 L 766.3 542.0 L 766.3 1.0 Z M -1.4 1.0 "></path></clipPath><g clip-path="url(#clip-17671)"><g><clipPath id="clip-17672"><path d="M 0.0 1.0 L 532.0 1.0 L 532.0 542.0 L 0.0 542.0 Z M 0.0 1.0 "></path></clipPath><g clip-path="url(#clip-17672)"><g opacity="0.47"><g><clipPath id="clip-17673"><path d="M 242.9 -2.9 L 242.9 545.2 L 237.1 545.2 L 237.1 -2.9 Z M 242.9 -2.9 "></path></clipPath><g clip-path="url(#clip-17673)"><g><clipPath id="clip-17674"><path d="M 242.9 -2.9 L 242.9 545.2 L 237.1 545.2 L 237.1 -2.9 Z M 242.9 -2.9 "></path></clipPath><g clip-path="url(#clip-17674)"><g><clipPath id="clip-17675"><path d="M 237.0 1.0 L 243.0 1.0 L 243.0 542.0 L 237.0 542.0 Z M 237.0 1.0 "></path></clipPath><g clip-path="url(#clip-17675)"><path d="M 0.0 0.0 L 421.1 -0.1 " fill="none" stroke="#FFFEFE" stroke-width="3.00" stroke-miterlimit="8.00" stroke-linejoin="round" stroke-dasharray="27.0, 9.0" transform="matrix(0.00, 1.29, -1.29, 0.00, 239.6, -0.4)"></path></g></g></g></g></g></g></g></g></g></g></g></g></g></g></g></g></g></g><g><clipPath id="clip-17676"><path d="M 914.5 541.6 L 914.5 1.0 L 382.9 1.0 L 382.9 541.6 Z M 914.5 541.6 "></path></clipPath><g clip-path="url(#clip-17676)"><g><clipPath id="clip-17677"><path d="M 915.0 542.0 L 915.0 1.0 L 383.0 1.0 L 383.0 542.0 Z M 914.5 541.6 "></path></clipPath><g clip-path="url(#clip-17677)"><g><clipPath id="clip-17678"><path d="M 383.0 542.0 L 383.0 1.0 L 915.0 1.0 L 915.0 542.0 Z M 383.0 542.0 "></path></clipPath><g clip-path="url(#clip-17678)"><g><g><clipPath id="clip-17679"><path d="M 916.4 542.0 L 916.4 1.0 L 148.7 1.0 L 148.7 542.0 Z M 916.4 542.0 "></path></clipPath><g clip-path="url(#clip-17679)"><g><clipPath id="clip-17680"><path d="M 383.0 1.0 L 915.0 1.0 L 915.0 542.0 L 383.0 542.0 Z M 383.0 1.0 "></path></clipPath><g clip-path="url(#clip-17680)"><g opacity="0.00"><g><clipPath id="clip-17681"><path d="M 380.2 545.0 L 380.2 -1.4 L 1068.9 -1.4 L 1068.9 545.0 Z M 380.2 545.0 "></path></clipPath><g clip-path="url(#clip-17681)"><g><clipPath id="clip-17682"><path d="M 383.0 1.0 L 915.0 1.0 L 915.0 542.0 L 383.0 542.0 Z M 383.0 1.0 "></path></clipPath><g clip-path="url(#clip-17682)"><path d="M 1068.9 545.0 L 1068.9 -1.4 L 380.2 -1.4 L 380.2 545.0 Z M 1068.9 545.0 " fill="#1A1918"></path></g></g></g></g></g></g></g></g></g><g><clipPath id="clip-17683"><path d="M 383.0 1.0 L 915.0 1.0 L 915.0 542.0 L 383.0 542.0 Z M 383.0 1.0 "></path></clipPath><g clip-path="url(#clip-17683)"><path d="M 381.0 542.0 L 381.0 1.0 L 915.0 1.0 L 915.0 542.0 Z M 381.0 542.0 " fill="#00864E"></path></g></g><g><clipPath id="clip-17684"><path d="M 916.4 542.0 L 916.4 1.0 L 148.7 1.0 L 148.7 542.0 Z M 916.4 542.0 "></path></clipPath><g clip-path="url(#clip-17684)"><g><clipPath id="clip-17685"><path d="M 383.0 1.0 L 915.0 1.0 L 915.0 542.0 L 383.0 542.0 Z M 383.0 1.0 "></path></clipPath><g clip-path="url(#clip-17685)"><path d="M -0.4 594.2 L 420.7 594.2 L 420.7 180.1 L -0.4 180.1 Z M -0.4 594.2 " fill="none" stroke="#EBEBE8" stroke-width="2.00" stroke-miterlimit="8.00" transform="matrix(0.00, -1.29, 1.29, 0.00, 148.7, 542.0)"></path></g></g></g></g><g><clipPath id="clip-17686"><path d="M 916.4 542.0 L 916.4 1.0 L 148.7 1.0 L 148.7 542.0 Z M 916.4 542.0 "></path></clipPath><g clip-path="url(#clip-17686)"><g><clipPath id="clip-17687"><path d="M 383.0 1.0 L 915.0 1.0 L 915.0 542.0 L 383.0 542.0 Z M 383.0 1.0 "></path></clipPath><g clip-path="url(#clip-17687)"><g opacity="0.30"><g><clipPath id="clip-17688"><path d="M 747.4 455.7 L 747.4 88.0 L 1067.7 88.0 L 1067.7 455.7 Z M 747.4 455.7 "></path></clipPath><g clip-path="url(#clip-17688)"><g><clipPath id="clip-17689"><path d="M 747.0 87.0 L 915.0 87.0 L 915.0 456.0 L 747.0 456.0 Z M 747.0 87.0 "></path></clipPath><g clip-path="url(#clip-17689)"><path d="M 0.0 0.0 C 55.3 -48.1 55.3 -126.1 0.0 -174.2 C -55.3 -222.3 -144.9 -222.3 -200.2 -174.2 C -255.5 -126.1 -255.5 -48.1 -200.2 0.0 C -144.9 48.1 -55.3 48.1 0.0 0.0 " fill="none" stroke="#FFFEFE" stroke-width="2.00" stroke-miterlimit="8.00" stroke-linejoin="round" transform="matrix(0.00, -1.29, 1.29, 0.00, 1019.9, 142.8)"></path></g></g></g></g></g></g></g></g></g><g><clipPath id="clip-17690"><path d="M 916.4 542.0 L 916.4 1.0 L 148.7 1.0 L 148.7 542.0 Z M 916.4 542.0 "></path></clipPath><g clip-path="url(#clip-17690)"><g><clipPath id="clip-17691"><path d="M 383.0 1.0 L 915.0 1.0 L 915.0 542.0 L 383.0 542.0 Z M 383.0 1.0 "></path></clipPath><g clip-path="url(#clip-17691)"><g opacity="0.30"><g><clipPath id="clip-17692"><path d="M 454.2 545.9 L 454.2 -2.2 L 460.0 -2.2 L 460.0 545.9 Z M 454.2 545.9 "></path></clipPath><g clip-path="url(#clip-17692)"><g><clipPath id="clip-17693"><path d="M 454.2 545.9 L 454.2 -2.2 L 460.0 -2.2 L 460.0 545.9 Z M 454.2 545.9 "></path></clipPath><g clip-path="url(#clip-17693)"><g><clipPath id="clip-17694"><path d="M 454.0 1.0 L 461.0 1.0 L 461.0 542.0 L 454.0 542.0 Z M 454.0 1.0 "></path></clipPath><g clip-path="url(#clip-17694)"><path d="M 0.0 0.0 L 421.1 -0.1 " fill="none" stroke="#FFFEFE" stroke-width="3.00" stroke-miterlimit="8.00" stroke-linejoin="round" transform="matrix(0.00, -1.29, 1.29, 0.00, 457.5, 543.4)"></path></g></g></g></g></g></g></g></g></g></g></g><g><clipPath id="clip-17695"><path d="M 916.4 542.0 L 916.4 1.0 L 148.7 1.0 L 148.7 542.0 Z M 916.4 542.0 "></path></clipPath><g clip-path="url(#clip-17695)"><g><clipPath id="clip-17696"><path d="M 383.0 1.0 L 915.0 1.0 L 915.0 542.0 L 383.0 542.0 Z M 383.0 1.0 "></path></clipPath><g clip-path="url(#clip-17696)"><g opacity="0.47"><g><clipPath id="clip-17697"><path d="M 672.1 545.9 L 672.1 -2.2 L 677.9 -2.2 L 677.9 545.9 Z M 672.1 545.9 "></path></clipPath><g clip-path="url(#clip-17697)"><g><clipPath id="clip-17698"><path d="M 672.1 545.9 L 672.1 -2.2 L 677.9 -2.2 L 677.9 545.9 Z M 672.1 545.9 "></path></clipPath><g clip-path="url(#clip-17698)"><g><clipPath id="clip-17699"><path d="M 672.0 1.0 L 678.0 1.0 L 678.0 542.0 L 672.0 542.0 Z M 672.0 1.0 "></path></clipPath><g clip-path="url(#clip-17699)"><path d="M 0.0 0.0 L 421.1 -0.1 " fill="none" stroke="#FFFEFE" stroke-width="3.00" stroke-miterlimit="8.00" stroke-linejoin="round" stroke-dasharray="27.0, 9.0" transform="matrix(0.00, -1.29, 1.29, 0.00, 675.4, 543.4)"></path></g></g></g></g></g></g></g></g></g></g></g></g></g></g></g></g></g></g></g></svg>