<?xml version="1.0" encoding="UTF-8" standalone="no"?><svg xmlns="http://www.w3.org/2000/svg" xmlns:xlink="http://www.w3.org/1999/xlink" clip-rule="evenodd" stroke-miterlimit="4.00" viewBox="0 0 46 40"><desc>SVG generated by Keynote</desc><defs></defs><g transform="matrix(1.00, 0.00, -0.00, -1.00, 0.0, 40.0)"><g><clipPath id="clip-18935"><path d="M 3.3 1.5 L 25.3 1.5 L 25.3 23.5 L 3.3 23.5 Z M 3.3 1.5 "></path></clipPath><g clip-path="url(#clip-18935)"><image xlink:href="../../0DED08B5-48C8-4E6A-B1AD-B01FA6B3AB41/assets/12FBFBF7A323C8BDCACC7E2724B223EA.png" width="20.00" height="20.00" transform="matrix(1.00, 0.00, -0.00, -1.00, 4.3, 22.5)" opacity="0.80"></image><path d="M 17.1 15.3 C 18.7 13.7 18.7 11.2 17.1 9.6 C 15.6 8.1 13.0 8.1 11.5 9.6 C 9.9 11.2 9.9 13.7 11.5 15.3 C 13.0 16.8 15.6 16.8 17.1 15.3 Z M 17.1 15.3 " fill="#FEFFFE"></path></g></g><g><clipPath id="clip-18936"><path d="M 13.3 0.5 L 35.3 0.5 L 35.3 22.5 L 13.3 22.5 Z M 13.3 0.5 "></path></clipPath><g clip-path="url(#clip-18936)"><image xlink:href="../../0DED08B5-48C8-4E6A-B1AD-B01FA6B3AB41/assets/12FBFBF7A323C8BDCACC7E2724B223EA.png" width="20.00" height="20.00" transform="matrix(1.00, 0.00, -0.00, -1.00, 14.3, 21.5)" opacity="0.80"></image><path d="M 27.1 14.3 C 28.7 12.7 28.7 10.2 27.1 8.6 C 25.6 7.1 23.0 7.1 21.5 8.6 C 19.9 10.2 19.9 12.7 21.5 14.3 C 23.0 15.8 25.6 15.8 27.1 14.3 Z M 27.1 14.3 " fill="#FEFFFE"></path></g></g><g><clipPath id="clip-18937"><path d="M 23.3 0.5 L 45.3 0.5 L 45.3 22.5 L 23.3 22.5 Z M 23.3 0.5 "></path></clipPath><g clip-path="url(#clip-18937)"><image xlink:href="../../0DED08B5-48C8-4E6A-B1AD-B01FA6B3AB41/assets/12FBFBF7A323C8BDCACC7E2724B223EA.png" width="20.00" height="20.00" transform="matrix(1.00, 0.00, -0.00, -1.00, 24.3, 21.5)" opacity="0.80"></image><path d="M 37.1 14.3 C 38.7 12.7 38.7 10.2 37.1 8.6 C 35.6 7.1 33.0 7.1 31.5 8.6 C 29.9 10.2 29.9 12.7 31.5 14.3 C 33.0 15.8 35.6 15.8 37.1 14.3 Z M 37.1 14.3 " fill="#FEFFFE"></path></g></g><g><clipPath id="clip-18938"><path d="M 0.3 10.4 L 22.3 10.4 L 22.3 32.4 L 0.3 32.4 Z M 0.3 10.4 "></path></clipPath><g clip-path="url(#clip-18938)"><image xlink:href="../../0DED08B5-48C8-4E6A-B1AD-B01FA6B3AB41/assets/12FBFBF7A323C8BDCACC7E2724B223EA.png" width="20.00" height="20.00" transform="matrix(1.00, 0.00, -0.00, -1.00, 1.3, 31.4)" opacity="0.80"></image><path d="M 14.1 24.2 C 15.7 22.6 15.7 20.1 14.1 18.5 C 12.6 17.0 10.0 17.0 8.5 18.5 C 6.9 20.1 6.9 22.6 8.5 24.2 C 10.0 25.7 12.6 25.7 14.1 24.2 Z M 14.1 24.2 " fill="#FEFFFE"></path></g></g><g><clipPath id="clip-18939"><path d="M 10.3 9.4 L 32.3 9.4 L 32.3 31.4 L 10.3 31.4 Z M 10.3 9.4 "></path></clipPath><g clip-path="url(#clip-18939)"><image xlink:href="../../0DED08B5-48C8-4E6A-B1AD-B01FA6B3AB41/assets/12FBFBF7A323C8BDCACC7E2724B223EA.png" width="20.00" height="20.00" transform="matrix(1.00, 0.00, -0.00, -1.00, 11.3, 30.4)" opacity="0.80"></image><path d="M 24.1 23.2 C 25.7 21.6 25.7 19.1 24.1 17.5 C 22.6 16.0 20.0 16.0 18.5 17.5 C 16.9 19.1 16.9 21.6 18.5 23.2 C 20.0 24.7 22.6 24.7 24.1 23.2 Z M 24.1 23.2 " fill="#FEFFFE"></path></g></g><g><clipPath id="clip-18940"><path d="M 20.3 9.4 L 42.3 9.4 L 42.3 31.4 L 20.3 31.4 Z M 20.3 9.4 "></path></clipPath><g clip-path="url(#clip-18940)"><image xlink:href="../../0DED08B5-48C8-4E6A-B1AD-B01FA6B3AB41/assets/12FBFBF7A323C8BDCACC7E2724B223EA.png" width="20.00" height="20.00" transform="matrix(1.00, 0.00, -0.00, -1.00, 21.3, 30.4)" opacity="0.80"></image><path d="M 34.1 23.2 C 35.7 21.6 35.7 19.1 34.1 17.5 C 32.6 16.0 30.0 16.0 28.5 17.5 C 26.9 19.1 26.9 21.6 28.5 23.2 C 30.0 24.7 32.6 24.7 34.1 23.2 Z M 34.1 23.2 " fill="#FEFFFE"></path></g></g><g><clipPath id="clip-18941"><path d="M 5.3 17.4 L 27.3 17.4 L 27.3 39.4 L 5.3 39.4 Z M 5.3 17.4 "></path></clipPath><g clip-path="url(#clip-18941)"><image xlink:href="../../0DED08B5-48C8-4E6A-B1AD-B01FA6B3AB41/assets/12FBFBF7A323C8BDCACC7E2724B223EA.png" width="20.00" height="20.00" transform="matrix(1.00, 0.00, -0.00, -1.00, 6.3, 38.4)" opacity="0.80"></image><path d="M 19.1 31.2 C 20.7 29.6 20.7 27.1 19.1 25.5 C 17.6 24.0 15.0 24.0 13.5 25.5 C 11.9 27.1 11.9 29.6 13.5 31.2 C 15.0 32.7 17.6 32.7 19.1 31.2 Z M 19.1 31.2 " fill="#FEFFFE"></path></g></g><g><clipPath id="clip-18942"><path d="M 15.3 17.4 L 37.3 17.4 L 37.3 39.4 L 15.3 39.4 Z M 15.3 17.4 "></path></clipPath><g clip-path="url(#clip-18942)"><image xlink:href="../../0DED08B5-48C8-4E6A-B1AD-B01FA6B3AB41/assets/12FBFBF7A323C8BDCACC7E2724B223EA.png" width="20.00" height="20.00" transform="matrix(1.00, 0.00, -0.00, -1.00, 16.3, 38.4)" opacity="0.80"></image><path d="M 29.1 31.2 C 30.7 29.6 30.7 27.1 29.1 25.5 C 27.6 24.0 25.0 24.0 23.5 25.5 C 21.9 27.1 21.9 29.6 23.5 31.2 C 25.0 32.7 27.6 32.7 29.1 31.2 Z M 29.1 31.2 " fill="#FEFFFE"></path></g></g></g></svg>