<?xml version="1.0" encoding="UTF-8" standalone="no"?><svg xmlns="http://www.w3.org/2000/svg" xmlns:xlink="http://www.w3.org/1999/xlink" clip-rule="evenodd" stroke-miterlimit="4.00" viewBox="0 0 915 542"><desc>SVG generated by Keynote</desc><defs></defs><g transform="matrix(1.00, 0.00, -0.00, -1.00, 0.0, 542.0)"><g><clipPath id="clip-17354"><path d="M 0.2 1.0 L 0.2 541.6 L 531.8 541.6 L 531.8 1.0 Z M 0.2 1.0 "></path></clipPath><g clip-path="url(#clip-17354)"><g><clipPath id="clip-17355"><path d="M 0.0 1.0 L 0.0 542.0 L 532.0 542.0 L 532.0 1.0 Z M 0.2 1.0 "></path></clipPath><g clip-path="url(#clip-17355)"><g><clipPath id="clip-17356"><path d="M 532.0 1.0 L 532.0 542.0 L 0.0 542.0 L 0.0 1.0 Z M 532.0 1.0 "></path></clipPath><g clip-path="url(#clip-17356)"><g><g><clipPath id="clip-17357"><path d="M -1.4 1.0 L -1.4 542.0 L 766.3 542.0 L 766.3 1.0 Z M -1.4 1.0 "></path></clipPath><g clip-path="url(#clip-17357)"><g><clipPath id="clip-17358"><path d="M 0.0 1.0 L 532.0 1.0 L 532.0 542.0 L 0.0 542.0 Z M 0.0 1.0 "></path></clipPath><g clip-path="url(#clip-17358)"><g opacity="0.00"><g><clipPath id="clip-17359"><path d="M 534.8 -2.0 L 534.8 544.4 L -153.9 544.4 L -153.9 -2.0 Z M 534.8 -2.0 "></path></clipPath><g clip-path="url(#clip-17359)"><g><clipPath id="clip-17360"><path d="M 0.0 1.0 L 532.0 1.0 L 532.0 542.0 L 0.0 542.0 Z M 0.0 1.0 "></path></clipPath><g clip-path="url(#clip-17360)"><path d="M -153.9 -2.0 L -153.9 544.4 L 534.8 544.4 L 534.8 -2.0 Z M -153.9 -2.0 " fill="#1A1918"></path></g></g></g></g></g></g></g></g></g><g><clipPath id="clip-17361"><path d="M 0.0 1.0 L 532.0 1.0 L 532.0 542.0 L 0.0 542.0 Z M 0.0 1.0 "></path></clipPath><g clip-path="url(#clip-17361)"><path d="M 534.0 1.0 L 534.0 542.0 L 0.0 542.0 L 0.0 1.0 Z M 534.0 1.0 " fill="#00864E"></path></g></g><g><clipPath id="clip-17362"><path d="M -1.4 1.0 L -1.4 542.0 L 766.3 542.0 L 766.3 1.0 Z M -1.4 1.0 "></path></clipPath><g clip-path="url(#clip-17362)"><g><clipPath id="clip-17363"><path d="M 0.0 1.0 L 532.0 1.0 L 532.0 542.0 L 0.0 542.0 Z M 0.0 1.0 "></path></clipPath><g clip-path="url(#clip-17363)"><path d="M -0.4 594.2 L 420.7 594.2 L 420.7 180.1 L -0.4 180.1 Z M -0.4 594.2 " fill="none" stroke="#EBEBE8" stroke-width="2.00" stroke-miterlimit="8.00" transform="matrix(0.00, 1.29, -1.29, 0.00, 766.3, 1.0)"></path></g></g></g></g><g><clipPath id="clip-17364"><path d="M -1.4 1.0 L -1.4 542.0 L 766.3 542.0 L 766.3 1.0 Z M -1.4 1.0 "></path></clipPath><g clip-path="url(#clip-17364)"><g><clipPath id="clip-17365"><path d="M 0.0 1.0 L 532.0 1.0 L 532.0 542.0 L 0.0 542.0 Z M 0.0 1.0 "></path></clipPath><g clip-path="url(#clip-17365)"><g opacity="0.30"><g><clipPath id="clip-17366"><path d="M 167.6 87.3 L 167.6 455.0 L -152.7 455.0 L -152.7 87.3 Z M 167.6 87.3 "></path></clipPath><g clip-path="url(#clip-17366)"><g><clipPath id="clip-17367"><path d="M 0.0 87.0 L 168.0 87.0 L 168.0 456.0 L 0.0 456.0 Z M 0.0 87.0 "></path></clipPath><g clip-path="url(#clip-17367)"><path d="M 0.0 0.0 C 55.3 -48.1 55.3 -126.1 0.0 -174.2 C -55.3 -222.3 -144.9 -222.3 -200.2 -174.2 C -255.5 -126.1 -255.5 -48.1 -200.2 0.0 C -144.9 48.1 -55.3 48.1 0.0 0.0 " fill="none" stroke="#FFFEFE" stroke-width="2.00" stroke-miterlimit="8.00" stroke-linejoin="round" transform="matrix(0.00, 1.29, -1.29, 0.00, -104.9, 400.2)"></path></g></g></g></g></g></g></g></g></g><g><clipPath id="clip-17368"><path d="M -1.4 1.0 L -1.4 542.0 L 766.3 542.0 L 766.3 1.0 Z M -1.4 1.0 "></path></clipPath><g clip-path="url(#clip-17368)"><g><clipPath id="clip-17369"><path d="M 0.0 1.0 L 532.0 1.0 L 532.0 542.0 L 0.0 542.0 Z M 0.0 1.0 "></path></clipPath><g clip-path="url(#clip-17369)"><g opacity="0.30"><g><clipPath id="clip-17370"><path d="M 460.8 -2.9 L 460.8 545.2 L 455.0 545.2 L 455.0 -2.9 Z M 460.8 -2.9 "></path></clipPath><g clip-path="url(#clip-17370)"><g><clipPath id="clip-17371"><path d="M 460.8 -2.9 L 460.8 545.2 L 455.0 545.2 L 455.0 -2.9 Z M 460.8 -2.9 "></path></clipPath><g clip-path="url(#clip-17371)"><g><clipPath id="clip-17372"><path d="M 454.0 1.0 L 461.0 1.0 L 461.0 542.0 L 454.0 542.0 Z M 454.0 1.0 "></path></clipPath><g clip-path="url(#clip-17372)"><path d="M 0.0 0.0 L 421.1 -0.1 " fill="none" stroke="#FFFEFE" stroke-width="3.00" stroke-miterlimit="8.00" stroke-linejoin="round" transform="matrix(0.00, 1.29, -1.29, 0.00, 457.5, -0.4)"></path></g></g></g></g></g></g></g></g></g></g></g><g><clipPath id="clip-17373"><path d="M -1.4 1.0 L -1.4 542.0 L 766.3 542.0 L 766.3 1.0 Z M -1.4 1.0 "></path></clipPath><g clip-path="url(#clip-17373)"><g><clipPath id="clip-17374"><path d="M 0.0 1.0 L 532.0 1.0 L 532.0 542.0 L 0.0 542.0 Z M 0.0 1.0 "></path></clipPath><g clip-path="url(#clip-17374)"><g opacity="0.47"><g><clipPath id="clip-17375"><path d="M 242.9 -2.9 L 242.9 545.2 L 237.1 545.2 L 237.1 -2.9 Z M 242.9 -2.9 "></path></clipPath><g clip-path="url(#clip-17375)"><g><clipPath id="clip-17376"><path d="M 242.9 -2.9 L 242.9 545.2 L 237.1 545.2 L 237.1 -2.9 Z M 242.9 -2.9 "></path></clipPath><g clip-path="url(#clip-17376)"><g><clipPath id="clip-17377"><path d="M 237.0 1.0 L 243.0 1.0 L 243.0 542.0 L 237.0 542.0 Z M 237.0 1.0 "></path></clipPath><g clip-path="url(#clip-17377)"><path d="M 0.0 0.0 L 421.1 -0.1 " fill="none" stroke="#FFFEFE" stroke-width="3.00" stroke-miterlimit="8.00" stroke-linejoin="round" stroke-dasharray="27.0, 9.0" transform="matrix(0.00, 1.29, -1.29, 0.00, 239.6, -0.4)"></path></g></g></g></g></g></g></g></g></g></g></g></g></g></g></g></g></g></g><g><clipPath id="clip-17378"><path d="M 914.5 541.6 L 914.5 1.0 L 382.9 1.0 L 382.9 541.6 Z M 914.5 541.6 "></path></clipPath><g clip-path="url(#clip-17378)"><g><clipPath id="clip-17379"><path d="M 915.0 542.0 L 915.0 1.0 L 383.0 1.0 L 383.0 542.0 Z M 914.5 541.6 "></path></clipPath><g clip-path="url(#clip-17379)"><g><clipPath id="clip-17380"><path d="M 383.0 542.0 L 383.0 1.0 L 915.0 1.0 L 915.0 542.0 Z M 383.0 542.0 "></path></clipPath><g clip-path="url(#clip-17380)"><g><g><clipPath id="clip-17381"><path d="M 916.4 542.0 L 916.4 1.0 L 148.7 1.0 L 148.7 542.0 Z M 916.4 542.0 "></path></clipPath><g clip-path="url(#clip-17381)"><g><clipPath id="clip-17382"><path d="M 383.0 1.0 L 915.0 1.0 L 915.0 542.0 L 383.0 542.0 Z M 383.0 1.0 "></path></clipPath><g clip-path="url(#clip-17382)"><g opacity="0.00"><g><clipPath id="clip-17383"><path d="M 380.2 545.0 L 380.2 -1.4 L 1068.9 -1.4 L 1068.9 545.0 Z M 380.2 545.0 "></path></clipPath><g clip-path="url(#clip-17383)"><g><clipPath id="clip-17384"><path d="M 383.0 1.0 L 915.0 1.0 L 915.0 542.0 L 383.0 542.0 Z M 383.0 1.0 "></path></clipPath><g clip-path="url(#clip-17384)"><path d="M 1068.9 545.0 L 1068.9 -1.4 L 380.2 -1.4 L 380.2 545.0 Z M 1068.9 545.0 " fill="#1A1918"></path></g></g></g></g></g></g></g></g></g><g><clipPath id="clip-17385"><path d="M 383.0 1.0 L 915.0 1.0 L 915.0 542.0 L 383.0 542.0 Z M 383.0 1.0 "></path></clipPath><g clip-path="url(#clip-17385)"><path d="M 381.0 542.0 L 381.0 1.0 L 915.0 1.0 L 915.0 542.0 Z M 381.0 542.0 " fill="#00864E"></path></g></g><g><clipPath id="clip-17386"><path d="M 916.4 542.0 L 916.4 1.0 L 148.7 1.0 L 148.7 542.0 Z M 916.4 542.0 "></path></clipPath><g clip-path="url(#clip-17386)"><g><clipPath id="clip-17387"><path d="M 383.0 1.0 L 915.0 1.0 L 915.0 542.0 L 383.0 542.0 Z M 383.0 1.0 "></path></clipPath><g clip-path="url(#clip-17387)"><path d="M -0.4 594.2 L 420.7 594.2 L 420.7 180.1 L -0.4 180.1 Z M -0.4 594.2 " fill="none" stroke="#EBEBE8" stroke-width="2.00" stroke-miterlimit="8.00" transform="matrix(0.00, -1.29, 1.29, 0.00, 148.7, 542.0)"></path></g></g></g></g><g><clipPath id="clip-17388"><path d="M 916.4 542.0 L 916.4 1.0 L 148.7 1.0 L 148.7 542.0 Z M 916.4 542.0 "></path></clipPath><g clip-path="url(#clip-17388)"><g><clipPath id="clip-17389"><path d="M 383.0 1.0 L 915.0 1.0 L 915.0 542.0 L 383.0 542.0 Z M 383.0 1.0 "></path></clipPath><g clip-path="url(#clip-17389)"><g opacity="0.30"><g><clipPath id="clip-17390"><path d="M 747.4 455.7 L 747.4 88.0 L 1067.7 88.0 L 1067.7 455.7 Z M 747.4 455.7 "></path></clipPath><g clip-path="url(#clip-17390)"><g><clipPath id="clip-17391"><path d="M 747.0 87.0 L 915.0 87.0 L 915.0 456.0 L 747.0 456.0 Z M 747.0 87.0 "></path></clipPath><g clip-path="url(#clip-17391)"><path d="M 0.0 0.0 C 55.3 -48.1 55.3 -126.1 0.0 -174.2 C -55.3 -222.3 -144.9 -222.3 -200.2 -174.2 C -255.5 -126.1 -255.5 -48.1 -200.2 0.0 C -144.9 48.1 -55.3 48.1 0.0 0.0 " fill="none" stroke="#FFFEFE" stroke-width="2.00" stroke-miterlimit="8.00" stroke-linejoin="round" transform="matrix(0.00, -1.29, 1.29, 0.00, 1019.9, 142.8)"></path></g></g></g></g></g></g></g></g></g><g><clipPath id="clip-17392"><path d="M 916.4 542.0 L 916.4 1.0 L 148.7 1.0 L 148.7 542.0 Z M 916.4 542.0 "></path></clipPath><g clip-path="url(#clip-17392)"><g><clipPath id="clip-17393"><path d="M 383.0 1.0 L 915.0 1.0 L 915.0 542.0 L 383.0 542.0 Z M 383.0 1.0 "></path></clipPath><g clip-path="url(#clip-17393)"><g opacity="0.30"><g><clipPath id="clip-17394"><path d="M 454.2 545.9 L 454.2 -2.2 L 460.0 -2.2 L 460.0 545.9 Z M 454.2 545.9 "></path></clipPath><g clip-path="url(#clip-17394)"><g><clipPath id="clip-17395"><path d="M 454.2 545.9 L 454.2 -2.2 L 460.0 -2.2 L 460.0 545.9 Z M 454.2 545.9 "></path></clipPath><g clip-path="url(#clip-17395)"><g><clipPath id="clip-17396"><path d="M 454.0 1.0 L 461.0 1.0 L 461.0 542.0 L 454.0 542.0 Z M 454.0 1.0 "></path></clipPath><g clip-path="url(#clip-17396)"><path d="M 0.0 0.0 L 421.1 -0.1 " fill="none" stroke="#FFFEFE" stroke-width="3.00" stroke-miterlimit="8.00" stroke-linejoin="round" transform="matrix(0.00, -1.29, 1.29, 0.00, 457.5, 543.4)"></path></g></g></g></g></g></g></g></g></g></g></g><g><clipPath id="clip-17397"><path d="M 916.4 542.0 L 916.4 1.0 L 148.7 1.0 L 148.7 542.0 Z M 916.4 542.0 "></path></clipPath><g clip-path="url(#clip-17397)"><g><clipPath id="clip-17398"><path d="M 383.0 1.0 L 915.0 1.0 L 915.0 542.0 L 383.0 542.0 Z M 383.0 1.0 "></path></clipPath><g clip-path="url(#clip-17398)"><g opacity="0.47"><g><clipPath id="clip-17399"><path d="M 672.1 545.9 L 672.1 -2.2 L 677.9 -2.2 L 677.9 545.9 Z M 672.1 545.9 "></path></clipPath><g clip-path="url(#clip-17399)"><g><clipPath id="clip-17400"><path d="M 672.1 545.9 L 672.1 -2.2 L 677.9 -2.2 L 677.9 545.9 Z M 672.1 545.9 "></path></clipPath><g clip-path="url(#clip-17400)"><g><clipPath id="clip-17401"><path d="M 672.0 1.0 L 678.0 1.0 L 678.0 542.0 L 672.0 542.0 Z M 672.0 1.0 "></path></clipPath><g clip-path="url(#clip-17401)"><path d="M 0.0 0.0 L 421.1 -0.1 " fill="none" stroke="#FFFEFE" stroke-width="3.00" stroke-miterlimit="8.00" stroke-linejoin="round" stroke-dasharray="27.0, 9.0" transform="matrix(0.00, -1.29, 1.29, 0.00, 675.4, 543.4)"></path></g></g></g></g></g></g></g></g></g></g></g></g></g></g></g></g></g></g></g></svg>