<?xml version="1.0" encoding="UTF-8" standalone="no"?><svg xmlns="http://www.w3.org/2000/svg" xmlns:xlink="http://www.w3.org/1999/xlink" clip-rule="evenodd" stroke-miterlimit="4.00" viewBox="0 0 30 32"><desc>SVG generated by Keynote</desc><defs></defs><g transform="matrix(1.00, 0.00, -0.00, -1.00, 0.0, 32.0)"><path d="M 15.0 30.8 C 11.5 30.8 8.0 29.4 5.4 26.6 C 0.0 21.0 0.0 12.0 5.4 6.4 C 10.7 0.9 19.3 0.9 24.7 6.4 C 30.0 12.0 30.0 21.0 24.7 26.6 C 22.0 29.4 18.5 30.8 15.0 30.8 Z M 15.0 25.4 C 17.4 25.4 19.7 24.5 21.5 22.8 C 25.1 19.3 25.1 13.7 21.5 10.2 C 17.9 6.8 12.1 6.8 8.6 10.2 C 5.0 13.7 5.0 19.3 8.6 22.8 C 10.3 24.5 12.7 25.4 15.0 25.4 Z M 15.0 25.4 " fill="#000000"></path></g></svg>