<?xml version="1.0" encoding="UTF-8" standalone="no"?><svg xmlns="http://www.w3.org/2000/svg" xmlns:xlink="http://www.w3.org/1999/xlink" clip-rule="evenodd" stroke-miterlimit="4.00" viewBox="0 0 46 40"><desc>SVG generated by Keynote</desc><defs></defs><g transform="matrix(1.00, 0.00, -0.00, -1.00, 0.0, 40.0)"><g><clipPath id="clip-18648"><path d="M 3.8 1.2 L 25.8 1.2 L 25.8 23.2 L 3.8 23.2 Z M 3.8 1.2 "></path></clipPath><g clip-path="url(#clip-18648)"><image xlink:href="../../0DED08B5-48C8-4E6A-B1AD-B01FA6B3AB41/assets/12FBFBF7A323C8BDCACC7E2724B223EA.png" width="20.00" height="20.00" transform="matrix(1.00, 0.00, -0.00, -1.00, 4.8, 22.2)" opacity="0.80"></image><path d="M 17.6 15.0 C 19.2 13.5 19.2 10.9 17.6 9.4 C 16.0 7.8 13.5 7.8 11.9 9.4 C 10.4 10.9 10.4 13.5 11.9 15.0 C 13.5 16.6 16.0 16.6 17.6 15.0 Z M 17.6 15.0 " fill="#FEFFFE"></path></g></g><g><clipPath id="clip-18649"><path d="M 13.8 0.2 L 35.8 0.2 L 35.8 22.2 L 13.8 22.2 Z M 13.8 0.2 "></path></clipPath><g clip-path="url(#clip-18649)"><image xlink:href="../../0DED08B5-48C8-4E6A-B1AD-B01FA6B3AB41/assets/12FBFBF7A323C8BDCACC7E2724B223EA.png" width="20.00" height="20.00" transform="matrix(1.00, 0.00, -0.00, -1.00, 14.8, 21.2)" opacity="0.80"></image><path d="M 27.6 14.0 C 29.2 12.5 29.2 9.9 27.6 8.4 C 26.0 6.8 23.5 6.8 21.9 8.4 C 20.4 9.9 20.4 12.5 21.9 14.0 C 23.5 15.6 26.0 15.6 27.6 14.0 Z M 27.6 14.0 " fill="#FEFFFE"></path></g></g><g><clipPath id="clip-18650"><path d="M 23.8 0.2 L 45.8 0.2 L 45.8 22.2 L 23.8 22.2 Z M 23.8 0.2 "></path></clipPath><g clip-path="url(#clip-18650)"><image xlink:href="../../0DED08B5-48C8-4E6A-B1AD-B01FA6B3AB41/assets/12FBFBF7A323C8BDCACC7E2724B223EA.png" width="20.00" height="20.00" transform="matrix(1.00, 0.00, -0.00, -1.00, 24.8, 21.2)" opacity="0.80"></image><path d="M 37.6 14.0 C 39.2 12.5 39.2 9.9 37.6 8.4 C 36.0 6.8 33.5 6.8 31.9 8.4 C 30.4 9.9 30.4 12.5 31.9 14.0 C 33.5 15.6 36.0 15.6 37.6 14.0 Z M 37.6 14.0 " fill="#FEFFFE"></path></g></g><g><clipPath id="clip-18651"><path d="M 0.8 10.1 L 22.8 10.1 L 22.8 32.1 L 0.8 32.1 Z M 0.8 10.1 "></path></clipPath><g clip-path="url(#clip-18651)"><image xlink:href="../../0DED08B5-48C8-4E6A-B1AD-B01FA6B3AB41/assets/12FBFBF7A323C8BDCACC7E2724B223EA.png" width="20.00" height="20.00" transform="matrix(1.00, 0.00, -0.00, -1.00, 1.8, 31.1)" opacity="0.80"></image><path d="M 14.6 23.9 C 16.2 22.3 16.2 19.8 14.6 18.3 C 13.0 16.7 10.5 16.7 8.9 18.3 C 7.4 19.8 7.4 22.3 8.9 23.9 C 10.5 25.5 13.0 25.5 14.6 23.9 Z M 14.6 23.9 " fill="#FEFFFE"></path></g></g><g><clipPath id="clip-18652"><path d="M 10.8 9.1 L 32.8 9.1 L 32.8 31.1 L 10.8 31.1 Z M 10.8 9.1 "></path></clipPath><g clip-path="url(#clip-18652)"><image xlink:href="../../0DED08B5-48C8-4E6A-B1AD-B01FA6B3AB41/assets/12FBFBF7A323C8BDCACC7E2724B223EA.png" width="20.00" height="20.00" transform="matrix(1.00, 0.00, -0.00, -1.00, 11.8, 30.1)" opacity="0.80"></image><path d="M 24.6 22.9 C 26.2 21.3 26.2 18.8 24.6 17.3 C 23.0 15.7 20.5 15.7 18.9 17.3 C 17.4 18.8 17.4 21.3 18.9 22.9 C 20.5 24.5 23.0 24.5 24.6 22.9 Z M 24.6 22.9 " fill="#FEFFFE"></path></g></g><g><clipPath id="clip-18653"><path d="M 20.8 9.1 L 42.8 9.1 L 42.8 31.1 L 20.8 31.1 Z M 20.8 9.1 "></path></clipPath><g clip-path="url(#clip-18653)"><image xlink:href="../../0DED08B5-48C8-4E6A-B1AD-B01FA6B3AB41/assets/12FBFBF7A323C8BDCACC7E2724B223EA.png" width="20.00" height="20.00" transform="matrix(1.00, 0.00, -0.00, -1.00, 21.8, 30.1)" opacity="0.80"></image><path d="M 34.6 22.9 C 36.2 21.3 36.2 18.8 34.6 17.3 C 33.0 15.7 30.5 15.7 28.9 17.3 C 27.4 18.8 27.4 21.3 28.9 22.9 C 30.5 24.5 33.0 24.5 34.6 22.9 Z M 34.6 22.9 " fill="#FEFFFE"></path></g></g><g><clipPath id="clip-18654"><path d="M 5.8 17.1 L 27.8 17.1 L 27.8 39.1 L 5.8 39.1 Z M 5.8 17.1 "></path></clipPath><g clip-path="url(#clip-18654)"><image xlink:href="../../0DED08B5-48C8-4E6A-B1AD-B01FA6B3AB41/assets/12FBFBF7A323C8BDCACC7E2724B223EA.png" width="20.00" height="20.00" transform="matrix(1.00, 0.00, -0.00, -1.00, 6.8, 38.1)" opacity="0.80"></image><path d="M 19.6 30.9 C 21.2 29.3 21.2 26.8 19.6 25.3 C 18.0 23.7 15.5 23.7 13.9 25.3 C 12.4 26.8 12.4 29.3 13.9 30.9 C 15.5 32.5 18.0 32.5 19.6 30.9 Z M 19.6 30.9 " fill="#FEFFFE"></path></g></g><g><clipPath id="clip-18655"><path d="M 15.8 17.1 L 37.8 17.1 L 37.8 39.1 L 15.8 39.1 Z M 15.8 17.1 "></path></clipPath><g clip-path="url(#clip-18655)"><image xlink:href="../../0DED08B5-48C8-4E6A-B1AD-B01FA6B3AB41/assets/12FBFBF7A323C8BDCACC7E2724B223EA.png" width="20.00" height="20.00" transform="matrix(1.00, 0.00, -0.00, -1.00, 16.8, 38.1)" opacity="0.80"></image><path d="M 29.6 30.9 C 31.2 29.3 31.2 26.8 29.6 25.3 C 28.0 23.7 25.5 23.7 23.9 25.3 C 22.4 26.8 22.4 29.3 23.9 30.9 C 25.5 32.5 28.0 32.5 29.6 30.9 Z M 29.6 30.9 " fill="#FEFFFE"></path></g></g></g></svg>