<?xml version="1.0" encoding="UTF-8" standalone="no"?><svg xmlns="http://www.w3.org/2000/svg" xmlns:xlink="http://www.w3.org/1999/xlink" clip-rule="evenodd" stroke-miterlimit="4.00" viewBox="0 0 743 751"><desc>SVG generated by Keynote</desc><defs></defs><g transform="matrix(1.00, 0.00, -0.00, -1.00, 0.0, 751.0)"><g><clipPath id="clip-19437"><path d="M 737.0 743.0 L 737.0 9.0 L 15.0 9.0 L 15.0 743.0 Z M 737.3 742.8 "></path></clipPath><g clip-path="url(#clip-19437)"><g><clipPath id="clip-19438"><path d="M 15.0 743.0 L 15.0 9.0 L 737.0 9.0 L 737.0 743.0 Z M 15.0 743.0 "></path></clipPath><g clip-path="url(#clip-19438)"><g><g><clipPath id="clip-19439"><path d="M 738.9 743.0 L 738.9 9.0 L -303.0 9.0 L -303.0 743.0 Z M 738.9 743.0 "></path></clipPath><g clip-path="url(#clip-19439)"><g><clipPath id="clip-19440"><path d="M 15.0 9.0 L 737.0 9.0 L 737.0 743.0 L 15.0 743.0 Z M 15.0 9.0 "></path></clipPath><g clip-path="url(#clip-19440)"><g opacity="0.00"><g><clipPath id="clip-19441"><path d="M 11.1 747.1 L 11.1 5.8 L 945.8 5.8 L 945.8 747.1 Z M 11.1 747.1 "></path></clipPath><g clip-path="url(#clip-19441)"><g><clipPath id="clip-19442"><path d="M 15.0 9.0 L 737.0 9.0 L 737.0 743.0 L 15.0 743.0 Z M 15.0 9.0 "></path></clipPath><g clip-path="url(#clip-19442)"><path d="M 945.8 747.1 L 945.8 5.8 L 11.1 5.8 L 11.1 747.1 Z M 945.8 747.1 " fill="#1A1918"></path></g></g></g></g></g></g></g></g></g><g><clipPath id="clip-19443"><path d="M 15.0 9.0 L 737.0 9.0 L 737.0 743.0 L 15.0 743.0 Z M 15.0 9.0 "></path></clipPath><g clip-path="url(#clip-19443)"><path d="M 12.3 743.0 L 12.3 9.0 L 737.0 9.0 L 737.0 743.0 Z M 12.3 743.0 " fill="#00864E"></path></g></g><g><clipPath id="clip-19444"><path d="M 738.9 743.0 L 738.9 9.0 L -303.0 9.0 L -303.0 743.0 Z M 738.9 743.0 "></path></clipPath><g clip-path="url(#clip-19444)"><g><clipPath id="clip-19445"><path d="M 15.0 9.0 L 737.0 9.0 L 737.0 743.0 L 15.0 743.0 Z M 15.0 9.0 "></path></clipPath><g clip-path="url(#clip-19445)"><path d="M -0.4 594.2 L 420.7 594.2 L 420.7 180.1 L -0.4 180.1 Z M -0.4 594.2 " fill="none" stroke="#EBEBE8" stroke-width="2.00" stroke-miterlimit="8.00" transform="matrix(0.00, -1.75, 1.75, 0.00, -303.0, 743.0)"></path></g></g></g></g><g><clipPath id="clip-19446"><path d="M 738.9 743.0 L 738.9 9.0 L -303.0 9.0 L -303.0 743.0 Z M 738.9 743.0 "></path></clipPath><g clip-path="url(#clip-19446)"><g><clipPath id="clip-19447"><path d="M 15.0 9.0 L 737.0 9.0 L 737.0 743.0 L 15.0 743.0 Z M 15.0 9.0 "></path></clipPath><g clip-path="url(#clip-19447)"><g opacity="0.30"><g><clipPath id="clip-19448"><path d="M 509.5 625.9 L 509.5 127.0 L 944.2 127.0 L 944.2 625.9 Z M 509.5 625.9 "></path></clipPath><g clip-path="url(#clip-19448)"><g><clipPath id="clip-19449"><path d="M 509.0 127.0 L 737.0 127.0 L 737.0 626.0 L 509.0 626.0 Z M 509.0 127.0 "></path></clipPath><g clip-path="url(#clip-19449)"><path d="M 0.0 0.0 C 55.3 -48.1 55.3 -126.1 0.0 -174.2 C -55.3 -222.3 -144.9 -222.3 -200.2 -174.2 C -255.5 -126.1 -255.5 -48.1 -200.2 0.0 C -144.9 48.1 -55.3 48.1 0.0 0.0 " fill="none" stroke="#FFFEFE" stroke-width="2.00" stroke-miterlimit="8.00" stroke-linejoin="round" transform="matrix(0.00, -1.75, 1.75, 0.00, 879.3, 201.3)"></path></g></g></g></g></g></g></g></g></g><g><clipPath id="clip-19450"><path d="M 738.9 743.0 L 738.9 9.0 L -303.0 9.0 L -303.0 743.0 Z M 738.9 743.0 "></path></clipPath><g clip-path="url(#clip-19450)"><g><clipPath id="clip-19451"><path d="M 15.0 9.0 L 737.0 9.0 L 737.0 743.0 L 15.0 743.0 Z M 15.0 9.0 "></path></clipPath><g clip-path="url(#clip-19451)"><g opacity="0.30"><g><clipPath id="clip-19452"><path d="M 111.6 748.3 L 111.6 4.7 L 119.5 4.7 L 119.5 748.3 Z M 111.6 748.3 "></path></clipPath><g clip-path="url(#clip-19452)"><g><clipPath id="clip-19453"><path d="M 111.6 748.3 L 111.6 4.7 L 119.5 4.7 L 119.5 748.3 Z M 111.6 748.3 "></path></clipPath><g clip-path="url(#clip-19453)"><g><clipPath id="clip-19454"><path d="M 111.0 9.0 L 120.0 9.0 L 120.0 743.0 L 111.0 743.0 Z M 111.0 9.0 "></path></clipPath><g clip-path="url(#clip-19454)"><path d="M 0.0 0.0 L 421.1 -0.1 " fill="none" stroke="#FFFEFE" stroke-width="3.00" stroke-miterlimit="8.00" stroke-linejoin="round" transform="matrix(0.00, -1.75, 1.75, 0.00, 116.1, 744.9)"></path></g></g></g></g></g></g></g></g></g></g></g><g><clipPath id="clip-19455"><path d="M 738.9 743.0 L 738.9 9.0 L -303.0 9.0 L -303.0 743.0 Z M 738.9 743.0 "></path></clipPath><g clip-path="url(#clip-19455)"><g><clipPath id="clip-19456"><path d="M 15.0 9.0 L 737.0 9.0 L 737.0 743.0 L 15.0 743.0 Z M 15.0 9.0 "></path></clipPath><g clip-path="url(#clip-19456)"><g opacity="0.47"><g><clipPath id="clip-19457"><path d="M 407.4 748.3 L 407.4 4.7 L 415.3 4.7 L 415.3 748.3 Z M 407.4 748.3 "></path></clipPath><g clip-path="url(#clip-19457)"><g><clipPath id="clip-19458"><path d="M 407.4 748.3 L 407.4 4.7 L 415.3 4.7 L 415.3 748.3 Z M 407.4 748.3 "></path></clipPath><g clip-path="url(#clip-19458)"><g><clipPath id="clip-19459"><path d="M 407.0 9.0 L 416.0 9.0 L 416.0 743.0 L 407.0 743.0 Z M 407.0 9.0 "></path></clipPath><g clip-path="url(#clip-19459)"><path d="M 0.0 0.0 L 421.1 -0.1 " fill="none" stroke="#FFFEFE" stroke-width="3.00" stroke-miterlimit="8.00" stroke-linejoin="round" stroke-dasharray="27.0, 9.0" transform="matrix(0.00, -1.75, 1.75, 0.00, 411.9, 744.9)"></path></g></g></g></g></g></g></g></g></g></g></g></g></g></g></g></g><image xlink:href="../../0C930E86-4277-443F-87C0-83660A271B3B/assets/0831C380C4876CB459EDE4787970FEB9.png" width="748.00" height="740.00" transform="matrix(0.00, -1.00, 1.00, 0.00, 1.3, 749.8)"></image></g></svg>