<?xml version="1.0" encoding="UTF-8" standalone="no"?><svg xmlns="http://www.w3.org/2000/svg" xmlns:xlink="http://www.w3.org/1999/xlink" clip-rule="evenodd" stroke-miterlimit="4.00" viewBox="0 0 39 39"><desc>SVG generated by Keynote</desc><defs></defs><g transform="matrix(1.00, 0.00, -0.00, -1.00, 0.0, 39.0)"><image xlink:href="../../0C930E86-4277-443F-87C0-83660A271B3B/assets/F0B38DB35E021AA2BF6CE94940E294D7.png" width="36.00" height="36.00" transform="matrix(1.00, 0.00, -0.00, -0.99, 1.2, 37.5)" opacity="0.80"></image><path d="M 27.7 28.0 C 32.4 23.4 32.4 15.8 27.7 11.2 C 23.0 6.5 15.4 6.5 10.7 11.2 C 6.0 15.8 6.0 23.4 10.7 28.0 C 15.4 32.7 23.0 32.7 27.7 28.0 Z M 27.7 28.0 " fill="#E7A432"></path><image xlink:href="../../1F46F10E-630D-408F-BB51-062C4FDE7492/assets/BEB4937F5297B0C68BAC043E23A0814B.png" width="12.00" height="11.00" transform="matrix(1.00, 0.00, -0.00, -1.00, 14.0, 24.0)"></image><g><clipPath id="clip-19463"><path d="M 7.2 7.7 L 31.2 7.7 L 31.2 31.5 L 7.2 31.5 Z M 7.2 7.7 "></path></clipPath><g clip-path="url(#clip-19463)"><text xml:space="preserve" font-family="Helvetica-Bold" font-weight="bold" font-size="7.0" fill="#FEFFFF" transform="matrix(1.00, 0.00, -0.00, -1.00, 15.0, 17.0)">S</text><text xml:space="preserve" font-family="Helvetica-Bold" font-weight="bold" font-size="7.0" fill="#FEFFFF" transform="matrix(1.00, 0.00, -0.00, -1.00, 19.7, 17.0)">1</text></g></g></g></svg>