<?xml version="1.0" encoding="UTF-8" standalone="no"?><svg xmlns="http://www.w3.org/2000/svg" xmlns:xlink="http://www.w3.org/1999/xlink" clip-rule="evenodd" stroke-miterlimit="4.00" viewBox="0 0 39 38"><desc>SVG generated by Keynote</desc><defs></defs><g transform="matrix(1.00, 0.00, -0.00, -1.00, 0.0, 38.0)"><image xlink:href="../../0C930E86-4277-443F-87C0-83660A271B3B/assets/F0B38DB35E021AA2BF6CE94940E294D7.png" width="36.00" height="36.00" transform="matrix(1.00, 0.00, -0.00, -0.99, 1.3, 36.9)" opacity="0.80"></image><path d="M 27.7 27.4 C 32.4 22.8 32.4 15.3 27.7 10.6 C 23.1 6.0 15.5 6.0 10.8 10.6 C 6.1 15.3 6.1 22.8 10.8 27.4 C 15.5 32.1 23.1 32.1 27.7 27.4 Z M 27.7 27.4 " fill="#10DAE2"></path><image xlink:href="../../1F46F10E-630D-408F-BB51-062C4FDE7492/assets/E9A21EA7B50670355401C399A101573B.png" width="13.00" height="11.00" transform="matrix(1.00, 0.00, -0.00, -1.00, 14.0, 24.0)"></image><g><clipPath id="clip-19460"><path d="M 7.3 7.1 L 32.5 7.1 L 32.5 30.9 L 7.3 30.9 Z M 7.3 7.1 "></path></clipPath><g clip-path="url(#clip-19460)"><text xml:space="preserve" font-family="Helvetica-Bold" font-weight="bold" font-size="7.0" fill="#FEFFFF" transform="matrix(1.00, 0.00, -0.00, -1.00, 15.0, 17.0)">S</text><text xml:space="preserve" font-family="Helvetica-Bold" font-weight="bold" font-size="7.0" fill="#FEFFFF" transform="matrix(1.00, 0.00, -0.00, -1.00, 19.7, 17.0)">3</text></g></g></g></svg>