<?xml version="1.0" encoding="UTF-8" standalone="no"?><svg xmlns="http://www.w3.org/2000/svg" xmlns:xlink="http://www.w3.org/1999/xlink" clip-rule="evenodd" stroke-miterlimit="4.00" viewBox="0 0 1024 768"><desc>SVG generated by Keynote</desc><defs><linearGradient id="gradSh1.46" x1="0.0" y1="0.0" x2="100.0" y2="0.0" gradientUnits="userSpaceOnUse" gradientTransform="matrix(0.00, -7.70, -10.26, 0.00, 512.0, 769.0)"><stop offset="0.00000" stop-color="#0066C1"></stop><stop offset="0.00147" stop-color="#0065C0"></stop><stop offset="0.05352" stop-color="#0164BE"></stop><stop offset="0.06378" stop-color="#0163BE"></stop><stop offset="0.15982" stop-color="#0260B9"></stop><stop offset="0.17669" stop-color="#0260B8"></stop><stop offset="0.37243" stop-color="#045AB0"></stop><stop offset="0.37390" stop-color="#045AAF"></stop><stop offset="0.79692" stop-color="#084C9C"></stop><stop offset="0.80938" stop-color="#084B9C"></stop><stop offset="1.00000" stop-color="#094593"></stop></linearGradient></defs><g transform="matrix(1.00, 0.00, -0.00, -1.00, 0.0, 768.0)"><g><clipPath id="clip-18010"><path d="M 0.0 768.0 L 1024.0 768.0 L 1024.0 0.0 L 0.0 0.0 Z M 0.0 768.0 "></path></clipPath><g clip-path="url(#clip-18010)"><path d="M 0.0 768.0 L 1024.0 768.0 L 1024.0 0.0 L 0.0 0.0 Z M 0.0 768.0 " fill="url(#gradSh1.46)"></path></g></g><g><clipPath id="clip-18011"><path d="M 21.2 55.0 L 21.2 595.6 L 552.8 595.6 L 552.8 55.0 Z M 21.2 55.0 "></path></clipPath><g clip-path="url(#clip-18011)"><g><clipPath id="clip-18012"><path d="M 21.0 55.0 L 21.0 596.0 L 553.0 596.0 L 553.0 55.0 Z M 21.2 55.0 "></path></clipPath><g clip-path="url(#clip-18012)"><g><clipPath id="clip-18013"><path d="M 553.0 55.0 L 553.0 596.0 L 21.0 596.0 L 21.0 55.0 Z M 553.0 55.0 "></path></clipPath><g clip-path="url(#clip-18013)"><g><g><clipPath id="clip-18014"><path d="M 19.6 55.0 L 19.6 596.0 L 787.3 596.0 L 787.3 55.0 Z M 19.6 55.0 "></path></clipPath><g clip-path="url(#clip-18014)"><g><clipPath id="clip-18015"><path d="M 21.0 55.0 L 553.0 55.0 L 553.0 596.0 L 21.0 596.0 Z M 21.0 55.0 "></path></clipPath><g clip-path="url(#clip-18015)"><g opacity="0.00"><g><clipPath id="clip-18016"><path d="M 555.8 52.0 L 555.8 598.4 L -132.9 598.4 L -132.9 52.0 Z M 555.8 52.0 "></path></clipPath><g clip-path="url(#clip-18016)"><g><clipPath id="clip-18017"><path d="M 21.0 55.0 L 553.0 55.0 L 553.0 596.0 L 21.0 596.0 Z M 21.0 55.0 "></path></clipPath><g clip-path="url(#clip-18017)"><path d="M -132.9 52.0 L -132.9 598.4 L 555.8 598.4 L 555.8 52.0 Z M -132.9 52.0 " fill="#1A1918"></path></g></g></g></g></g></g></g></g></g><g><clipPath id="clip-18018"><path d="M 21.0 55.0 L 553.0 55.0 L 553.0 596.0 L 21.0 596.0 Z M 21.0 55.0 "></path></clipPath><g clip-path="url(#clip-18018)"><path d="M 555.0 55.0 L 555.0 596.0 L 21.0 596.0 L 21.0 55.0 Z M 555.0 55.0 " fill="#00864E"></path></g></g><g><clipPath id="clip-18019"><path d="M 19.6 55.0 L 19.6 596.0 L 787.3 596.0 L 787.3 55.0 Z M 19.6 55.0 "></path></clipPath><g clip-path="url(#clip-18019)"><g><clipPath id="clip-18020"><path d="M 21.0 55.0 L 553.0 55.0 L 553.0 596.0 L 21.0 596.0 Z M 21.0 55.0 "></path></clipPath><g clip-path="url(#clip-18020)"><path d="M -0.4 594.2 L 420.7 594.2 L 420.7 180.1 L -0.4 180.1 Z M -0.4 594.2 " fill="none" stroke="#EBEBE8" stroke-width="2.00" stroke-miterlimit="8.00" transform="matrix(0.00, 1.29, -1.29, 0.00, 787.3, 55.0)"></path></g></g></g></g><g><clipPath id="clip-18021"><path d="M 19.6 55.0 L 19.6 596.0 L 787.3 596.0 L 787.3 55.0 Z M 19.6 55.0 "></path></clipPath><g clip-path="url(#clip-18021)"><g><clipPath id="clip-18022"><path d="M 21.0 55.0 L 553.0 55.0 L 553.0 596.0 L 21.0 596.0 Z M 21.0 55.0 "></path></clipPath><g clip-path="url(#clip-18022)"><g opacity="0.30"><g><clipPath id="clip-18023"><path d="M 188.6 141.3 L 188.6 509.0 L -131.7 509.0 L -131.7 141.3 Z M 188.6 141.3 "></path></clipPath><g clip-path="url(#clip-18023)"><g><clipPath id="clip-18024"><path d="M 21.0 141.0 L 189.0 141.0 L 189.0 510.0 L 21.0 510.0 Z M 21.0 141.0 "></path></clipPath><g clip-path="url(#clip-18024)"><path d="M 0.0 0.0 C 55.3 -48.1 55.3 -126.1 0.0 -174.2 C -55.3 -222.3 -144.9 -222.3 -200.2 -174.2 C -255.5 -126.1 -255.5 -48.1 -200.2 0.0 C -144.9 48.1 -55.3 48.1 0.0 0.0 " fill="none" stroke="#FFFEFE" stroke-width="2.00" stroke-miterlimit="8.00" stroke-linejoin="round" transform="matrix(0.00, 1.29, -1.29, 0.00, -83.9, 454.2)"></path></g></g></g></g></g></g></g></g></g><g><clipPath id="clip-18025"><path d="M 19.6 55.0 L 19.6 596.0 L 787.3 596.0 L 787.3 55.0 Z M 19.6 55.0 "></path></clipPath><g clip-path="url(#clip-18025)"><g><clipPath id="clip-18026"><path d="M 21.0 55.0 L 553.0 55.0 L 553.0 596.0 L 21.0 596.0 Z M 21.0 55.0 "></path></clipPath><g clip-path="url(#clip-18026)"><g opacity="0.30"><g><clipPath id="clip-18027"><path d="M 481.8 51.1 L 481.8 599.2 L 476.0 599.2 L 476.0 51.1 Z M 481.8 51.1 "></path></clipPath><g clip-path="url(#clip-18027)"><g><clipPath id="clip-18028"><path d="M 481.8 51.1 L 481.8 599.2 L 476.0 599.2 L 476.0 51.1 Z M 481.8 51.1 "></path></clipPath><g clip-path="url(#clip-18028)"><g><clipPath id="clip-18029"><path d="M 475.0 55.0 L 482.0 55.0 L 482.0 596.0 L 475.0 596.0 Z M 475.0 55.0 "></path></clipPath><g clip-path="url(#clip-18029)"><path d="M 0.0 0.0 L 421.1 -0.1 " fill="none" stroke="#FFFEFE" stroke-width="3.00" stroke-miterlimit="8.00" stroke-linejoin="round" transform="matrix(0.00, 1.29, -1.29, 0.00, 478.5, 53.6)"></path></g></g></g></g></g></g></g></g></g></g></g><g><clipPath id="clip-18030"><path d="M 19.6 55.0 L 19.6 596.0 L 787.3 596.0 L 787.3 55.0 Z M 19.6 55.0 "></path></clipPath><g clip-path="url(#clip-18030)"><g><clipPath id="clip-18031"><path d="M 21.0 55.0 L 553.0 55.0 L 553.0 596.0 L 21.0 596.0 Z M 21.0 55.0 "></path></clipPath><g clip-path="url(#clip-18031)"><g opacity="0.47"><g><clipPath id="clip-18032"><path d="M 263.9 51.1 L 263.9 599.2 L 258.1 599.2 L 258.1 51.1 Z M 263.9 51.1 "></path></clipPath><g clip-path="url(#clip-18032)"><g><clipPath id="clip-18033"><path d="M 263.9 51.1 L 263.9 599.2 L 258.1 599.2 L 258.1 51.1 Z M 263.9 51.1 "></path></clipPath><g clip-path="url(#clip-18033)"><g><clipPath id="clip-18034"><path d="M 258.0 55.0 L 264.0 55.0 L 264.0 596.0 L 258.0 596.0 Z M 258.0 55.0 "></path></clipPath><g clip-path="url(#clip-18034)"><path d="M 0.0 0.0 L 421.1 -0.1 " fill="none" stroke="#FFFEFE" stroke-width="3.00" stroke-miterlimit="8.00" stroke-linejoin="round" stroke-dasharray="27.0, 9.0" transform="matrix(0.00, 1.29, -1.29, 0.00, 260.6, 53.6)"></path></g></g></g></g></g></g></g></g></g></g></g></g></g></g></g></g></g></g><g><clipPath id="clip-18035"><path d="M 935.5 595.6 L 935.5 55.0 L 403.9 55.0 L 403.9 595.6 Z M 935.5 595.6 "></path></clipPath><g clip-path="url(#clip-18035)"><g><clipPath id="clip-18036"><path d="M 936.0 596.0 L 936.0 55.0 L 404.0 55.0 L 404.0 596.0 Z M 935.5 595.6 "></path></clipPath><g clip-path="url(#clip-18036)"><g><clipPath id="clip-18037"><path d="M 404.0 596.0 L 404.0 55.0 L 936.0 55.0 L 936.0 596.0 Z M 404.0 596.0 "></path></clipPath><g clip-path="url(#clip-18037)"><g><g><clipPath id="clip-18038"><path d="M 937.4 596.0 L 937.4 55.0 L 169.7 55.0 L 169.7 596.0 Z M 937.4 596.0 "></path></clipPath><g clip-path="url(#clip-18038)"><g><clipPath id="clip-18039"><path d="M 404.0 55.0 L 936.0 55.0 L 936.0 596.0 L 404.0 596.0 Z M 404.0 55.0 "></path></clipPath><g clip-path="url(#clip-18039)"><g opacity="0.00"><g><clipPath id="clip-18040"><path d="M 401.2 599.0 L 401.2 52.6 L 1089.9 52.6 L 1089.9 599.0 Z M 401.2 599.0 "></path></clipPath><g clip-path="url(#clip-18040)"><g><clipPath id="clip-18041"><path d="M 404.0 55.0 L 936.0 55.0 L 936.0 596.0 L 404.0 596.0 Z M 404.0 55.0 "></path></clipPath><g clip-path="url(#clip-18041)"><path d="M 1089.9 599.0 L 1089.9 52.6 L 401.2 52.6 L 401.2 599.0 Z M 1089.9 599.0 " fill="#1A1918"></path></g></g></g></g></g></g></g></g></g><g><clipPath id="clip-18042"><path d="M 404.0 55.0 L 936.0 55.0 L 936.0 596.0 L 404.0 596.0 Z M 404.0 55.0 "></path></clipPath><g clip-path="url(#clip-18042)"><path d="M 402.0 596.0 L 402.0 55.0 L 936.0 55.0 L 936.0 596.0 Z M 402.0 596.0 " fill="#00864E"></path></g></g><g><clipPath id="clip-18043"><path d="M 937.4 596.0 L 937.4 55.0 L 169.7 55.0 L 169.7 596.0 Z M 937.4 596.0 "></path></clipPath><g clip-path="url(#clip-18043)"><g><clipPath id="clip-18044"><path d="M 404.0 55.0 L 936.0 55.0 L 936.0 596.0 L 404.0 596.0 Z M 404.0 55.0 "></path></clipPath><g clip-path="url(#clip-18044)"><path d="M -0.4 594.2 L 420.7 594.2 L 420.7 180.1 L -0.4 180.1 Z M -0.4 594.2 " fill="none" stroke="#EBEBE8" stroke-width="2.00" stroke-miterlimit="8.00" transform="matrix(0.00, -1.29, 1.29, 0.00, 169.7, 596.0)"></path></g></g></g></g><g><clipPath id="clip-18045"><path d="M 937.4 596.0 L 937.4 55.0 L 169.7 55.0 L 169.7 596.0 Z M 937.4 596.0 "></path></clipPath><g clip-path="url(#clip-18045)"><g><clipPath id="clip-18046"><path d="M 404.0 55.0 L 936.0 55.0 L 936.0 596.0 L 404.0 596.0 Z M 404.0 55.0 "></path></clipPath><g clip-path="url(#clip-18046)"><g opacity="0.30"><g><clipPath id="clip-18047"><path d="M 768.4 509.7 L 768.4 142.0 L 1088.7 142.0 L 1088.7 509.7 Z M 768.4 509.7 "></path></clipPath><g clip-path="url(#clip-18047)"><g><clipPath id="clip-18048"><path d="M 768.0 141.0 L 936.0 141.0 L 936.0 510.0 L 768.0 510.0 Z M 768.0 141.0 "></path></clipPath><g clip-path="url(#clip-18048)"><path d="M 0.0 0.0 C 55.3 -48.1 55.3 -126.1 0.0 -174.2 C -55.3 -222.3 -144.9 -222.3 -200.2 -174.2 C -255.5 -126.1 -255.5 -48.1 -200.2 0.0 C -144.9 48.1 -55.3 48.1 0.0 0.0 " fill="none" stroke="#FFFEFE" stroke-width="2.00" stroke-miterlimit="8.00" stroke-linejoin="round" transform="matrix(0.00, -1.29, 1.29, 0.00, 1040.9, 196.8)"></path></g></g></g></g></g></g></g></g></g><g><clipPath id="clip-18049"><path d="M 937.4 596.0 L 937.4 55.0 L 169.7 55.0 L 169.7 596.0 Z M 937.4 596.0 "></path></clipPath><g clip-path="url(#clip-18049)"><g><clipPath id="clip-18050"><path d="M 404.0 55.0 L 936.0 55.0 L 936.0 596.0 L 404.0 596.0 Z M 404.0 55.0 "></path></clipPath><g clip-path="url(#clip-18050)"><g opacity="0.30"><g><clipPath id="clip-18051"><path d="M 475.2 599.9 L 475.2 51.8 L 481.0 51.8 L 481.0 599.9 Z M 475.2 599.9 "></path></clipPath><g clip-path="url(#clip-18051)"><g><clipPath id="clip-18052"><path d="M 475.2 599.9 L 475.2 51.8 L 481.0 51.8 L 481.0 599.9 Z M 475.2 599.9 "></path></clipPath><g clip-path="url(#clip-18052)"><g><clipPath id="clip-18053"><path d="M 475.0 55.0 L 482.0 55.0 L 482.0 596.0 L 475.0 596.0 Z M 475.0 55.0 "></path></clipPath><g clip-path="url(#clip-18053)"><path d="M 0.0 0.0 L 421.1 -0.1 " fill="none" stroke="#FFFEFE" stroke-width="3.00" stroke-miterlimit="8.00" stroke-linejoin="round" transform="matrix(0.00, -1.29, 1.29, 0.00, 478.5, 597.4)"></path></g></g></g></g></g></g></g></g></g></g></g><g><clipPath id="clip-18054"><path d="M 937.4 596.0 L 937.4 55.0 L 169.7 55.0 L 169.7 596.0 Z M 937.4 596.0 "></path></clipPath><g clip-path="url(#clip-18054)"><g><clipPath id="clip-18055"><path d="M 404.0 55.0 L 936.0 55.0 L 936.0 596.0 L 404.0 596.0 Z M 404.0 55.0 "></path></clipPath><g clip-path="url(#clip-18055)"><g opacity="0.47"><g><clipPath id="clip-18056"><path d="M 693.1 599.9 L 693.1 51.8 L 698.9 51.8 L 698.9 599.9 Z M 693.1 599.9 "></path></clipPath><g clip-path="url(#clip-18056)"><g><clipPath id="clip-18057"><path d="M 693.1 599.9 L 693.1 51.8 L 698.9 51.8 L 698.9 599.9 Z M 693.1 599.9 "></path></clipPath><g clip-path="url(#clip-18057)"><g><clipPath id="clip-18058"><path d="M 693.0 55.0 L 699.0 55.0 L 699.0 596.0 L 693.0 596.0 Z M 693.0 55.0 "></path></clipPath><g clip-path="url(#clip-18058)"><path d="M 0.0 0.0 L 421.1 -0.1 " fill="none" stroke="#FFFEFE" stroke-width="3.00" stroke-miterlimit="8.00" stroke-linejoin="round" stroke-dasharray="27.0, 9.0" transform="matrix(0.00, -1.29, 1.29, 0.00, 696.4, 597.4)"></path></g></g></g></g></g></g></g></g></g></g></g></g></g></g></g></g></g></g><path d="M 0.0 0.0 L 53.7 0.0 " fill="none" stroke="#FEFFFE" stroke-width="2.00" transform="matrix(0.00, 1.00, 1.00, 0.00, 478.3, 508.0)"></path><path d="M 0.0 0.0 L 67.3 0.0 " fill="none" stroke="#FEFFFE" stroke-width="2.00" transform="matrix(1.00, 0.00, 0.00, -1.00, 479.5, 430.0)"></path><text xml:space="preserve" font-family="Helvetica-Light" font-size="80.0" fill="#FEFFFF" transform="matrix(1.00, 0.00, -0.00, -1.00, 105.0, 679.0)">O</text><text xml:space="preserve" font-family="Helvetica-Light" font-size="80.0" fill="#FEFFFF" transform="matrix(1.00, 0.00, -0.00, -1.00, 167.2, 679.0)">u</text><text xml:space="preserve" font-family="Helvetica-Light" font-size="80.0" fill="#FEFFFF" transform="matrix(1.00, 0.00, -0.00, -1.00, 211.7, 679.0)">t</text><text xml:space="preserve" font-family="Helvetica-Light" font-size="80.0" fill="#FEFFFF" transform="matrix(1.00, 0.00, -0.00, -1.00, 234.0, 679.0)">l</text><text xml:space="preserve" font-family="Helvetica-Light" font-size="80.0" fill="#FEFFFF" transform="matrix(1.00, 0.00, -0.00, -1.00, 251.7, 679.0)">e</text><text xml:space="preserve" font-family="Helvetica-Light" font-size="80.0" fill="#FEFFFF" transform="matrix(1.00, 0.00, -0.00, -1.00, 296.2, 679.0)">t</text><text xml:space="preserve" font-family="Helvetica-Light" font-size="80.0" fill="#FEFFFF" transform="matrix(1.00, 0.00, -0.00, -1.00, 318.4, 679.0)"> </text><text xml:space="preserve" font-family="Helvetica-Light" font-size="80.0" fill="#FEFFFF" transform="matrix(1.00, 0.00, -0.00, -1.00, 340.7, 679.0)">/</text><text xml:space="preserve" font-family="Helvetica-Light" font-size="80.0" fill="#FEFFFF" transform="matrix(1.00, 0.00, -0.00, -1.00, 362.9, 679.0)"> </text><text xml:space="preserve" font-family="Helvetica-Light" font-size="80.0" fill="#FEFFFF" transform="matrix(1.00, 0.00, -0.00, -1.00, 385.2, 679.0)">C</text><text xml:space="preserve" font-family="Helvetica-Light" font-size="80.0" fill="#FEFFFF" transform="matrix(1.00, 0.00, -0.00, -1.00, 442.9, 679.0)">o</text><text xml:space="preserve" font-family="Helvetica-Light" font-size="80.0" fill="#FEFFFF" transform="matrix(1.00, 0.00, -0.00, -1.00, 487.4, 679.0)">u</text><text xml:space="preserve" font-family="Helvetica-Light" font-size="80.0" fill="#FEFFFF" transform="matrix(1.00, 0.00, -0.00, -1.00, 531.9, 679.0)">n</text><text xml:space="preserve" font-family="Helvetica-Light" font-size="80.0" fill="#FEFFFF" transform="matrix(1.00, 0.00, -0.00, -1.00, 576.4, 679.0)">t</text><text xml:space="preserve" font-family="Helvetica-Light" font-size="80.0" fill="#FEFFFF" transform="matrix(1.00, 0.00, -0.00, -1.00, 598.6, 679.0)">e</text><text xml:space="preserve" font-family="Helvetica-Light" font-size="80.0" fill="#FEFFFF" transform="matrix(1.00, 0.00, -0.00, -1.00, 643.1, 679.0)">r</text><text xml:space="preserve" font-family="Helvetica-Light" font-size="80.0" fill="#FEFFFF" transform="matrix(1.00, 0.00, -0.00, -1.00, 669.7, 679.0)"> </text><text xml:space="preserve" font-family="Helvetica-Light" font-size="80.0" fill="#FEFFFF" transform="matrix(1.00, 0.00, -0.00, -1.00, 692.0, 679.0)">A</text><text xml:space="preserve" font-family="Helvetica-Light" font-size="80.0" fill="#FEFFFF" transform="matrix(1.00, 0.00, -0.00, -1.00, 745.3, 679.0)">t</text><text xml:space="preserve" font-family="Helvetica-Light" font-size="80.0" fill="#FEFFFF" transform="matrix(1.00, 0.00, -0.00, -1.00, 767.6, 679.0)">t</text><text xml:space="preserve" font-family="Helvetica-Light" font-size="80.0" fill="#FEFFFF" transform="matrix(1.00, 0.00, -0.00, -1.00, 789.8, 679.0)">a</text><text xml:space="preserve" font-family="Helvetica-Light" font-size="80.0" fill="#FEFFFF" transform="matrix(1.00, 0.00, -0.00, -1.00, 834.3, 679.0)">c</text><text xml:space="preserve" font-family="Helvetica-Light" font-size="80.0" fill="#FEFFFF" transform="matrix(1.00, 0.00, -0.00, -1.00, 878.8, 679.0)">k</text><image xlink:href="../../95F18BE9-9F57-4735-B424-42E7C07C47EC/assets/9922666258708ED7C600D8D3F0D2FC69.png" width="43.00" height="43.00" transform="matrix(1.01, 0.00, -0.00, -1.00, 882.5, 464.4)" opacity="0.80"></image><path d="M 915.2 453.8 C 921.3 447.8 921.3 437.9 915.2 431.9 C 909.1 425.8 899.2 425.8 893.1 431.9 C 887.0 437.9 887.0 447.8 893.1 453.8 C 899.2 459.9 909.1 459.9 915.2 453.8 Z M 915.2 453.8 " fill="#0065C0"></path><image xlink:href="../../95F18BE9-9F57-4735-B424-42E7C07C47EC/assets/A6ECC3333DB90E4A1C7D7CF8DA54D0F7.png" width="13.00" height="13.00" transform="matrix(1.00, 0.00, -0.00, -1.00, 899.0, 449.0)"></image><g><clipPath id="clip-18059"><path d="M 888.5 427.3 L 919.8 427.3 L 919.8 458.4 L 888.5 458.4 Z M 888.5 427.3 "></path></clipPath><g clip-path="url(#clip-18059)"><text xml:space="preserve" font-family="Helvetica-Bold" font-weight="bold" font-size="12.0" fill="#FEFFFF" transform="matrix(1.00, 0.00, -0.00, -1.00, 900.0, 439.0)">D</text></g></g><image xlink:href="../../95F18BE9-9F57-4735-B424-42E7C07C47EC/assets/E577C575619E9B56E6FB9D3B0E72FE4F.png" width="24.00" height="24.00" transform="matrix(1.00, 0.00, -0.00, -1.00, 646.9, 149.7)" opacity="0.80"></image><path d="M 663.2 141.9 C 665.5 139.6 665.5 135.8 663.2 133.4 C 660.8 131.1 657.0 131.1 654.7 133.4 C 652.3 135.8 652.3 139.6 654.7 141.9 C 657.0 144.3 660.8 144.3 663.2 141.9 Z M 663.2 141.9 " fill="#FEFFFE"></path><image xlink:href="../../95F18BE9-9F57-4735-B424-42E7C07C47EC/assets/8D928189FEB594596406039F4D884B0E.png" width="32.00" height="34.00" transform="matrix(1.01, 0.00, -0.00, -1.01, 462.2, 518.6)" opacity="0.80"></image><path d="M 478.3 510.1 L 486.9 491.2 L 469.8 491.2 Z M 478.3 510.1 " fill="#E7A432"></path><path d="M 8.6 0.0 L 17.1 19.0 L 0.0 19.0 Z M 8.6 0.0 " fill="none" stroke="#D35854" stroke-width="2.00" transform="matrix(1.00, 0.00, 0.00, -1.00, 469.8, 510.1)"></path><image xlink:href="../../95F18BE9-9F57-4735-B424-42E7C07C47EC/assets/8D928189FEB594596406039F4D884B0E.png" width="32.00" height="34.00" transform="matrix(1.01, 0.00, -0.00, -1.01, 608.9, 424.7)" opacity="0.80"></image><path d="M 625.0 416.3 L 633.6 397.3 L 616.5 397.3 Z M 625.0 416.3 " fill="#E7A432"></path><path d="M 8.6 0.0 L 17.1 19.0 L 0.0 19.0 Z M 8.6 0.0 " fill="none" stroke="#D35854" stroke-width="2.00" transform="matrix(1.00, 0.00, 0.00, -1.00, 616.5, 416.3)"></path><image xlink:href="../../95F18BE9-9F57-4735-B424-42E7C07C47EC/assets/8D928189FEB594596406039F4D884B0E.png" width="32.00" height="34.00" transform="matrix(1.01, 0.00, -0.00, -1.01, 614.4, 655.0)" opacity="0.80"></image><path d="M 630.5 646.6 L 639.1 627.6 L 622.0 627.6 Z M 630.5 646.6 " fill="#E7A432"></path><path d="M 8.6 0.0 L 17.1 19.0 L 0.0 19.0 Z M 8.6 0.0 " fill="none" stroke="#D35854" stroke-width="2.00" transform="matrix(1.00, 0.00, 0.00, -1.00, 622.0, 646.6)"></path><image xlink:href="../../95F18BE9-9F57-4735-B424-42E7C07C47EC/assets/8D928189FEB594596406039F4D884B0E.png" width="32.00" height="34.00" transform="matrix(1.01, 0.00, -0.00, -1.01, 462.9, 447.2)" opacity="0.80"></image><path d="M 479.0 438.7 L 487.6 419.8 L 470.4 419.8 Z M 479.0 438.7 " fill="#E7A432"></path><path d="M 8.6 0.0 L 17.1 19.0 L 0.0 19.0 Z M 8.6 0.0 " fill="none" stroke="#D35854" stroke-width="2.00" transform="matrix(1.00, 0.00, 0.00, -1.00, 470.4, 438.7)"></path><image xlink:href="../../95F18BE9-9F57-4735-B424-42E7C07C47EC/assets/8D928189FEB594596406039F4D884B0E.png" width="32.00" height="34.00" transform="matrix(1.01, 0.00, -0.00, -1.01, 535.7, 447.2)" opacity="0.80"></image><path d="M 551.8 438.7 L 560.4 419.8 L 543.3 419.8 Z M 551.8 438.7 " fill="#E7A432"></path><path d="M 8.6 0.0 L 17.1 19.0 L 0.0 19.0 Z M 8.6 0.0 " fill="none" stroke="#D35854" stroke-width="2.00" transform="matrix(1.00, 0.00, 0.00, -1.00, 543.3, 438.7)"></path><image xlink:href="../../95F18BE9-9F57-4735-B424-42E7C07C47EC/assets/8D928189FEB594596406039F4D884B0E.png" width="32.00" height="34.00" transform="matrix(1.01, 0.00, -0.00, -1.01, 586.7, 655.0)" opacity="0.80"></image><path d="M 602.8 646.6 L 611.4 627.6 L 594.3 627.6 Z M 602.8 646.6 " fill="#E7A432"></path><path d="M 8.6 0.0 L 17.1 19.0 L 0.0 19.0 Z M 8.6 0.0 " fill="none" stroke="#D35854" stroke-width="2.00" transform="matrix(1.00, 0.00, 0.00, -1.00, 594.3, 646.6)"></path><image xlink:href="../../95F18BE9-9F57-4735-B424-42E7C07C47EC/assets/8D928189FEB594596406039F4D884B0E.png" width="32.00" height="34.00" transform="matrix(1.01, 0.00, -0.00, -1.01, 642.2, 655.0)" opacity="0.80"></image><path d="M 658.3 646.6 L 666.8 627.6 L 649.7 627.6 Z M 658.3 646.6 " fill="#E7A432"></path><path d="M 8.6 0.0 L 17.1 19.0 L 0.0 19.0 Z M 8.6 0.0 " fill="none" stroke="#D35854" stroke-width="2.00" transform="matrix(1.00, 0.00, 0.00, -1.00, 649.7, 646.6)"></path><image xlink:href="../../95F18BE9-9F57-4735-B424-42E7C07C47EC/assets/8D928189FEB594596406039F4D884B0E.png" width="32.00" height="34.00" transform="matrix(1.01, 0.00, -0.00, -1.01, 462.2, 590.0)" opacity="0.80"></image><path d="M 478.3 581.5 L 486.9 562.6 L 469.8 562.6 Z M 478.3 581.5 " fill="#E7A432"></path><path d="M 8.6 0.0 L 17.1 19.0 L 0.0 19.0 Z M 8.6 0.0 " fill="none" stroke="#D35854" stroke-width="2.00" transform="matrix(1.00, 0.00, 0.00, -1.00, 469.8, 581.5)"></path><image xlink:href="../../95F18BE9-9F57-4735-B424-42E7C07C47EC/assets/9922666258708ED7C600D8D3F0D2FC69.png" width="43.00" height="43.00" transform="matrix(1.01, 0.00, -0.00, -1.00, 862.8, 439.4)" opacity="0.80"></image><path d="M 895.5 428.8 C 901.6 422.8 901.6 412.9 895.5 406.9 C 889.4 400.8 879.5 400.8 873.4 406.9 C 867.3 412.9 867.3 422.8 873.4 428.8 C 879.5 434.9 889.4 434.9 895.5 428.8 Z M 895.5 428.8 " fill="#FF2741"></path><image xlink:href="../../95F18BE9-9F57-4735-B424-42E7C07C47EC/assets/5A5D776167D34C59EA7082E6C3D9BAE6.png" width="12.00" height="15.00" transform="matrix(1.00, 0.00, -0.00, -1.00, 879.0, 425.0)"></image><g><clipPath id="clip-18060"><path d="M 868.8 402.3 L 900.0 402.3 L 900.0 433.4 L 868.8 433.4 Z M 868.8 402.3 "></path></clipPath><g clip-path="url(#clip-18060)"><text xml:space="preserve" font-family="Helvetica-Bold" font-weight="bold" font-size="12.0" fill="#FEFFFF" transform="matrix(1.00, 0.00, -0.00, -1.00, 880.0, 414.0)">S</text></g></g><image xlink:href="../../95F18BE9-9F57-4735-B424-42E7C07C47EC/assets/9922666258708ED7C600D8D3F0D2FC69.png" width="43.00" height="43.00" transform="matrix(1.01, 0.00, -0.00, -1.00, 774.8, 528.2)" opacity="0.80"></image><path d="M 807.5 517.7 C 813.6 511.6 813.6 501.8 807.5 495.8 C 801.4 489.7 791.5 489.7 785.4 495.8 C 779.3 501.8 779.3 511.6 785.4 517.7 C 791.5 523.7 801.4 523.7 807.5 517.7 Z M 807.5 517.7 " fill="#0065C0"></path><image xlink:href="../../95F18BE9-9F57-4735-B424-42E7C07C47EC/assets/A6ECC3333DB90E4A1C7D7CF8DA54D0F7.png" width="13.00" height="13.00" transform="matrix(1.00, 0.00, -0.00, -1.00, 791.0, 513.0)"></image><g><clipPath id="clip-18061"><path d="M 780.8 491.2 L 812.0 491.2 L 812.0 522.2 L 780.8 522.2 Z M 780.8 491.2 "></path></clipPath><g clip-path="url(#clip-18061)"><text xml:space="preserve" font-family="Helvetica-Bold" font-weight="bold" font-size="12.0" fill="#FEFFFF" transform="matrix(1.00, 0.00, -0.00, -1.00, 792.0, 503.0)">D</text></g></g><image xlink:href="../../95F18BE9-9F57-4735-B424-42E7C07C47EC/assets/9922666258708ED7C600D8D3F0D2FC69.png" width="43.00" height="43.00" transform="matrix(1.01, 0.00, -0.00, -1.00, 795.5, 362.4)" opacity="0.80"></image><path d="M 828.1 351.8 C 834.2 345.8 834.2 335.9 828.1 329.9 C 822.0 323.8 812.1 323.8 806.0 329.9 C 799.9 335.9 799.9 345.8 806.0 351.8 C 812.1 357.9 822.0 357.9 828.1 351.8 Z M 828.1 351.8 " fill="#FF2741"></path><image xlink:href="../../95F18BE9-9F57-4735-B424-42E7C07C47EC/assets/5A5D776167D34C59EA7082E6C3D9BAE6.png" width="12.00" height="15.00" transform="matrix(1.00, 0.00, -0.00, -1.00, 812.0, 348.0)"></image><g><clipPath id="clip-18062"><path d="M 801.5 325.4 L 832.7 325.4 L 832.7 356.4 L 801.5 356.4 Z M 801.5 325.4 "></path></clipPath><g clip-path="url(#clip-18062)"><text xml:space="preserve" font-family="Helvetica-Bold" font-weight="bold" font-size="12.0" fill="#FEFFFF" transform="matrix(1.00, 0.00, -0.00, -1.00, 813.0, 337.0)">S</text></g></g><image xlink:href="../../95F18BE9-9F57-4735-B424-42E7C07C47EC/assets/8D928189FEB594596406039F4D884B0E.png" width="32.00" height="34.00" transform="matrix(1.01, 0.00, -0.00, -1.01, 642.8, 402.2)" opacity="0.80"></image><path d="M 658.9 393.8 L 667.5 374.8 L 650.4 374.8 Z M 658.9 393.8 " fill="#E7A432"></path><path d="M 8.6 0.0 L 17.1 19.0 L 0.0 19.0 Z M 8.6 0.0 " fill="none" stroke="#D35854" stroke-width="2.00" transform="matrix(1.00, 0.00, 0.00, -1.00, 650.4, 393.8)"></path><image xlink:href="../../95F18BE9-9F57-4735-B424-42E7C07C47EC/assets/8D928189FEB594596406039F4D884B0E.png" width="32.00" height="34.00" transform="matrix(1.01, 0.00, -0.00, -1.01, 575.1, 447.2)" opacity="0.80"></image><path d="M 591.2 438.7 L 599.7 419.8 L 582.6 419.8 Z M 591.2 438.7 " fill="#E7A432"></path><path d="M 8.6 0.0 L 17.1 19.0 L 0.0 19.0 Z M 8.6 0.0 " fill="none" stroke="#D35854" stroke-width="2.00" transform="matrix(1.00, 0.00, 0.00, -1.00, 582.6, 438.7)"></path><image xlink:href="../../95F18BE9-9F57-4735-B424-42E7C07C47EC/assets/9922666258708ED7C600D8D3F0D2FC69.png" width="43.00" height="43.00" transform="matrix(1.01, 0.00, -0.00, -1.00, 783.8, 405.5)" opacity="0.80"></image><path d="M 816.5 395.0 C 822.6 388.9 822.6 379.1 816.5 373.0 C 810.4 367.0 800.5 367.0 794.4 373.0 C 788.3 379.1 788.3 388.9 794.4 395.0 C 800.5 401.0 810.4 401.0 816.5 395.0 Z M 816.5 395.0 " fill="#0065C0"></path><image xlink:href="../../95F18BE9-9F57-4735-B424-42E7C07C47EC/assets/A6ECC3333DB90E4A1C7D7CF8DA54D0F7.png" width="13.00" height="13.00" transform="matrix(1.00, 0.00, -0.00, -1.00, 800.0, 390.0)"></image><g><clipPath id="clip-18063"><path d="M 789.8 368.5 L 821.1 368.5 L 821.1 399.5 L 789.8 399.5 Z M 789.8 368.5 "></path></clipPath><g clip-path="url(#clip-18063)"><text xml:space="preserve" font-family="Helvetica-Bold" font-weight="bold" font-size="12.0" fill="#FEFFFF" transform="matrix(1.00, 0.00, -0.00, -1.00, 801.0, 380.0)">D</text></g></g><image xlink:href="../../95F18BE9-9F57-4735-B424-42E7C07C47EC/assets/9922666258708ED7C600D8D3F0D2FC69.png" width="43.00" height="43.00" transform="matrix(1.01, 0.00, -0.00, -1.00, 774.8, 480.6)" opacity="0.80"></image><path d="M 807.5 470.1 C 813.6 464.0 813.6 454.2 807.5 448.1 C 801.4 442.1 791.5 442.1 785.4 448.1 C 779.3 454.2 779.3 464.0 785.4 470.1 C 791.5 476.1 801.4 476.1 807.5 470.1 Z M 807.5 470.1 " fill="#FF2741"></path><image xlink:href="../../95F18BE9-9F57-4735-B424-42E7C07C47EC/assets/5A5D776167D34C59EA7082E6C3D9BAE6.png" width="12.00" height="15.00" transform="matrix(1.00, 0.00, -0.00, -1.00, 791.0, 466.0)"></image><g><clipPath id="clip-18064"><path d="M 780.8 443.6 L 812.0 443.6 L 812.0 474.6 L 780.8 474.6 Z M 780.8 443.6 "></path></clipPath><g clip-path="url(#clip-18064)"><text xml:space="preserve" font-family="Helvetica-Bold" font-weight="bold" font-size="12.0" fill="#FEFFFF" transform="matrix(1.00, 0.00, -0.00, -1.00, 792.0, 455.0)">S</text></g></g><image xlink:href="../../95F18BE9-9F57-4735-B424-42E7C07C47EC/assets/8D928189FEB594596406039F4D884B0E.png" width="32.00" height="34.00" transform="matrix(1.01, 0.00, -0.00, -1.01, 676.7, 379.8)" opacity="0.80"></image><path d="M 692.8 371.3 L 701.3 352.4 L 684.2 352.4 Z M 692.8 371.3 " fill="#E7A432"></path><path d="M 8.6 0.0 L 17.1 19.0 L 0.0 19.0 Z M 8.6 0.0 " fill="none" stroke="#D35854" stroke-width="2.00" transform="matrix(1.00, 0.00, 0.00, -1.00, 684.2, 371.3)"></path><image xlink:href="../../95F18BE9-9F57-4735-B424-42E7C07C47EC/assets/9922666258708ED7C600D8D3F0D2FC69.png" width="43.00" height="43.00" transform="matrix(1.01, 0.00, -0.00, -1.00, 882.5, 337.5)" opacity="0.80"></image><path d="M 915.2 327.0 C 921.3 320.9 921.3 311.1 915.2 305.0 C 909.1 299.0 899.2 299.0 893.1 305.0 C 887.0 311.1 887.0 320.9 893.1 327.0 C 899.2 333.0 909.1 333.0 915.2 327.0 Z M 915.2 327.0 " fill="#FF2741"></path><image xlink:href="../../95F18BE9-9F57-4735-B424-42E7C07C47EC/assets/5A5D776167D34C59EA7082E6C3D9BAE6.png" width="12.00" height="15.00" transform="matrix(1.00, 0.00, -0.00, -1.00, 899.0, 323.0)"></image><g><clipPath id="clip-18065"><path d="M 888.5 300.5 L 919.8 300.5 L 919.8 331.5 L 888.5 331.5 Z M 888.5 300.5 "></path></clipPath><g clip-path="url(#clip-18065)"><text xml:space="preserve" font-family="Helvetica-Bold" font-weight="bold" font-size="12.0" fill="#FEFFFF" transform="matrix(1.00, 0.00, -0.00, -1.00, 900.0, 312.0)">S</text></g></g><image xlink:href="../../95F18BE9-9F57-4735-B424-42E7C07C47EC/assets/8D928189FEB594596406039F4D884B0E.png" width="32.00" height="34.00" transform="matrix(1.01, 0.00, -0.00, -1.01, 667.8, 186.7)" opacity="0.80"></image><path d="M 683.9 178.3 L 692.4 159.3 L 675.3 159.3 Z M 683.9 178.3 " fill="#E7A432"></path><path d="M 8.6 0.0 L 17.1 19.0 L 0.0 19.0 Z M 8.6 0.0 " fill="none" stroke="#D35854" stroke-width="2.00" transform="matrix(1.00, 0.00, 0.00, -1.00, 675.3, 178.3)"></path><image xlink:href="../../95F18BE9-9F57-4735-B424-42E7C07C47EC/assets/E577C575619E9B56E6FB9D3B0E72FE4F.png" width="24.00" height="24.00" transform="matrix(1.00, 0.00, -0.00, -1.00, 656.9, 139.7)" opacity="0.80"></image><path d="M 673.2 131.9 C 675.5 129.6 675.5 125.8 673.2 123.4 C 670.8 121.1 667.0 121.1 664.7 123.4 C 662.3 125.8 662.3 129.6 664.7 131.9 C 667.0 134.3 670.8 134.3 673.2 131.9 Z M 673.2 131.9 " fill="#FEFFFE"></path><image xlink:href="../../95F18BE9-9F57-4735-B424-42E7C07C47EC/assets/E577C575619E9B56E6FB9D3B0E72FE4F.png" width="24.00" height="24.00" transform="matrix(1.00, 0.00, -0.00, -1.00, 400.6, 523.0)" opacity="0.80"></image><path d="M 416.9 515.3 C 419.2 512.9 419.2 509.1 416.9 506.8 C 414.5 504.4 410.7 504.4 408.4 506.8 C 406.0 509.1 406.0 512.9 408.4 515.3 C 410.7 517.6 414.5 517.6 416.9 515.3 Z M 416.9 515.3 " fill="#FEFFFE"></path><image xlink:href="../../95F18BE9-9F57-4735-B424-42E7C07C47EC/assets/E577C575619E9B56E6FB9D3B0E72FE4F.png" width="24.00" height="24.00" transform="matrix(1.00, 0.00, -0.00, -1.00, 646.9, 134.7)" opacity="0.80"></image><path d="M 663.2 126.9 C 665.5 124.6 665.5 120.8 663.2 118.4 C 660.8 116.1 657.0 116.1 654.7 118.4 C 652.3 120.8 652.3 124.6 654.7 126.9 C 657.0 129.3 660.8 129.3 663.2 126.9 Z M 663.2 126.9 " fill="#FEFFFE"></path><image xlink:href="../../95F18BE9-9F57-4735-B424-42E7C07C47EC/assets/E577C575619E9B56E6FB9D3B0E72FE4F.png" width="24.00" height="24.00" transform="matrix(1.00, 0.00, -0.00, -1.00, 872.4, 409.1)" opacity="0.80"></image><path d="M 888.7 401.4 C 891.0 399.0 891.0 395.2 888.7 392.9 C 886.3 390.6 882.5 390.6 880.2 392.9 C 877.8 395.2 877.8 399.0 880.2 401.4 C 882.5 403.7 886.3 403.7 888.7 401.4 Z M 888.7 401.4 " fill="#FEFFFE"></path><image xlink:href="../../95F18BE9-9F57-4735-B424-42E7C07C47EC/assets/E577C575619E9B56E6FB9D3B0E72FE4F.png" width="24.00" height="24.00" transform="matrix(1.00, 0.00, -0.00, -1.00, 420.6, 523.7)" opacity="0.80"></image><path d="M 436.9 516.0 C 439.2 513.6 439.2 509.8 436.9 507.5 C 434.5 505.1 430.7 505.1 428.4 507.5 C 426.0 509.8 426.0 513.6 428.4 516.0 C 430.7 518.3 434.5 518.3 436.9 516.0 Z M 436.9 516.0 " fill="#FEFFFE"></path><image xlink:href="../../95F18BE9-9F57-4735-B424-42E7C07C47EC/assets/E577C575619E9B56E6FB9D3B0E72FE4F.png" width="24.00" height="24.00" transform="matrix(1.00, 0.00, -0.00, -1.00, 420.6, 503.0)" opacity="0.80"></image><path d="M 436.9 495.3 C 439.2 492.9 439.2 489.1 436.9 486.8 C 434.5 484.4 430.7 484.4 428.4 486.8 C 426.0 489.1 426.0 492.9 428.4 495.3 C 430.7 497.6 434.5 497.6 436.9 495.3 Z M 436.9 495.3 " fill="#FEFFFE"></path><image xlink:href="../../95F18BE9-9F57-4735-B424-42E7C07C47EC/assets/E577C575619E9B56E6FB9D3B0E72FE4F.png" width="24.00" height="24.00" transform="matrix(1.00, 0.00, -0.00, -1.00, 410.6, 518.7)" opacity="0.80"></image><path d="M 426.9 511.0 C 429.2 508.6 429.2 504.8 426.9 502.5 C 424.5 500.1 420.7 500.1 418.4 502.5 C 416.0 504.8 416.0 508.6 418.4 511.0 C 420.7 513.3 424.5 513.3 426.9 511.0 Z M 426.9 511.0 " fill="#FEFFFE"></path><image xlink:href="../../95F18BE9-9F57-4735-B424-42E7C07C47EC/assets/E577C575619E9B56E6FB9D3B0E72FE4F.png" width="24.00" height="24.00" transform="matrix(1.00, 0.00, -0.00, -1.00, 490.0, 429.1)" opacity="0.80"></image><path d="M 506.2 421.4 C 508.6 419.0 508.6 415.2 506.2 412.9 C 503.9 410.6 500.1 410.6 497.8 412.9 C 495.4 415.2 495.4 419.0 497.8 421.4 C 500.1 423.7 503.9 423.7 506.2 421.4 Z M 506.2 421.4 " fill="#FEFFFE"></path><image xlink:href="../../95F18BE9-9F57-4735-B424-42E7C07C47EC/assets/E577C575619E9B56E6FB9D3B0E72FE4F.png" width="24.00" height="24.00" transform="matrix(1.00, 0.00, -0.00, -1.00, 510.0, 429.9)" opacity="0.80"></image><path d="M 526.2 422.1 C 528.6 419.7 528.6 416.0 526.2 413.6 C 523.9 411.3 520.1 411.3 517.8 413.6 C 515.4 416.0 515.4 419.7 517.8 422.1 C 520.1 424.4 523.9 424.4 526.2 422.1 Z M 526.2 422.1 " fill="#FEFFFE"></path><image xlink:href="../../95F18BE9-9F57-4735-B424-42E7C07C47EC/assets/E577C575619E9B56E6FB9D3B0E72FE4F.png" width="24.00" height="24.00" transform="matrix(1.00, 0.00, -0.00, -1.00, 510.0, 409.1)" opacity="0.80"></image><path d="M 526.2 401.4 C 528.6 399.0 528.6 395.2 526.2 392.9 C 523.9 390.6 520.1 390.6 517.8 392.9 C 515.4 395.2 515.4 399.0 517.8 401.4 C 520.1 403.7 523.9 403.7 526.2 401.4 Z M 526.2 401.4 " fill="#FEFFFE"></path><image xlink:href="../../95F18BE9-9F57-4735-B424-42E7C07C47EC/assets/E577C575619E9B56E6FB9D3B0E72FE4F.png" width="24.00" height="24.00" transform="matrix(1.00, 0.00, -0.00, -1.00, 500.0, 424.9)" opacity="0.80"></image><path d="M 516.2 417.1 C 518.6 414.7 518.6 411.0 516.2 408.6 C 513.9 406.3 510.1 406.3 507.8 408.6 C 505.4 411.0 505.4 414.7 507.8 417.1 C 510.1 419.4 513.9 419.4 516.2 417.1 Z M 516.2 417.1 " fill="#FEFFFE"></path></g></svg>