<?xml version="1.0" encoding="UTF-8" standalone="no"?><svg xmlns="http://www.w3.org/2000/svg" xmlns:xlink="http://www.w3.org/1999/xlink" clip-rule="evenodd" stroke-miterlimit="4.00" viewBox="0 0 27 27"><desc>SVG generated by Keynote</desc><defs></defs><g transform="matrix(1.00, 0.00, -0.00, -1.00, 0.0, 27.0)"><path d="M 22.1 21.5 C 26.8 16.9 26.8 9.4 22.1 4.7 C 17.4 0.1 9.8 0.1 5.1 4.7 C 0.4 9.4 0.4 16.9 5.1 21.5 C 9.8 26.2 17.4 26.2 22.1 21.5 Z M 22.1 21.5 " fill="#0065C0"></path><image xlink:href="../../1F46F10E-630D-408F-BB51-062C4FDE7492/assets/E9A21EA7B50670355401C399A101573B.png" width="13.00" height="11.00" transform="matrix(1.00, 0.00, -0.00, -1.00, 8.0, 18.0)"></image><g><clipPath id="clip-18493"><path d="M 1.6 1.2 L 26.8 1.2 L 26.8 25.0 L 1.6 25.0 Z M 1.6 1.2 "></path></clipPath><g clip-path="url(#clip-18493)"><text xml:space="preserve" font-family="Helvetica-Bold" font-weight="bold" font-size="7.0" fill="#FEFFFF" transform="matrix(1.00, 0.00, -0.00, -1.00, 9.0, 11.0)">S</text><text xml:space="preserve" font-family="Helvetica-Bold" font-weight="bold" font-size="7.0" fill="#FEFFFF" transform="matrix(1.00, 0.00, -0.00, -1.00, 13.7, 11.0)">3</text></g></g></g></svg>