<?xml version="1.0" encoding="UTF-8" standalone="no"?><svg xmlns="http://www.w3.org/2000/svg" xmlns:xlink="http://www.w3.org/1999/xlink" clip-rule="evenodd" stroke-miterlimit="4.00" viewBox="0 0 915 542"><desc>SVG generated by Keynote</desc><defs></defs><g transform="matrix(1.00, 0.00, -0.00, -1.00, 0.0, 542.0)"><g><clipPath id="clip-17775"><path d="M 0.2 1.0 L 0.2 541.6 L 531.8 541.6 L 531.8 1.0 Z M 0.2 1.0 "></path></clipPath><g clip-path="url(#clip-17775)"><g><clipPath id="clip-17776"><path d="M 0.0 1.0 L 0.0 542.0 L 532.0 542.0 L 532.0 1.0 Z M 0.2 1.0 "></path></clipPath><g clip-path="url(#clip-17776)"><g><clipPath id="clip-17777"><path d="M 532.0 1.0 L 532.0 542.0 L 0.0 542.0 L 0.0 1.0 Z M 532.0 1.0 "></path></clipPath><g clip-path="url(#clip-17777)"><g><g><clipPath id="clip-17778"><path d="M -1.4 1.0 L -1.4 542.0 L 766.3 542.0 L 766.3 1.0 Z M -1.4 1.0 "></path></clipPath><g clip-path="url(#clip-17778)"><g><clipPath id="clip-17779"><path d="M 0.0 1.0 L 532.0 1.0 L 532.0 542.0 L 0.0 542.0 Z M 0.0 1.0 "></path></clipPath><g clip-path="url(#clip-17779)"><g opacity="0.00"><g><clipPath id="clip-17780"><path d="M 534.8 -2.0 L 534.8 544.4 L -153.9 544.4 L -153.9 -2.0 Z M 534.8 -2.0 "></path></clipPath><g clip-path="url(#clip-17780)"><g><clipPath id="clip-17781"><path d="M 0.0 1.0 L 532.0 1.0 L 532.0 542.0 L 0.0 542.0 Z M 0.0 1.0 "></path></clipPath><g clip-path="url(#clip-17781)"><path d="M -153.9 -2.0 L -153.9 544.4 L 534.8 544.4 L 534.8 -2.0 Z M -153.9 -2.0 " fill="#1A1918"></path></g></g></g></g></g></g></g></g></g><g><clipPath id="clip-17782"><path d="M 0.0 1.0 L 532.0 1.0 L 532.0 542.0 L 0.0 542.0 Z M 0.0 1.0 "></path></clipPath><g clip-path="url(#clip-17782)"><path d="M 534.0 1.0 L 534.0 542.0 L 0.0 542.0 L 0.0 1.0 Z M 534.0 1.0 " fill="#00864E"></path></g></g><g><clipPath id="clip-17783"><path d="M -1.4 1.0 L -1.4 542.0 L 766.3 542.0 L 766.3 1.0 Z M -1.4 1.0 "></path></clipPath><g clip-path="url(#clip-17783)"><g><clipPath id="clip-17784"><path d="M 0.0 1.0 L 532.0 1.0 L 532.0 542.0 L 0.0 542.0 Z M 0.0 1.0 "></path></clipPath><g clip-path="url(#clip-17784)"><path d="M -0.4 594.2 L 420.7 594.2 L 420.7 180.1 L -0.4 180.1 Z M -0.4 594.2 " fill="none" stroke="#EBEBE8" stroke-width="2.00" stroke-miterlimit="8.00" transform="matrix(0.00, 1.29, -1.29, 0.00, 766.3, 1.0)"></path></g></g></g></g><g><clipPath id="clip-17785"><path d="M -1.4 1.0 L -1.4 542.0 L 766.3 542.0 L 766.3 1.0 Z M -1.4 1.0 "></path></clipPath><g clip-path="url(#clip-17785)"><g><clipPath id="clip-17786"><path d="M 0.0 1.0 L 532.0 1.0 L 532.0 542.0 L 0.0 542.0 Z M 0.0 1.0 "></path></clipPath><g clip-path="url(#clip-17786)"><g opacity="0.30"><g><clipPath id="clip-17787"><path d="M 167.6 87.3 L 167.6 455.0 L -152.7 455.0 L -152.7 87.3 Z M 167.6 87.3 "></path></clipPath><g clip-path="url(#clip-17787)"><g><clipPath id="clip-17788"><path d="M 0.0 87.0 L 168.0 87.0 L 168.0 456.0 L 0.0 456.0 Z M 0.0 87.0 "></path></clipPath><g clip-path="url(#clip-17788)"><path d="M 0.0 0.0 C 55.3 -48.1 55.3 -126.1 0.0 -174.2 C -55.3 -222.3 -144.9 -222.3 -200.2 -174.2 C -255.5 -126.1 -255.5 -48.1 -200.2 0.0 C -144.9 48.1 -55.3 48.1 0.0 0.0 " fill="none" stroke="#FFFEFE" stroke-width="2.00" stroke-miterlimit="8.00" stroke-linejoin="round" transform="matrix(0.00, 1.29, -1.29, 0.00, -104.9, 400.2)"></path></g></g></g></g></g></g></g></g></g><g><clipPath id="clip-17789"><path d="M -1.4 1.0 L -1.4 542.0 L 766.3 542.0 L 766.3 1.0 Z M -1.4 1.0 "></path></clipPath><g clip-path="url(#clip-17789)"><g><clipPath id="clip-17790"><path d="M 0.0 1.0 L 532.0 1.0 L 532.0 542.0 L 0.0 542.0 Z M 0.0 1.0 "></path></clipPath><g clip-path="url(#clip-17790)"><g opacity="0.30"><g><clipPath id="clip-17791"><path d="M 460.8 -2.9 L 460.8 545.2 L 455.0 545.2 L 455.0 -2.9 Z M 460.8 -2.9 "></path></clipPath><g clip-path="url(#clip-17791)"><g><clipPath id="clip-17792"><path d="M 460.8 -2.9 L 460.8 545.2 L 455.0 545.2 L 455.0 -2.9 Z M 460.8 -2.9 "></path></clipPath><g clip-path="url(#clip-17792)"><g><clipPath id="clip-17793"><path d="M 454.0 1.0 L 461.0 1.0 L 461.0 542.0 L 454.0 542.0 Z M 454.0 1.0 "></path></clipPath><g clip-path="url(#clip-17793)"><path d="M 0.0 0.0 L 421.1 -0.1 " fill="none" stroke="#FFFEFE" stroke-width="3.00" stroke-miterlimit="8.00" stroke-linejoin="round" transform="matrix(0.00, 1.29, -1.29, 0.00, 457.5, -0.4)"></path></g></g></g></g></g></g></g></g></g></g></g><g><clipPath id="clip-17794"><path d="M -1.4 1.0 L -1.4 542.0 L 766.3 542.0 L 766.3 1.0 Z M -1.4 1.0 "></path></clipPath><g clip-path="url(#clip-17794)"><g><clipPath id="clip-17795"><path d="M 0.0 1.0 L 532.0 1.0 L 532.0 542.0 L 0.0 542.0 Z M 0.0 1.0 "></path></clipPath><g clip-path="url(#clip-17795)"><g opacity="0.47"><g><clipPath id="clip-17796"><path d="M 242.9 -2.9 L 242.9 545.2 L 237.1 545.2 L 237.1 -2.9 Z M 242.9 -2.9 "></path></clipPath><g clip-path="url(#clip-17796)"><g><clipPath id="clip-17797"><path d="M 242.9 -2.9 L 242.9 545.2 L 237.1 545.2 L 237.1 -2.9 Z M 242.9 -2.9 "></path></clipPath><g clip-path="url(#clip-17797)"><g><clipPath id="clip-17798"><path d="M 237.0 1.0 L 243.0 1.0 L 243.0 542.0 L 237.0 542.0 Z M 237.0 1.0 "></path></clipPath><g clip-path="url(#clip-17798)"><path d="M 0.0 0.0 L 421.1 -0.1 " fill="none" stroke="#FFFEFE" stroke-width="3.00" stroke-miterlimit="8.00" stroke-linejoin="round" stroke-dasharray="27.0, 9.0" transform="matrix(0.00, 1.29, -1.29, 0.00, 239.6, -0.4)"></path></g></g></g></g></g></g></g></g></g></g></g></g></g></g></g></g></g></g><g><clipPath id="clip-17799"><path d="M 914.5 541.6 L 914.5 1.0 L 382.9 1.0 L 382.9 541.6 Z M 914.5 541.6 "></path></clipPath><g clip-path="url(#clip-17799)"><g><clipPath id="clip-17800"><path d="M 915.0 542.0 L 915.0 1.0 L 383.0 1.0 L 383.0 542.0 Z M 914.5 541.6 "></path></clipPath><g clip-path="url(#clip-17800)"><g><clipPath id="clip-17801"><path d="M 383.0 542.0 L 383.0 1.0 L 915.0 1.0 L 915.0 542.0 Z M 383.0 542.0 "></path></clipPath><g clip-path="url(#clip-17801)"><g><g><clipPath id="clip-17802"><path d="M 916.4 542.0 L 916.4 1.0 L 148.7 1.0 L 148.7 542.0 Z M 916.4 542.0 "></path></clipPath><g clip-path="url(#clip-17802)"><g><clipPath id="clip-17803"><path d="M 383.0 1.0 L 915.0 1.0 L 915.0 542.0 L 383.0 542.0 Z M 383.0 1.0 "></path></clipPath><g clip-path="url(#clip-17803)"><g opacity="0.00"><g><clipPath id="clip-17804"><path d="M 380.2 545.0 L 380.2 -1.4 L 1068.9 -1.4 L 1068.9 545.0 Z M 380.2 545.0 "></path></clipPath><g clip-path="url(#clip-17804)"><g><clipPath id="clip-17805"><path d="M 383.0 1.0 L 915.0 1.0 L 915.0 542.0 L 383.0 542.0 Z M 383.0 1.0 "></path></clipPath><g clip-path="url(#clip-17805)"><path d="M 1068.9 545.0 L 1068.9 -1.4 L 380.2 -1.4 L 380.2 545.0 Z M 1068.9 545.0 " fill="#1A1918"></path></g></g></g></g></g></g></g></g></g><g><clipPath id="clip-17806"><path d="M 383.0 1.0 L 915.0 1.0 L 915.0 542.0 L 383.0 542.0 Z M 383.0 1.0 "></path></clipPath><g clip-path="url(#clip-17806)"><path d="M 381.0 542.0 L 381.0 1.0 L 915.0 1.0 L 915.0 542.0 Z M 381.0 542.0 " fill="#00864E"></path></g></g><g><clipPath id="clip-17807"><path d="M 916.4 542.0 L 916.4 1.0 L 148.7 1.0 L 148.7 542.0 Z M 916.4 542.0 "></path></clipPath><g clip-path="url(#clip-17807)"><g><clipPath id="clip-17808"><path d="M 383.0 1.0 L 915.0 1.0 L 915.0 542.0 L 383.0 542.0 Z M 383.0 1.0 "></path></clipPath><g clip-path="url(#clip-17808)"><path d="M -0.4 594.2 L 420.7 594.2 L 420.7 180.1 L -0.4 180.1 Z M -0.4 594.2 " fill="none" stroke="#EBEBE8" stroke-width="2.00" stroke-miterlimit="8.00" transform="matrix(0.00, -1.29, 1.29, 0.00, 148.7, 542.0)"></path></g></g></g></g><g><clipPath id="clip-17809"><path d="M 916.4 542.0 L 916.4 1.0 L 148.7 1.0 L 148.7 542.0 Z M 916.4 542.0 "></path></clipPath><g clip-path="url(#clip-17809)"><g><clipPath id="clip-17810"><path d="M 383.0 1.0 L 915.0 1.0 L 915.0 542.0 L 383.0 542.0 Z M 383.0 1.0 "></path></clipPath><g clip-path="url(#clip-17810)"><g opacity="0.30"><g><clipPath id="clip-17811"><path d="M 747.4 455.7 L 747.4 88.0 L 1067.7 88.0 L 1067.7 455.7 Z M 747.4 455.7 "></path></clipPath><g clip-path="url(#clip-17811)"><g><clipPath id="clip-17812"><path d="M 747.0 87.0 L 915.0 87.0 L 915.0 456.0 L 747.0 456.0 Z M 747.0 87.0 "></path></clipPath><g clip-path="url(#clip-17812)"><path d="M 0.0 0.0 C 55.3 -48.1 55.3 -126.1 0.0 -174.2 C -55.3 -222.3 -144.9 -222.3 -200.2 -174.2 C -255.5 -126.1 -255.5 -48.1 -200.2 0.0 C -144.9 48.1 -55.3 48.1 0.0 0.0 " fill="none" stroke="#FFFEFE" stroke-width="2.00" stroke-miterlimit="8.00" stroke-linejoin="round" transform="matrix(0.00, -1.29, 1.29, 0.00, 1019.9, 142.8)"></path></g></g></g></g></g></g></g></g></g><g><clipPath id="clip-17813"><path d="M 916.4 542.0 L 916.4 1.0 L 148.7 1.0 L 148.7 542.0 Z M 916.4 542.0 "></path></clipPath><g clip-path="url(#clip-17813)"><g><clipPath id="clip-17814"><path d="M 383.0 1.0 L 915.0 1.0 L 915.0 542.0 L 383.0 542.0 Z M 383.0 1.0 "></path></clipPath><g clip-path="url(#clip-17814)"><g opacity="0.30"><g><clipPath id="clip-17815"><path d="M 454.2 545.9 L 454.2 -2.2 L 460.0 -2.2 L 460.0 545.9 Z M 454.2 545.9 "></path></clipPath><g clip-path="url(#clip-17815)"><g><clipPath id="clip-17816"><path d="M 454.2 545.9 L 454.2 -2.2 L 460.0 -2.2 L 460.0 545.9 Z M 454.2 545.9 "></path></clipPath><g clip-path="url(#clip-17816)"><g><clipPath id="clip-17817"><path d="M 454.0 1.0 L 461.0 1.0 L 461.0 542.0 L 454.0 542.0 Z M 454.0 1.0 "></path></clipPath><g clip-path="url(#clip-17817)"><path d="M 0.0 0.0 L 421.1 -0.1 " fill="none" stroke="#FFFEFE" stroke-width="3.00" stroke-miterlimit="8.00" stroke-linejoin="round" transform="matrix(0.00, -1.29, 1.29, 0.00, 457.5, 543.4)"></path></g></g></g></g></g></g></g></g></g></g></g><g><clipPath id="clip-17818"><path d="M 916.4 542.0 L 916.4 1.0 L 148.7 1.0 L 148.7 542.0 Z M 916.4 542.0 "></path></clipPath><g clip-path="url(#clip-17818)"><g><clipPath id="clip-17819"><path d="M 383.0 1.0 L 915.0 1.0 L 915.0 542.0 L 383.0 542.0 Z M 383.0 1.0 "></path></clipPath><g clip-path="url(#clip-17819)"><g opacity="0.47"><g><clipPath id="clip-17820"><path d="M 672.1 545.9 L 672.1 -2.2 L 677.9 -2.2 L 677.9 545.9 Z M 672.1 545.9 "></path></clipPath><g clip-path="url(#clip-17820)"><g><clipPath id="clip-17821"><path d="M 672.1 545.9 L 672.1 -2.2 L 677.9 -2.2 L 677.9 545.9 Z M 672.1 545.9 "></path></clipPath><g clip-path="url(#clip-17821)"><g><clipPath id="clip-17822"><path d="M 672.0 1.0 L 678.0 1.0 L 678.0 542.0 L 672.0 542.0 Z M 672.0 1.0 "></path></clipPath><g clip-path="url(#clip-17822)"><path d="M 0.0 0.0 L 421.1 -0.1 " fill="none" stroke="#FFFEFE" stroke-width="3.00" stroke-miterlimit="8.00" stroke-linejoin="round" stroke-dasharray="27.0, 9.0" transform="matrix(0.00, -1.29, 1.29, 0.00, 675.4, 543.4)"></path></g></g></g></g></g></g></g></g></g></g></g></g></g></g></g></g></g></g></g></svg>