<?xml version="1.0" encoding="UTF-8" standalone="no"?><svg xmlns="http://www.w3.org/2000/svg" xmlns:xlink="http://www.w3.org/1999/xlink" clip-rule="evenodd" stroke-miterlimit="4.00" viewBox="0 0 1024 768"><desc>SVG generated by Keynote</desc><defs><linearGradient id="gradSh1.76" x1="0.0" y1="0.0" x2="100.0" y2="0.0" gradientUnits="userSpaceOnUse" gradientTransform="matrix(0.00, -7.70, -10.26, 0.00, 512.0, 769.0)"><stop offset="0.00000" stop-color="#0066C1"></stop><stop offset="0.00147" stop-color="#0065C0"></stop><stop offset="0.05352" stop-color="#0164BE"></stop><stop offset="0.06378" stop-color="#0163BE"></stop><stop offset="0.15982" stop-color="#0260B9"></stop><stop offset="0.17669" stop-color="#0260B8"></stop><stop offset="0.37243" stop-color="#045AB0"></stop><stop offset="0.37390" stop-color="#045AAF"></stop><stop offset="0.79692" stop-color="#084C9C"></stop><stop offset="0.80938" stop-color="#084B9C"></stop><stop offset="1.00000" stop-color="#094593"></stop></linearGradient></defs><g transform="matrix(1.00, 0.00, -0.00, -1.00, 0.0, 768.0)"><g><clipPath id="clip-19227"><path d="M 0.0 768.0 L 1024.0 768.0 L 1024.0 0.0 L 0.0 0.0 Z M 0.0 768.0 "></path></clipPath><g clip-path="url(#clip-19227)"><path d="M 0.0 768.0 L 1024.0 768.0 L 1024.0 0.0 L 0.0 0.0 Z M 0.0 768.0 " fill="url(#gradSh1.76)"></path></g></g><g><clipPath id="clip-19228"><path d="M 21.2 55.0 L 21.2 595.6 L 552.8 595.6 L 552.8 55.0 Z M 21.2 55.0 "></path></clipPath><g clip-path="url(#clip-19228)"><g><clipPath id="clip-19229"><path d="M 21.0 55.0 L 21.0 596.0 L 553.0 596.0 L 553.0 55.0 Z M 21.2 55.0 "></path></clipPath><g clip-path="url(#clip-19229)"><g><clipPath id="clip-19230"><path d="M 553.0 55.0 L 553.0 596.0 L 21.0 596.0 L 21.0 55.0 Z M 553.0 55.0 "></path></clipPath><g clip-path="url(#clip-19230)"><g><g><clipPath id="clip-19231"><path d="M 19.6 55.0 L 19.6 596.0 L 787.3 596.0 L 787.3 55.0 Z M 19.6 55.0 "></path></clipPath><g clip-path="url(#clip-19231)"><g><clipPath id="clip-19232"><path d="M 21.0 55.0 L 553.0 55.0 L 553.0 596.0 L 21.0 596.0 Z M 21.0 55.0 "></path></clipPath><g clip-path="url(#clip-19232)"><g opacity="0.00"><g><clipPath id="clip-19233"><path d="M 555.8 52.0 L 555.8 598.4 L -132.9 598.4 L -132.9 52.0 Z M 555.8 52.0 "></path></clipPath><g clip-path="url(#clip-19233)"><g><clipPath id="clip-19234"><path d="M 21.0 55.0 L 553.0 55.0 L 553.0 596.0 L 21.0 596.0 Z M 21.0 55.0 "></path></clipPath><g clip-path="url(#clip-19234)"><path d="M -132.9 52.0 L -132.9 598.4 L 555.8 598.4 L 555.8 52.0 Z M -132.9 52.0 " fill="#1A1918"></path></g></g></g></g></g></g></g></g></g><g><clipPath id="clip-19235"><path d="M 21.0 55.0 L 553.0 55.0 L 553.0 596.0 L 21.0 596.0 Z M 21.0 55.0 "></path></clipPath><g clip-path="url(#clip-19235)"><path d="M 555.0 55.0 L 555.0 596.0 L 21.0 596.0 L 21.0 55.0 Z M 555.0 55.0 " fill="#00864E"></path></g></g><g><clipPath id="clip-19236"><path d="M 19.6 55.0 L 19.6 596.0 L 787.3 596.0 L 787.3 55.0 Z M 19.6 55.0 "></path></clipPath><g clip-path="url(#clip-19236)"><g><clipPath id="clip-19237"><path d="M 21.0 55.0 L 553.0 55.0 L 553.0 596.0 L 21.0 596.0 Z M 21.0 55.0 "></path></clipPath><g clip-path="url(#clip-19237)"><path d="M -0.4 594.2 L 420.7 594.2 L 420.7 180.1 L -0.4 180.1 Z M -0.4 594.2 " fill="none" stroke="#EBEBE8" stroke-width="2.00" stroke-miterlimit="8.00" transform="matrix(0.00, 1.29, -1.29, 0.00, 787.3, 55.0)"></path></g></g></g></g><g><clipPath id="clip-19238"><path d="M 19.6 55.0 L 19.6 596.0 L 787.3 596.0 L 787.3 55.0 Z M 19.6 55.0 "></path></clipPath><g clip-path="url(#clip-19238)"><g><clipPath id="clip-19239"><path d="M 21.0 55.0 L 553.0 55.0 L 553.0 596.0 L 21.0 596.0 Z M 21.0 55.0 "></path></clipPath><g clip-path="url(#clip-19239)"><g opacity="0.30"><g><clipPath id="clip-19240"><path d="M 188.6 141.3 L 188.6 509.0 L -131.7 509.0 L -131.7 141.3 Z M 188.6 141.3 "></path></clipPath><g clip-path="url(#clip-19240)"><g><clipPath id="clip-19241"><path d="M 21.0 141.0 L 189.0 141.0 L 189.0 510.0 L 21.0 510.0 Z M 21.0 141.0 "></path></clipPath><g clip-path="url(#clip-19241)"><path d="M 0.0 0.0 C 55.3 -48.1 55.3 -126.1 0.0 -174.2 C -55.3 -222.3 -144.9 -222.3 -200.2 -174.2 C -255.5 -126.1 -255.5 -48.1 -200.2 0.0 C -144.9 48.1 -55.3 48.1 0.0 0.0 " fill="none" stroke="#FFFEFE" stroke-width="2.00" stroke-miterlimit="8.00" stroke-linejoin="round" transform="matrix(0.00, 1.29, -1.29, 0.00, -83.9, 454.2)"></path></g></g></g></g></g></g></g></g></g><g><clipPath id="clip-19242"><path d="M 19.6 55.0 L 19.6 596.0 L 787.3 596.0 L 787.3 55.0 Z M 19.6 55.0 "></path></clipPath><g clip-path="url(#clip-19242)"><g><clipPath id="clip-19243"><path d="M 21.0 55.0 L 553.0 55.0 L 553.0 596.0 L 21.0 596.0 Z M 21.0 55.0 "></path></clipPath><g clip-path="url(#clip-19243)"><g opacity="0.30"><g><clipPath id="clip-19244"><path d="M 481.8 51.1 L 481.8 599.2 L 476.0 599.2 L 476.0 51.1 Z M 481.8 51.1 "></path></clipPath><g clip-path="url(#clip-19244)"><g><clipPath id="clip-19245"><path d="M 481.8 51.1 L 481.8 599.2 L 476.0 599.2 L 476.0 51.1 Z M 481.8 51.1 "></path></clipPath><g clip-path="url(#clip-19245)"><g><clipPath id="clip-19246"><path d="M 475.0 55.0 L 482.0 55.0 L 482.0 596.0 L 475.0 596.0 Z M 475.0 55.0 "></path></clipPath><g clip-path="url(#clip-19246)"><path d="M 0.0 0.0 L 421.1 -0.1 " fill="none" stroke="#FFFEFE" stroke-width="3.00" stroke-miterlimit="8.00" stroke-linejoin="round" transform="matrix(0.00, 1.29, -1.29, 0.00, 478.5, 53.6)"></path></g></g></g></g></g></g></g></g></g></g></g><g><clipPath id="clip-19247"><path d="M 19.6 55.0 L 19.6 596.0 L 787.3 596.0 L 787.3 55.0 Z M 19.6 55.0 "></path></clipPath><g clip-path="url(#clip-19247)"><g><clipPath id="clip-19248"><path d="M 21.0 55.0 L 553.0 55.0 L 553.0 596.0 L 21.0 596.0 Z M 21.0 55.0 "></path></clipPath><g clip-path="url(#clip-19248)"><g opacity="0.47"><g><clipPath id="clip-19249"><path d="M 263.9 51.1 L 263.9 599.2 L 258.1 599.2 L 258.1 51.1 Z M 263.9 51.1 "></path></clipPath><g clip-path="url(#clip-19249)"><g><clipPath id="clip-19250"><path d="M 263.9 51.1 L 263.9 599.2 L 258.1 599.2 L 258.1 51.1 Z M 263.9 51.1 "></path></clipPath><g clip-path="url(#clip-19250)"><g><clipPath id="clip-19251"><path d="M 258.0 55.0 L 264.0 55.0 L 264.0 596.0 L 258.0 596.0 Z M 258.0 55.0 "></path></clipPath><g clip-path="url(#clip-19251)"><path d="M 0.0 0.0 L 421.1 -0.1 " fill="none" stroke="#FFFEFE" stroke-width="3.00" stroke-miterlimit="8.00" stroke-linejoin="round" stroke-dasharray="27.0, 9.0" transform="matrix(0.00, 1.29, -1.29, 0.00, 260.6, 53.6)"></path></g></g></g></g></g></g></g></g></g></g></g></g></g></g></g></g></g></g><g><clipPath id="clip-19252"><path d="M 935.5 595.6 L 935.5 55.0 L 403.9 55.0 L 403.9 595.6 Z M 935.5 595.6 "></path></clipPath><g clip-path="url(#clip-19252)"><g><clipPath id="clip-19253"><path d="M 936.0 596.0 L 936.0 55.0 L 404.0 55.0 L 404.0 596.0 Z M 935.5 595.6 "></path></clipPath><g clip-path="url(#clip-19253)"><g><clipPath id="clip-19254"><path d="M 404.0 596.0 L 404.0 55.0 L 936.0 55.0 L 936.0 596.0 Z M 404.0 596.0 "></path></clipPath><g clip-path="url(#clip-19254)"><g><g><clipPath id="clip-19255"><path d="M 937.4 596.0 L 937.4 55.0 L 169.7 55.0 L 169.7 596.0 Z M 937.4 596.0 "></path></clipPath><g clip-path="url(#clip-19255)"><g><clipPath id="clip-19256"><path d="M 404.0 55.0 L 936.0 55.0 L 936.0 596.0 L 404.0 596.0 Z M 404.0 55.0 "></path></clipPath><g clip-path="url(#clip-19256)"><g opacity="0.00"><g><clipPath id="clip-19257"><path d="M 401.2 599.0 L 401.2 52.6 L 1089.9 52.6 L 1089.9 599.0 Z M 401.2 599.0 "></path></clipPath><g clip-path="url(#clip-19257)"><g><clipPath id="clip-19258"><path d="M 404.0 55.0 L 936.0 55.0 L 936.0 596.0 L 404.0 596.0 Z M 404.0 55.0 "></path></clipPath><g clip-path="url(#clip-19258)"><path d="M 1089.9 599.0 L 1089.9 52.6 L 401.2 52.6 L 401.2 599.0 Z M 1089.9 599.0 " fill="#1A1918"></path></g></g></g></g></g></g></g></g></g><g><clipPath id="clip-19259"><path d="M 404.0 55.0 L 936.0 55.0 L 936.0 596.0 L 404.0 596.0 Z M 404.0 55.0 "></path></clipPath><g clip-path="url(#clip-19259)"><path d="M 402.0 596.0 L 402.0 55.0 L 936.0 55.0 L 936.0 596.0 Z M 402.0 596.0 " fill="#00864E"></path></g></g><g><clipPath id="clip-19260"><path d="M 937.4 596.0 L 937.4 55.0 L 169.7 55.0 L 169.7 596.0 Z M 937.4 596.0 "></path></clipPath><g clip-path="url(#clip-19260)"><g><clipPath id="clip-19261"><path d="M 404.0 55.0 L 936.0 55.0 L 936.0 596.0 L 404.0 596.0 Z M 404.0 55.0 "></path></clipPath><g clip-path="url(#clip-19261)"><path d="M -0.4 594.2 L 420.7 594.2 L 420.7 180.1 L -0.4 180.1 Z M -0.4 594.2 " fill="none" stroke="#EBEBE8" stroke-width="2.00" stroke-miterlimit="8.00" transform="matrix(0.00, -1.29, 1.29, 0.00, 169.7, 596.0)"></path></g></g></g></g><g><clipPath id="clip-19262"><path d="M 937.4 596.0 L 937.4 55.0 L 169.7 55.0 L 169.7 596.0 Z M 937.4 596.0 "></path></clipPath><g clip-path="url(#clip-19262)"><g><clipPath id="clip-19263"><path d="M 404.0 55.0 L 936.0 55.0 L 936.0 596.0 L 404.0 596.0 Z M 404.0 55.0 "></path></clipPath><g clip-path="url(#clip-19263)"><g opacity="0.30"><g><clipPath id="clip-19264"><path d="M 768.4 509.7 L 768.4 142.0 L 1088.7 142.0 L 1088.7 509.7 Z M 768.4 509.7 "></path></clipPath><g clip-path="url(#clip-19264)"><g><clipPath id="clip-19265"><path d="M 768.0 141.0 L 936.0 141.0 L 936.0 510.0 L 768.0 510.0 Z M 768.0 141.0 "></path></clipPath><g clip-path="url(#clip-19265)"><path d="M 0.0 0.0 C 55.3 -48.1 55.3 -126.1 0.0 -174.2 C -55.3 -222.3 -144.9 -222.3 -200.2 -174.2 C -255.5 -126.1 -255.5 -48.1 -200.2 0.0 C -144.9 48.1 -55.3 48.1 0.0 0.0 " fill="none" stroke="#FFFEFE" stroke-width="2.00" stroke-miterlimit="8.00" stroke-linejoin="round" transform="matrix(0.00, -1.29, 1.29, 0.00, 1040.9, 196.8)"></path></g></g></g></g></g></g></g></g></g><g><clipPath id="clip-19266"><path d="M 937.4 596.0 L 937.4 55.0 L 169.7 55.0 L 169.7 596.0 Z M 937.4 596.0 "></path></clipPath><g clip-path="url(#clip-19266)"><g><clipPath id="clip-19267"><path d="M 404.0 55.0 L 936.0 55.0 L 936.0 596.0 L 404.0 596.0 Z M 404.0 55.0 "></path></clipPath><g clip-path="url(#clip-19267)"><g opacity="0.30"><g><clipPath id="clip-19268"><path d="M 475.2 599.9 L 475.2 51.8 L 481.0 51.8 L 481.0 599.9 Z M 475.2 599.9 "></path></clipPath><g clip-path="url(#clip-19268)"><g><clipPath id="clip-19269"><path d="M 475.2 599.9 L 475.2 51.8 L 481.0 51.8 L 481.0 599.9 Z M 475.2 599.9 "></path></clipPath><g clip-path="url(#clip-19269)"><g><clipPath id="clip-19270"><path d="M 475.0 55.0 L 482.0 55.0 L 482.0 596.0 L 475.0 596.0 Z M 475.0 55.0 "></path></clipPath><g clip-path="url(#clip-19270)"><path d="M 0.0 0.0 L 421.1 -0.1 " fill="none" stroke="#FFFEFE" stroke-width="3.00" stroke-miterlimit="8.00" stroke-linejoin="round" transform="matrix(0.00, -1.29, 1.29, 0.00, 478.5, 597.4)"></path></g></g></g></g></g></g></g></g></g></g></g><g><clipPath id="clip-19271"><path d="M 937.4 596.0 L 937.4 55.0 L 169.7 55.0 L 169.7 596.0 Z M 937.4 596.0 "></path></clipPath><g clip-path="url(#clip-19271)"><g><clipPath id="clip-19272"><path d="M 404.0 55.0 L 936.0 55.0 L 936.0 596.0 L 404.0 596.0 Z M 404.0 55.0 "></path></clipPath><g clip-path="url(#clip-19272)"><g opacity="0.47"><g><clipPath id="clip-19273"><path d="M 693.1 599.9 L 693.1 51.8 L 698.9 51.8 L 698.9 599.9 Z M 693.1 599.9 "></path></clipPath><g clip-path="url(#clip-19273)"><g><clipPath id="clip-19274"><path d="M 693.1 599.9 L 693.1 51.8 L 698.9 51.8 L 698.9 599.9 Z M 693.1 599.9 "></path></clipPath><g clip-path="url(#clip-19274)"><g><clipPath id="clip-19275"><path d="M 693.0 55.0 L 699.0 55.0 L 699.0 596.0 L 693.0 596.0 Z M 693.0 55.0 "></path></clipPath><g clip-path="url(#clip-19275)"><path d="M 0.0 0.0 L 421.1 -0.1 " fill="none" stroke="#FFFEFE" stroke-width="3.00" stroke-miterlimit="8.00" stroke-linejoin="round" stroke-dasharray="27.0, 9.0" transform="matrix(0.00, -1.29, 1.29, 0.00, 696.4, 597.4)"></path></g></g></g></g></g></g></g></g></g></g></g></g></g></g></g></g></g></g><text xml:space="preserve" font-family="Helvetica-Light" font-size="80.0" fill="#FEFFFF" transform="matrix(1.00, 0.00, -0.00, -1.00, 87.0, 679.0)">A</text><text xml:space="preserve" font-family="Helvetica-Light" font-size="80.0" fill="#FEFFFF" transform="matrix(1.00, 0.00, -0.00, -1.00, 140.4, 679.0)">t</text><text xml:space="preserve" font-family="Helvetica-Light" font-size="80.0" fill="#FEFFFF" transform="matrix(1.00, 0.00, -0.00, -1.00, 162.6, 679.0)">t</text><text xml:space="preserve" font-family="Helvetica-Light" font-size="80.0" fill="#FEFFFF" transform="matrix(1.00, 0.00, -0.00, -1.00, 184.8, 679.0)">a</text><text xml:space="preserve" font-family="Helvetica-Light" font-size="80.0" fill="#FEFFFF" transform="matrix(1.00, 0.00, -0.00, -1.00, 229.3, 679.0)">c</text><text xml:space="preserve" font-family="Helvetica-Light" font-size="80.0" fill="#FEFFFF" transform="matrix(1.00, 0.00, -0.00, -1.00, 273.8, 679.0)">k</text><text xml:space="preserve" font-family="Helvetica-Light" font-size="80.0" fill="#FEFFFF" transform="matrix(1.00, 0.00, -0.00, -1.00, 313.8, 679.0)">i</text><text xml:space="preserve" font-family="Helvetica-Light" font-size="80.0" fill="#FEFFFF" transform="matrix(1.00, 0.00, -0.00, -1.00, 331.6, 679.0)">n</text><text xml:space="preserve" font-family="Helvetica-Light" font-size="80.0" fill="#FEFFFF" transform="matrix(1.00, 0.00, -0.00, -1.00, 376.0, 679.0)">g</text><text xml:space="preserve" font-family="Helvetica-Light" font-size="80.0" fill="#FEFFFF" transform="matrix(1.00, 0.00, -0.00, -1.00, 424.9, 679.0)"> </text><text xml:space="preserve" font-family="Helvetica-Light" font-size="80.0" fill="#FEFFFF" transform="matrix(1.00, 0.00, -0.00, -1.00, 447.2, 679.0)">L</text><text xml:space="preserve" font-family="Helvetica-Light" font-size="80.0" fill="#FEFFFF" transform="matrix(1.00, 0.00, -0.00, -1.00, 491.6, 679.0)">o</text><text xml:space="preserve" font-family="Helvetica-Light" font-size="80.0" fill="#FEFFFF" transform="matrix(1.00, 0.00, -0.00, -1.00, 536.1, 679.0)">n</text><text xml:space="preserve" font-family="Helvetica-Light" font-size="80.0" fill="#FEFFFF" transform="matrix(1.00, 0.00, -0.00, -1.00, 580.6, 679.0)">g</text><text xml:space="preserve" font-family="Helvetica-Light" font-size="80.0" fill="#FEFFFF" transform="matrix(1.00, 0.00, -0.00, -1.00, 629.5, 679.0)"> </text><text xml:space="preserve" font-family="Helvetica-Light" font-size="80.0" fill="#FEFFFF" transform="matrix(1.00, 0.00, -0.00, -1.00, 651.7, 679.0)">C</text><text xml:space="preserve" font-family="Helvetica-Light" font-size="80.0" fill="#FEFFFF" transform="matrix(1.00, 0.00, -0.00, -1.00, 709.5, 679.0)">o</text><text xml:space="preserve" font-family="Helvetica-Light" font-size="80.0" fill="#FEFFFF" transform="matrix(1.00, 0.00, -0.00, -1.00, 754.0, 679.0)">r</text><text xml:space="preserve" font-family="Helvetica-Light" font-size="80.0" fill="#FEFFFF" transform="matrix(1.00, 0.00, -0.00, -1.00, 782.0, 679.0)">n</text><text xml:space="preserve" font-family="Helvetica-Light" font-size="80.0" fill="#FEFFFF" transform="matrix(1.00, 0.00, -0.00, -1.00, 826.5, 679.0)">e</text><text xml:space="preserve" font-family="Helvetica-Light" font-size="80.0" fill="#FEFFFF" transform="matrix(1.00, 0.00, -0.00, -1.00, 871.0, 679.0)">r</text><text xml:space="preserve" font-family="Helvetica-Light" font-size="80.0" fill="#FEFFFF" transform="matrix(1.00, 0.00, -0.00, -1.00, 897.6, 679.0)">s</text><image xlink:href="../../0C930E86-4277-443F-87C0-83660A271B3B/assets/F0B38DB35E021AA2BF6CE94940E294D7.png" width="36.00" height="36.00" transform="matrix(1.00, 0.00, -0.00, -0.99, 370.6, 486.3)" opacity="0.80"></image><path d="M 397.1 476.8 C 401.8 472.1 401.8 464.6 397.1 459.9 C 392.4 455.3 384.8 455.3 380.1 459.9 C 375.5 464.6 375.5 472.1 380.1 476.8 C 384.8 481.4 392.4 481.4 397.1 476.8 Z M 397.1 476.8 " fill="#0065C0"></path><image xlink:href="04F9E7122ED06C7FE8077F1DD12E9475.png" width="15.00" height="11.00" transform="matrix(1.00, 0.00, -0.00, -1.00, 382.0, 473.0)"></image><g><clipPath id="clip-19276"><path d="M 376.6 456.4 L 400.6 456.4 L 400.6 480.3 L 376.6 480.3 Z M 376.6 456.4 "></path></clipPath><g clip-path="url(#clip-19276)"><text xml:space="preserve" font-family="Helvetica-Bold" font-weight="bold" font-size="7.0" fill="#FEFFFF" transform="matrix(1.00, 0.00, -0.00, -1.00, 383.0, 466.0)">O</text><text xml:space="preserve" font-family="Helvetica-Bold" font-weight="bold" font-size="7.0" fill="#FEFFFF" transform="matrix(1.00, 0.00, -0.00, -1.00, 388.4, 466.0)">B</text></g></g><image xlink:href="../../0C930E86-4277-443F-87C0-83660A271B3B/assets/F0B38DB35E021AA2BF6CE94940E294D7.png" width="36.00" height="36.00" transform="matrix(1.00, 0.00, -0.00, -0.99, 434.6, 385.6)" opacity="0.80"></image><path d="M 461.1 376.1 C 465.8 371.5 465.8 363.9 461.1 359.3 C 456.4 354.6 448.8 354.6 444.1 359.3 C 439.5 363.9 439.5 371.5 444.1 376.1 C 448.8 380.8 456.4 380.8 461.1 376.1 Z M 461.1 376.1 " fill="#0065C0"></path><image xlink:href="0C9EBC915DA1B0F6C6DCD5DB1506240D.png" width="14.00" height="11.00" transform="matrix(1.00, 0.00, -0.00, -1.00, 447.0, 372.0)"></image><g><clipPath id="clip-19277"><path d="M 440.6 355.8 L 464.6 355.8 L 464.6 379.6 L 440.6 379.6 Z M 440.6 355.8 "></path></clipPath><g clip-path="url(#clip-19277)"><text xml:space="preserve" font-family="Helvetica-Bold" font-weight="bold" font-size="7.0" fill="#FEFFFF" transform="matrix(1.00, 0.00, -0.00, -1.00, 448.0, 365.0)">C</text><text xml:space="preserve" font-family="Helvetica-Bold" font-weight="bold" font-size="7.0" fill="#FEFFFF" transform="matrix(1.00, 0.00, -0.00, -1.00, 453.1, 365.0)">B</text></g></g><image xlink:href="../../0C930E86-4277-443F-87C0-83660A271B3B/assets/F0B38DB35E021AA2BF6CE94940E294D7.png" width="36.00" height="36.00" transform="matrix(1.00, 0.00, -0.00, -0.99, 470.6, 217.8)" opacity="0.80"></image><path d="M 497.1 208.3 C 501.8 203.7 501.8 196.2 497.1 191.5 C 492.4 186.9 484.8 186.9 480.1 191.5 C 475.5 196.2 475.5 203.7 480.1 208.3 C 484.8 213.0 492.4 213.0 497.1 208.3 Z M 497.1 208.3 " fill="#0065C0"></path><image xlink:href="../../95DCF10E-5814-4E27-A94D-FAC66EEB6456/assets/04F9E7122ED06C7FE8077F1DD12E9475.png" width="15.00" height="11.00" transform="matrix(1.00, 0.00, -0.00, -1.00, 482.0, 205.0)"></image><g><clipPath id="clip-19278"><path d="M 476.6 188.0 L 500.6 188.0 L 500.6 211.8 L 476.6 211.8 Z M 476.6 188.0 "></path></clipPath><g clip-path="url(#clip-19278)"><text xml:space="preserve" font-family="Helvetica-Bold" font-weight="bold" font-size="7.0" fill="#FEFFFF" transform="matrix(1.00, 0.00, -0.00, -1.00, 483.0, 198.0)">O</text><text xml:space="preserve" font-family="Helvetica-Bold" font-weight="bold" font-size="7.0" fill="#FEFFFF" transform="matrix(1.00, 0.00, -0.00, -1.00, 488.4, 198.0)">B</text></g></g><image xlink:href="../../0C930E86-4277-443F-87C0-83660A271B3B/assets/F0B38DB35E021AA2BF6CE94940E294D7.png" width="36.00" height="36.00" transform="matrix(1.00, 0.00, -0.00, -0.99, 548.5, 305.3)" opacity="0.80"></image><path d="M 575.0 295.8 C 579.7 291.1 579.7 283.6 575.0 278.9 C 570.3 274.3 562.7 274.3 558.1 278.9 C 553.4 283.6 553.4 291.1 558.1 295.8 C 562.7 300.4 570.3 300.4 575.0 295.8 Z M 575.0 295.8 " fill="#0065C0"></path><image xlink:href="A8CF8A5DE8DC437FB994E63DBF90FA33.png" width="15.00" height="10.00" transform="matrix(1.00, 0.00, -0.00, -1.00, 560.0, 292.0)"></image><g><clipPath id="clip-19279"><path d="M 554.5 275.4 L 578.5 275.4 L 578.5 299.3 L 554.5 299.3 Z M 554.5 275.4 "></path></clipPath><g clip-path="url(#clip-19279)"><text xml:space="preserve" font-family="Helvetica-Bold" font-weight="bold" font-size="7.0" fill="#FEFFFF" transform="matrix(1.00, 0.00, -0.00, -1.00, 561.0, 285.0)">D</text><text xml:space="preserve" font-family="Helvetica-Bold" font-weight="bold" font-size="7.0" fill="#FEFFFF" transform="matrix(1.00, 0.00, -0.00, -1.00, 566.1, 285.0)">M</text></g></g><image xlink:href="../../0C930E86-4277-443F-87C0-83660A271B3B/assets/F0B38DB35E021AA2BF6CE94940E294D7.png" width="36.00" height="36.00" transform="matrix(1.00, 0.00, -0.00, -0.99, 651.4, 340.9)" opacity="0.80"></image><path d="M 677.9 331.4 C 682.6 326.8 682.6 319.3 677.9 314.6 C 673.2 310.0 665.6 310.0 660.9 314.6 C 656.3 319.3 656.3 326.8 660.9 331.4 C 665.6 336.1 673.2 336.1 677.9 331.4 Z M 677.9 331.4 " fill="#0065C0"></path><image xlink:href="F9B3C74FF20CCA19CD25456ECD817629.png" width="15.00" height="11.00" transform="matrix(1.00, 0.00, -0.00, -1.00, 663.0, 328.0)"></image><g><clipPath id="clip-19280"><path d="M 657.4 311.1 L 683.8 311.1 L 683.8 334.9 L 657.4 334.9 Z M 657.4 311.1 "></path></clipPath><g clip-path="url(#clip-19280)"><text xml:space="preserve" font-family="Helvetica-Bold" font-weight="bold" font-size="7.0" fill="#FEFFFF" transform="matrix(1.00, 0.00, -0.00, -1.00, 664.0, 321.0)">C</text><text xml:space="preserve" font-family="Helvetica-Bold" font-weight="bold" font-size="7.0" fill="#FEFFFF" transform="matrix(1.00, 0.00, -0.00, -1.00, 669.1, 321.0)">M</text></g></g><image xlink:href="../../0C930E86-4277-443F-87C0-83660A271B3B/assets/F0B38DB35E021AA2BF6CE94940E294D7.png" width="36.00" height="36.00" transform="matrix(1.00, 0.00, -0.00, -0.99, 705.8, 526.9)" opacity="0.80"></image><path d="M 732.2 517.4 C 736.9 512.8 736.9 505.3 732.2 500.6 C 727.6 495.9 720.0 495.9 715.3 500.6 C 710.6 505.3 710.6 512.8 715.3 517.4 C 720.0 522.1 727.6 522.1 732.2 517.4 Z M 732.2 517.4 " fill="#0065C0"></path><image xlink:href="4D8586F8C443DC199A000C2B8C349896.png" width="15.00" height="10.00" transform="matrix(1.00, 0.00, -0.00, -1.00, 717.0, 514.0)"></image><g><clipPath id="clip-19281"><path d="M 711.8 497.1 L 738.1 497.1 L 738.1 520.9 L 711.8 520.9 Z M 711.8 497.1 "></path></clipPath><g clip-path="url(#clip-19281)"><text xml:space="preserve" font-family="Helvetica-Bold" font-weight="bold" font-size="7.0" fill="#FEFFFF" transform="matrix(1.00, 0.00, -0.00, -1.00, 718.0, 507.0)">A</text><text xml:space="preserve" font-family="Helvetica-Bold" font-weight="bold" font-size="7.0" fill="#FEFFFF" transform="matrix(1.00, 0.00, -0.00, -1.00, 723.1, 507.0)">M</text></g></g><image xlink:href="../../0C930E86-4277-443F-87C0-83660A271B3B/assets/F0B38DB35E021AA2BF6CE94940E294D7.png" width="36.00" height="36.00" transform="matrix(1.00, 0.00, -0.00, -0.99, 785.8, 149.4)" opacity="0.80"></image><path d="M 812.3 139.9 C 817.0 135.3 817.0 127.7 812.3 123.1 C 807.6 118.4 800.0 118.4 795.3 123.1 C 790.6 127.7 790.6 135.3 795.3 139.9 C 800.0 144.6 807.6 144.6 812.3 139.9 Z M 812.3 139.9 " fill="#0065C0"></path><image xlink:href="../../95DCF10E-5814-4E27-A94D-FAC66EEB6456/assets/4D8586F8C443DC199A000C2B8C349896.png" width="15.00" height="10.00" transform="matrix(1.00, 0.00, -0.00, -1.00, 797.0, 136.0)"></image><g><clipPath id="clip-19282"><path d="M 791.8 119.6 L 818.2 119.6 L 818.2 143.4 L 791.8 143.4 Z M 791.8 119.6 "></path></clipPath><g clip-path="url(#clip-19282)"><text xml:space="preserve" font-family="Helvetica-Bold" font-weight="bold" font-size="7.0" fill="#FEFFFF" transform="matrix(1.00, 0.00, -0.00, -1.00, 798.0, 129.0)">A</text><text xml:space="preserve" font-family="Helvetica-Bold" font-weight="bold" font-size="7.0" fill="#FEFFFF" transform="matrix(1.00, 0.00, -0.00, -1.00, 803.1, 129.0)">M</text></g></g><image xlink:href="../../0C930E86-4277-443F-87C0-83660A271B3B/assets/F0B38DB35E021AA2BF6CE94940E294D7.png" width="36.00" height="36.00" transform="matrix(1.00, 0.00, -0.00, -0.99, 873.9, 232.3)" opacity="0.80"></image><path d="M 900.4 222.8 C 905.1 218.2 905.1 210.6 900.4 206.0 C 895.7 201.3 888.1 201.3 883.4 206.0 C 878.7 210.6 878.7 218.2 883.4 222.8 C 888.1 227.5 895.7 227.5 900.4 222.8 Z M 900.4 222.8 " fill="#0065C0"></path><image xlink:href="../../0C930E86-4277-443F-87C0-83660A271B3B/assets/FC548C3EA09020505AA6500F4A889016.png" width="9.00" height="11.00" transform="matrix(1.00, 0.00, -0.00, -1.00, 889.0, 219.0)"></image><g><clipPath id="clip-19283"><path d="M 879.9 202.5 L 903.9 202.5 L 903.9 226.3 L 879.9 226.3 Z M 879.9 202.5 "></path></clipPath><g clip-path="url(#clip-19283)"><text xml:space="preserve" font-family="Helvetica-Bold" font-weight="bold" font-size="7.0" fill="#FEFFFF" transform="matrix(1.00, 0.00, -0.00, -1.00, 890.0, 212.0)">S</text></g></g><image xlink:href="../../0C930E86-4277-443F-87C0-83660A271B3B/assets/F0B38DB35E021AA2BF6CE94940E294D7.png" width="36.00" height="36.00" transform="matrix(1.00, 0.00, -0.00, -0.99, 855.3, 429.8)" opacity="0.80"></image><path d="M 881.8 420.3 C 886.5 415.7 886.5 408.2 881.8 403.5 C 877.1 398.9 869.5 398.9 864.8 403.5 C 860.2 408.2 860.2 415.7 864.8 420.3 C 869.5 425.0 877.1 425.0 881.8 420.3 Z M 881.8 420.3 " fill="#0065C0"></path><image xlink:href="../../0C930E86-4277-443F-87C0-83660A271B3B/assets/FC548C3EA09020505AA6500F4A889016.png" width="9.00" height="11.00" transform="matrix(1.00, 0.00, -0.00, -1.00, 870.0, 417.0)"></image><g><clipPath id="clip-19284"><path d="M 861.3 400.0 L 885.3 400.0 L 885.3 423.8 L 861.3 423.8 Z M 861.3 400.0 "></path></clipPath><g clip-path="url(#clip-19284)"><text xml:space="preserve" font-family="Helvetica-Bold" font-weight="bold" font-size="7.0" fill="#FEFFFF" transform="matrix(1.00, 0.00, -0.00, -1.00, 871.0, 410.0)">S</text></g></g><image xlink:href="../../0C930E86-4277-443F-87C0-83660A271B3B/assets/F0B38DB35E021AA2BF6CE94940E294D7.png" width="36.00" height="36.00" transform="matrix(1.00, 0.00, -0.00, -0.99, 873.9, 305.3)" opacity="0.80"></image><path d="M 900.4 295.8 C 905.1 291.1 905.1 283.6 900.4 278.9 C 895.7 274.3 888.1 274.3 883.4 278.9 C 878.7 283.6 878.7 291.1 883.4 295.8 C 888.1 300.4 895.7 300.4 900.4 295.8 Z M 900.4 295.8 " fill="#0065C0"></path><image xlink:href="../../0C930E86-4277-443F-87C0-83660A271B3B/assets/FC548C3EA09020505AA6500F4A889016.png" width="9.00" height="11.00" transform="matrix(1.00, 0.00, -0.00, -1.00, 889.0, 292.0)"></image><g><clipPath id="clip-19285"><path d="M 879.9 275.4 L 903.9 275.4 L 903.9 299.3 L 879.9 299.3 Z M 879.9 275.4 "></path></clipPath><g clip-path="url(#clip-19285)"><text xml:space="preserve" font-family="Helvetica-Bold" font-weight="bold" font-size="7.0" fill="#FEFFFF" transform="matrix(1.00, 0.00, -0.00, -1.00, 890.0, 285.0)">S</text></g></g><image xlink:href="../../0C930E86-4277-443F-87C0-83660A271B3B/assets/F0B38DB35E021AA2BF6CE94940E294D7.png" width="36.00" height="36.00" transform="matrix(1.00, 0.00, -0.00, -0.99, 51.5, 345.4)" opacity="0.80"></image><path d="M 78.0 335.9 C 82.7 331.3 82.7 323.7 78.0 319.1 C 73.3 314.4 65.7 314.4 61.0 319.1 C 56.4 323.7 56.4 331.3 61.0 335.9 C 65.7 340.6 73.3 340.6 78.0 335.9 Z M 78.0 335.9 " fill="#0065C0"></path><image xlink:href="../../63577CA2-4C80-4B44-953A-DE50B5CCB9E7/assets/56A6469E11207C81AEAE89A6009A54FB.png" width="15.00" height="11.00" transform="matrix(1.00, 0.00, -0.00, -1.00, 63.0, 332.0)"></image><g><clipPath id="clip-19286"><path d="M 57.5 315.6 L 81.5 315.6 L 81.5 339.4 L 57.5 339.4 Z M 57.5 315.6 "></path></clipPath><g clip-path="url(#clip-19286)"><text xml:space="preserve" font-family="Helvetica-Bold" font-weight="bold" font-size="7.0" fill="#FEFFFF" transform="matrix(1.00, 0.00, -0.00, -1.00, 64.0, 325.0)">G</text><text xml:space="preserve" font-family="Helvetica-Bold" font-weight="bold" font-size="7.0" fill="#FEFFFF" transform="matrix(1.00, 0.00, -0.00, -1.00, 69.4, 325.0)">K</text></g></g><image xlink:href="../../95F18BE9-9F57-4735-B424-42E7C07C47EC/assets/E577C575619E9B56E6FB9D3B0E72FE4F.png" width="24.00" height="24.00" transform="matrix(1.00, 0.00, -0.00, -1.00, 680.2, 328.0)" opacity="0.80"></image><path d="M 696.4 320.2 C 698.8 317.9 698.8 314.1 696.4 311.8 C 694.1 309.4 690.3 309.4 687.9 311.8 C 685.6 314.1 685.6 317.9 687.9 320.2 C 690.3 322.6 694.1 322.6 696.4 320.2 Z M 696.4 320.2 " fill="#FEFFFE"></path></g></svg>