<?xml version="1.0" encoding="UTF-8" standalone="no"?><svg xmlns="http://www.w3.org/2000/svg" xmlns:xlink="http://www.w3.org/1999/xlink" clip-rule="evenodd" stroke-miterlimit="4.00" viewBox="0 0 39 39"><desc>SVG generated by Keynote</desc><defs></defs><g transform="matrix(1.00, 0.00, -0.00, -1.00, 0.0, 39.0)"><image xlink:href="../../0C930E86-4277-443F-87C0-83660A271B3B/assets/F0B38DB35E021AA2BF6CE94940E294D7.png" width="36.00" height="36.00" transform="matrix(1.00, 0.00, -0.00, -0.99, 1.6, 37.6)" opacity="0.80"></image><path d="M 28.1 28.1 C 32.8 23.5 32.8 15.9 28.1 11.3 C 23.4 6.6 15.8 6.6 11.1 11.3 C 6.5 15.9 6.5 23.5 11.1 28.1 C 15.8 32.8 23.4 32.8 28.1 28.1 Z M 28.1 28.1 " fill="#0065C0"></path><image xlink:href="../../95DCF10E-5814-4E27-A94D-FAC66EEB6456/assets/0C9EBC915DA1B0F6C6DCD5DB1506240D.png" width="14.00" height="11.00" transform="matrix(1.00, 0.00, -0.00, -1.00, 14.0, 24.0)"></image><g><clipPath id="clip-19337"><path d="M 7.6 7.8 L 31.6 7.8 L 31.6 31.6 L 7.6 31.6 Z M 7.6 7.8 "></path></clipPath><g clip-path="url(#clip-19337)"><text xml:space="preserve" font-family="Helvetica-Bold" font-weight="bold" font-size="7.0" fill="#FEFFFF" transform="matrix(1.00, 0.00, -0.00, -1.00, 15.0, 17.0)">C</text><text xml:space="preserve" font-family="Helvetica-Bold" font-weight="bold" font-size="7.0" fill="#FEFFFF" transform="matrix(1.00, 0.00, -0.00, -1.00, 20.1, 17.0)">B</text></g></g></g></svg>