<?xml version="1.0" encoding="UTF-8" standalone="no"?><svg xmlns="http://www.w3.org/2000/svg" xmlns:xlink="http://www.w3.org/1999/xlink" clip-rule="evenodd" stroke-miterlimit="4.00" viewBox="0 0 1024 768"><desc>SVG generated by Keynote</desc><defs><linearGradient id="gradSh1.79" x1="0.0" y1="0.0" x2="100.0" y2="0.0" gradientUnits="userSpaceOnUse" gradientTransform="matrix(0.00, -7.70, -10.26, 0.00, 512.0, 769.0)"><stop offset="0.00000" stop-color="#0066C1"></stop><stop offset="0.00147" stop-color="#0065C0"></stop><stop offset="0.05352" stop-color="#0164BE"></stop><stop offset="0.06378" stop-color="#0163BE"></stop><stop offset="0.15982" stop-color="#0260B9"></stop><stop offset="0.17669" stop-color="#0260B8"></stop><stop offset="0.37243" stop-color="#045AB0"></stop><stop offset="0.37390" stop-color="#045AAF"></stop><stop offset="0.79692" stop-color="#084C9C"></stop><stop offset="0.80938" stop-color="#084B9C"></stop><stop offset="1.00000" stop-color="#094593"></stop></linearGradient></defs><g transform="matrix(1.00, 0.00, -0.00, -1.00, 0.0, 768.0)"><g><clipPath id="clip-19407"><path d="M 0.0 768.0 L 1024.0 768.0 L 1024.0 0.0 L 0.0 0.0 Z M 0.0 768.0 "></path></clipPath><g clip-path="url(#clip-19407)"><path d="M 0.0 768.0 L 1024.0 768.0 L 1024.0 0.0 L 0.0 0.0 Z M 0.0 768.0 " fill="url(#gradSh1.79)"></path></g></g><g><clipPath id="clip-19408"><path d="M 738.0 740.0 L 738.0 6.0 L 16.0 6.0 L 16.0 740.0 Z M 738.3 739.8 "></path></clipPath><g clip-path="url(#clip-19408)"><g><clipPath id="clip-19409"><path d="M 16.0 740.0 L 16.0 6.0 L 738.0 6.0 L 738.0 740.0 Z M 16.0 740.0 "></path></clipPath><g clip-path="url(#clip-19409)"><g><g><clipPath id="clip-19410"><path d="M 739.9 740.0 L 739.9 6.0 L -302.0 6.0 L -302.0 740.0 Z M 739.9 740.0 "></path></clipPath><g clip-path="url(#clip-19410)"><g><clipPath id="clip-19411"><path d="M 16.0 6.0 L 738.0 6.0 L 738.0 740.0 L 16.0 740.0 Z M 16.0 6.0 "></path></clipPath><g clip-path="url(#clip-19411)"><g opacity="0.00"><g><clipPath id="clip-19412"><path d="M 12.1 744.1 L 12.1 2.8 L 946.8 2.8 L 946.8 744.1 Z M 12.1 744.1 "></path></clipPath><g clip-path="url(#clip-19412)"><g><clipPath id="clip-19413"><path d="M 16.0 6.0 L 738.0 6.0 L 738.0 740.0 L 16.0 740.0 Z M 16.0 6.0 "></path></clipPath><g clip-path="url(#clip-19413)"><path d="M 946.8 744.1 L 946.8 2.8 L 12.1 2.8 L 12.1 744.1 Z M 946.8 744.1 " fill="#1A1918"></path></g></g></g></g></g></g></g></g></g><g><clipPath id="clip-19414"><path d="M 16.0 6.0 L 738.0 6.0 L 738.0 740.0 L 16.0 740.0 Z M 16.0 6.0 "></path></clipPath><g clip-path="url(#clip-19414)"><path d="M 13.3 740.0 L 13.3 6.0 L 738.0 6.0 L 738.0 740.0 Z M 13.3 740.0 " fill="#00864E"></path></g></g><g><clipPath id="clip-19415"><path d="M 739.9 740.0 L 739.9 6.0 L -302.0 6.0 L -302.0 740.0 Z M 739.9 740.0 "></path></clipPath><g clip-path="url(#clip-19415)"><g><clipPath id="clip-19416"><path d="M 16.0 6.0 L 738.0 6.0 L 738.0 740.0 L 16.0 740.0 Z M 16.0 6.0 "></path></clipPath><g clip-path="url(#clip-19416)"><path d="M -0.4 594.2 L 420.7 594.2 L 420.7 180.1 L -0.4 180.1 Z M -0.4 594.2 " fill="none" stroke="#EBEBE8" stroke-width="2.00" stroke-miterlimit="8.00" transform="matrix(0.00, -1.75, 1.75, 0.00, -302.0, 740.0)"></path></g></g></g></g><g><clipPath id="clip-19417"><path d="M 739.9 740.0 L 739.9 6.0 L -302.0 6.0 L -302.0 740.0 Z M 739.9 740.0 "></path></clipPath><g clip-path="url(#clip-19417)"><g><clipPath id="clip-19418"><path d="M 16.0 6.0 L 738.0 6.0 L 738.0 740.0 L 16.0 740.0 Z M 16.0 6.0 "></path></clipPath><g clip-path="url(#clip-19418)"><g opacity="0.30"><g><clipPath id="clip-19419"><path d="M 510.5 622.9 L 510.5 124.0 L 945.2 124.0 L 945.2 622.9 Z M 510.5 622.9 "></path></clipPath><g clip-path="url(#clip-19419)"><g><clipPath id="clip-19420"><path d="M 510.0 124.0 L 738.0 124.0 L 738.0 623.0 L 510.0 623.0 Z M 510.0 124.0 "></path></clipPath><g clip-path="url(#clip-19420)"><path d="M 0.0 0.0 C 55.3 -48.1 55.3 -126.1 0.0 -174.2 C -55.3 -222.3 -144.9 -222.3 -200.2 -174.2 C -255.5 -126.1 -255.5 -48.1 -200.2 0.0 C -144.9 48.1 -55.3 48.1 0.0 0.0 " fill="none" stroke="#FFFEFE" stroke-width="2.00" stroke-miterlimit="8.00" stroke-linejoin="round" transform="matrix(0.00, -1.75, 1.75, 0.00, 880.3, 198.3)"></path></g></g></g></g></g></g></g></g></g><g><clipPath id="clip-19421"><path d="M 739.9 740.0 L 739.9 6.0 L -302.0 6.0 L -302.0 740.0 Z M 739.9 740.0 "></path></clipPath><g clip-path="url(#clip-19421)"><g><clipPath id="clip-19422"><path d="M 16.0 6.0 L 738.0 6.0 L 738.0 740.0 L 16.0 740.0 Z M 16.0 6.0 "></path></clipPath><g clip-path="url(#clip-19422)"><g opacity="0.30"><g><clipPath id="clip-19423"><path d="M 112.6 745.3 L 112.6 1.7 L 120.5 1.7 L 120.5 745.3 Z M 112.6 745.3 "></path></clipPath><g clip-path="url(#clip-19423)"><g><clipPath id="clip-19424"><path d="M 112.6 745.3 L 112.6 1.7 L 120.5 1.7 L 120.5 745.3 Z M 112.6 745.3 "></path></clipPath><g clip-path="url(#clip-19424)"><g><clipPath id="clip-19425"><path d="M 112.0 6.0 L 121.0 6.0 L 121.0 740.0 L 112.0 740.0 Z M 112.0 6.0 "></path></clipPath><g clip-path="url(#clip-19425)"><path d="M 0.0 0.0 L 421.1 -0.1 " fill="none" stroke="#FFFEFE" stroke-width="3.00" stroke-miterlimit="8.00" stroke-linejoin="round" transform="matrix(0.00, -1.75, 1.75, 0.00, 117.1, 741.9)"></path></g></g></g></g></g></g></g></g></g></g></g><g><clipPath id="clip-19426"><path d="M 739.9 740.0 L 739.9 6.0 L -302.0 6.0 L -302.0 740.0 Z M 739.9 740.0 "></path></clipPath><g clip-path="url(#clip-19426)"><g><clipPath id="clip-19427"><path d="M 16.0 6.0 L 738.0 6.0 L 738.0 740.0 L 16.0 740.0 Z M 16.0 6.0 "></path></clipPath><g clip-path="url(#clip-19427)"><g opacity="0.47"><g><clipPath id="clip-19428"><path d="M 408.4 745.3 L 408.4 1.7 L 416.3 1.7 L 416.3 745.3 Z M 408.4 745.3 "></path></clipPath><g clip-path="url(#clip-19428)"><g><clipPath id="clip-19429"><path d="M 408.4 745.3 L 408.4 1.7 L 416.3 1.7 L 416.3 745.3 Z M 408.4 745.3 "></path></clipPath><g clip-path="url(#clip-19429)"><g><clipPath id="clip-19430"><path d="M 408.0 6.0 L 417.0 6.0 L 417.0 740.0 L 408.0 740.0 Z M 408.0 6.0 "></path></clipPath><g clip-path="url(#clip-19430)"><path d="M 0.0 0.0 L 421.1 -0.1 " fill="none" stroke="#FFFEFE" stroke-width="3.00" stroke-miterlimit="8.00" stroke-linejoin="round" stroke-dasharray="27.0, 9.0" transform="matrix(0.00, -1.75, 1.75, 0.00, 412.9, 741.9)"></path></g></g></g></g></g></g></g></g></g></g></g></g></g></g></g></g><image xlink:href="../../0C930E86-4277-443F-87C0-83660A271B3B/assets/0831C380C4876CB459EDE4787970FEB9.png" width="748.00" height="740.00" transform="matrix(0.00, -1.00, 1.00, 0.00, 2.3, 746.8)"></image><image xlink:href="../../0C930E86-4277-443F-87C0-83660A271B3B/assets/F0B38DB35E021AA2BF6CE94940E294D7.png" width="36.00" height="36.00" transform="matrix(1.00, 0.00, -0.00, -0.99, 556.3, 340.9)" opacity="0.80"></image><path d="M 582.7 331.4 C 587.4 326.8 587.4 319.3 582.7 314.6 C 578.1 310.0 570.5 310.0 565.8 314.6 C 561.1 319.3 561.1 326.8 565.8 331.4 C 570.5 336.1 578.1 336.1 582.7 331.4 Z M 582.7 331.4 " fill="#10DAE2"></path><image xlink:href="../../1F46F10E-630D-408F-BB51-062C4FDE7492/assets/E9A21EA7B50670355401C399A101573B.png" width="13.00" height="11.00" transform="matrix(1.00, 0.00, -0.00, -1.00, 569.0, 328.0)"></image><g><clipPath id="clip-19431"><path d="M 562.3 311.1 L 587.5 311.1 L 587.5 334.9 L 562.3 334.9 Z M 562.3 311.1 "></path></clipPath><g clip-path="url(#clip-19431)"><text xml:space="preserve" font-family="Helvetica-Bold" font-weight="bold" font-size="7.0" fill="#FEFFFF" transform="matrix(1.00, 0.00, -0.00, -1.00, 570.0, 321.0)">S</text><text xml:space="preserve" font-family="Helvetica-Bold" font-weight="bold" font-size="7.0" fill="#FEFFFF" transform="matrix(1.00, 0.00, -0.00, -1.00, 574.7, 321.0)">3</text></g></g><image xlink:href="../../0C930E86-4277-443F-87C0-83660A271B3B/assets/F0B38DB35E021AA2BF6CE94940E294D7.png" width="36.00" height="36.00" transform="matrix(1.00, 0.00, -0.00, -0.99, 583.2, 45.6)" opacity="0.80"></image><path d="M 609.7 36.1 C 614.4 31.5 614.4 23.9 609.7 19.3 C 605.0 14.6 597.4 14.6 592.7 19.3 C 588.0 23.9 588.0 31.5 592.7 36.1 C 597.4 40.8 605.0 40.8 609.7 36.1 Z M 609.7 36.1 " fill="#0065C0"></path><image xlink:href="../../95DCF10E-5814-4E27-A94D-FAC66EEB6456/assets/4D8586F8C443DC199A000C2B8C349896.png" width="15.00" height="10.00" transform="matrix(1.00, 0.00, -0.00, -1.00, 595.0, 32.0)"></image><g><clipPath id="clip-19432"><path d="M 589.2 15.8 L 615.6 15.8 L 615.6 39.6 L 589.2 39.6 Z M 589.2 15.8 "></path></clipPath><g clip-path="url(#clip-19432)"><text xml:space="preserve" font-family="Helvetica-Bold" font-weight="bold" font-size="7.0" fill="#FEFFFF" transform="matrix(1.00, 0.00, -0.00, -1.00, 596.0, 25.0)">A</text><text xml:space="preserve" font-family="Helvetica-Bold" font-weight="bold" font-size="7.0" fill="#FEFFFF" transform="matrix(1.00, 0.00, -0.00, -1.00, 601.1, 25.0)">M</text></g></g><image xlink:href="../../0C930E86-4277-443F-87C0-83660A271B3B/assets/F0B38DB35E021AA2BF6CE94940E294D7.png" width="36.00" height="36.00" transform="matrix(1.00, 0.00, -0.00, -0.99, 636.6, 449.9)" opacity="0.80"></image><path d="M 663.0 440.4 C 667.7 435.7 667.7 428.2 663.0 423.6 C 658.4 418.9 650.8 418.9 646.1 423.6 C 641.4 428.2 641.4 435.7 646.1 440.4 C 650.8 445.0 658.4 445.0 663.0 440.4 Z M 663.0 440.4 " fill="#0065C0"></path><image xlink:href="../../95DCF10E-5814-4E27-A94D-FAC66EEB6456/assets/4D8586F8C443DC199A000C2B8C349896.png" width="15.00" height="10.00" transform="matrix(1.00, 0.00, -0.00, -1.00, 648.0, 437.0)"></image><g><clipPath id="clip-19433"><path d="M 642.6 420.1 L 666.6 420.1 L 666.6 443.9 L 642.6 443.9 Z M 642.6 420.1 "></path></clipPath><g clip-path="url(#clip-19433)"><text xml:space="preserve" font-family="Helvetica-Bold" font-weight="bold" font-size="7.0" fill="#FEFFFF" transform="matrix(1.00, 0.00, -0.00, -1.00, 649.0, 430.0)">A</text><text xml:space="preserve" font-family="Helvetica-Bold" font-weight="bold" font-size="7.0" fill="#FEFFFF" transform="matrix(1.00, 0.00, -0.00, -1.00, 654.1, 430.0)">M</text></g></g><image xlink:href="../../0C930E86-4277-443F-87C0-83660A271B3B/assets/F0B38DB35E021AA2BF6CE94940E294D7.png" width="36.00" height="36.00" transform="matrix(1.00, 0.00, -0.00, -0.99, 675.2, 236.5)" opacity="0.80"></image><path d="M 701.7 227.0 C 706.4 222.4 706.4 214.8 701.7 210.2 C 697.0 205.5 689.4 205.5 684.7 210.2 C 680.0 214.8 680.0 222.4 684.7 227.0 C 689.4 231.7 697.0 231.7 701.7 227.0 Z M 701.7 227.0 " fill="#E7A432"></path><image xlink:href="../../1F46F10E-630D-408F-BB51-062C4FDE7492/assets/BEB4937F5297B0C68BAC043E23A0814B.png" width="12.00" height="11.00" transform="matrix(1.00, 0.00, -0.00, -1.00, 688.0, 223.0)"></image><g><clipPath id="clip-19434"><path d="M 681.2 206.7 L 705.2 206.7 L 705.2 230.5 L 681.2 230.5 Z M 681.2 206.7 "></path></clipPath><g clip-path="url(#clip-19434)"><text xml:space="preserve" font-family="Helvetica-Bold" font-weight="bold" font-size="7.0" fill="#FEFFFF" transform="matrix(1.00, 0.00, -0.00, -1.00, 689.0, 216.0)">S</text><text xml:space="preserve" font-family="Helvetica-Bold" font-weight="bold" font-size="7.0" fill="#FEFFFF" transform="matrix(1.00, 0.00, -0.00, -1.00, 693.7, 216.0)">1</text></g></g><image xlink:href="../../0C930E86-4277-443F-87C0-83660A271B3B/assets/F0B38DB35E021AA2BF6CE94940E294D7.png" width="36.00" height="36.00" transform="matrix(1.00, 0.00, -0.00, -0.99, 474.9, 236.5)" opacity="0.80"></image><path d="M 501.4 227.0 C 506.1 222.4 506.1 214.8 501.4 210.2 C 496.7 205.5 489.1 205.5 484.4 210.2 C 479.7 214.8 479.7 222.4 484.4 227.0 C 489.1 231.7 496.7 231.7 501.4 227.0 Z M 501.4 227.0 " fill="#D35854"></path><image xlink:href="../../1F46F10E-630D-408F-BB51-062C4FDE7492/assets/B2EFED46CF607AE64B070904CFA37AC3.png" width="13.00" height="11.00" transform="matrix(1.00, 0.00, -0.00, -1.00, 488.0, 223.0)"></image><g><clipPath id="clip-19435"><path d="M 480.9 206.7 L 504.9 206.7 L 504.9 230.5 L 480.9 230.5 Z M 480.9 206.7 "></path></clipPath><g clip-path="url(#clip-19435)"><text xml:space="preserve" font-family="Helvetica-Bold" font-weight="bold" font-size="7.0" fill="#FEFFFF" transform="matrix(1.00, 0.00, -0.00, -1.00, 489.0, 216.0)">S</text><text xml:space="preserve" font-family="Helvetica-Bold" font-weight="bold" font-size="7.0" fill="#FEFFFF" transform="matrix(1.00, 0.00, -0.00, -1.00, 493.7, 216.0)">2</text></g></g><image xlink:href="../../95F18BE9-9F57-4735-B424-42E7C07C47EC/assets/E577C575619E9B56E6FB9D3B0E72FE4F.png" width="24.00" height="24.00" transform="matrix(1.00, 0.00, -0.00, -1.00, 596.3, 53.6)" opacity="0.80"></image><path d="M 612.5 45.8 C 614.9 43.5 614.9 39.7 612.5 37.3 C 610.2 35.0 606.4 35.0 604.1 37.3 C 601.7 39.7 601.7 43.5 604.1 45.8 C 606.4 48.1 610.2 48.1 612.5 45.8 Z M 612.5 45.8 " fill="#FEFFFE"></path><text xml:space="preserve" font-family="Helvetica-Bold" font-weight="bold" font-size="38.0" fill="#FEFFFF" transform="matrix(1.00, 0.00, -0.00, -1.00, 756.0, 709.0)">R</text><text xml:space="preserve" font-family="Helvetica-Bold" font-weight="bold" font-size="38.0" fill="#FEFFFF" transform="matrix(1.00, 0.00, -0.00, -1.00, 783.4, 709.0)">i</text><text xml:space="preserve" font-family="Helvetica-Bold" font-weight="bold" font-size="38.0" fill="#FEFFFF" transform="matrix(1.00, 0.00, -0.00, -1.00, 794.0, 709.0)">g</text><text xml:space="preserve" font-family="Helvetica-Bold" font-weight="bold" font-size="38.0" fill="#FEFFFF" transform="matrix(1.00, 0.00, -0.00, -1.00, 817.2, 709.0)">h</text><text xml:space="preserve" font-family="Helvetica-Bold" font-weight="bold" font-size="38.0" fill="#FEFFFF" transform="matrix(1.00, 0.00, -0.00, -1.00, 840.4, 709.0)">t</text><text xml:space="preserve" font-family="Helvetica-Bold" font-weight="bold" font-size="38.0" fill="#FEFFFF" transform="matrix(1.00, 0.00, -0.00, -1.00, 853.1, 709.0)"> </text><text xml:space="preserve" font-family="Helvetica-Bold" font-weight="bold" font-size="38.0" fill="#FEFFFF" transform="matrix(1.00, 0.00, -0.00, -1.00, 863.6, 709.0)">S</text><text xml:space="preserve" font-family="Helvetica-Bold" font-weight="bold" font-size="38.0" fill="#FEFFFF" transform="matrix(1.00, 0.00, -0.00, -1.00, 889.0, 709.0)">i</text><text xml:space="preserve" font-family="Helvetica-Bold" font-weight="bold" font-size="38.0" fill="#FEFFFF" transform="matrix(1.00, 0.00, -0.00, -1.00, 899.5, 709.0)">d</text><text xml:space="preserve" font-family="Helvetica-Bold" font-weight="bold" font-size="38.0" fill="#FEFFFF" transform="matrix(1.00, 0.00, -0.00, -1.00, 922.7, 709.0)">e</text><text xml:space="preserve" font-family="Helvetica-Bold" font-weight="bold" font-size="38.0" fill="#FEFFFF" transform="matrix(1.00, 0.00, -0.00, -1.00, 943.9, 709.0)">l</text><text xml:space="preserve" font-family="Helvetica-Bold" font-weight="bold" font-size="38.0" fill="#FEFFFF" transform="matrix(1.00, 0.00, -0.00, -1.00, 954.4, 709.0)">i</text><text xml:space="preserve" font-family="Helvetica-Bold" font-weight="bold" font-size="38.0" fill="#FEFFFF" transform="matrix(1.00, 0.00, -0.00, -1.00, 965.0, 709.0)">n</text><text xml:space="preserve" font-family="Helvetica-Bold" font-weight="bold" font-size="38.0" fill="#FEFFFF" transform="matrix(1.00, 0.00, -0.00, -1.00, 988.2, 709.0)">e</text><text xml:space="preserve" font-family="Helvetica-Bold" font-weight="bold" font-size="38.0" fill="#FEFFFF" transform="matrix(1.00, 0.00, -0.00, -1.00, 809.0, 663.0)">S</text><text xml:space="preserve" font-family="Helvetica-Bold" font-weight="bold" font-size="38.0" fill="#FEFFFF" transform="matrix(1.00, 0.00, -0.00, -1.00, 834.3, 663.0)">e</text><text xml:space="preserve" font-family="Helvetica-Bold" font-weight="bold" font-size="38.0" fill="#FEFFFF" transform="matrix(1.00, 0.00, -0.00, -1.00, 855.5, 663.0)">t</text><text xml:space="preserve" font-family="Helvetica-Bold" font-weight="bold" font-size="38.0" fill="#FEFFFF" transform="matrix(1.00, 0.00, -0.00, -1.00, 868.1, 663.0)"> </text><text xml:space="preserve" font-family="Helvetica-Bold" font-weight="bold" font-size="38.0" fill="#FEFFFF" transform="matrix(1.00, 0.00, -0.00, -1.00, 878.7, 663.0)">P</text><text xml:space="preserve" font-family="Helvetica-Bold" font-weight="bold" font-size="38.0" fill="#FEFFFF" transform="matrix(1.00, 0.00, -0.00, -1.00, 904.0, 663.0)">l</text><text xml:space="preserve" font-family="Helvetica-Bold" font-weight="bold" font-size="38.0" fill="#FEFFFF" transform="matrix(1.00, 0.00, -0.00, -1.00, 914.6, 663.0)">a</text><text xml:space="preserve" font-family="Helvetica-Bold" font-weight="bold" font-size="38.0" fill="#FEFFFF" transform="matrix(1.00, 0.00, -0.00, -1.00, 935.7, 663.0)">y</text><text xml:space="preserve" font-family="Helvetica-Light" font-size="32.0" fill="#FEFFFF" transform="matrix(1.00, 0.00, -0.00, -1.00, 783.0, 598.0)">S</text><text xml:space="preserve" font-family="Helvetica-Light" font-size="32.0" fill="#FEFFFF" transform="matrix(1.00, 0.00, -0.00, -1.00, 802.6, 598.0)">1</text><text xml:space="preserve" font-family="Helvetica-Light" font-size="32.0" fill="#FEFFFF" transform="matrix(1.00, 0.00, -0.00, -1.00, 820.3, 598.0)"> </text><text xml:space="preserve" font-family="Helvetica-Light" font-size="32.0" fill="#FEFFFF" transform="matrix(1.00, 0.00, -0.00, -1.00, 829.2, 598.0)">c</text><text xml:space="preserve" font-family="Helvetica-Light" font-size="32.0" fill="#FEFFFF" transform="matrix(1.00, 0.00, -0.00, -1.00, 847.0, 598.0)">l</text><text xml:space="preserve" font-family="Helvetica-Light" font-size="32.0" fill="#FEFFFF" transform="matrix(1.00, 0.00, -0.00, -1.00, 854.1, 598.0)">e</text><text xml:space="preserve" font-family="Helvetica-Light" font-size="32.0" fill="#FEFFFF" transform="matrix(1.00, 0.00, -0.00, -1.00, 871.9, 598.0)">a</text><text xml:space="preserve" font-family="Helvetica-Light" font-size="32.0" fill="#FEFFFF" transform="matrix(1.00, 0.00, -0.00, -1.00, 889.7, 598.0)">r</text><text xml:space="preserve" font-family="Helvetica-Light" font-size="32.0" fill="#FEFFFF" transform="matrix(1.00, 0.00, -0.00, -1.00, 900.4, 598.0)">s</text><text xml:space="preserve" font-family="Helvetica-Light" font-size="32.0" fill="#FEFFFF" transform="matrix(1.00, 0.00, -0.00, -1.00, 916.4, 598.0)"> </text><text xml:space="preserve" font-family="Helvetica-Light" font-size="32.0" fill="#FEFFFF" transform="matrix(1.00, 0.00, -0.00, -1.00, 925.3, 598.0)">T</text><text xml:space="preserve" font-family="Helvetica-Light" font-size="32.0" fill="#FEFFFF" transform="matrix(1.00, 0.00, -0.00, -1.00, 943.1, 598.0)">^</text><text xml:space="preserve" font-family="Helvetica-Light" font-size="32.0" fill="#FEFFFF" transform="matrix(1.00, 0.00, -0.00, -1.00, 964.2, 598.0)">2</text><text xml:space="preserve" font-family="Helvetica-Light" font-size="32.0" fill="#FEFFFF" transform="matrix(1.00, 0.00, -0.00, -1.00, 982.0, 598.0)"> </text><text xml:space="preserve" font-family="Helvetica-Light" font-size="32.0" fill="#FEFFFF" transform="matrix(1.00, 0.00, -0.00, -1.00, 813.0, 560.0)">S</text><text xml:space="preserve" font-family="Helvetica-Light" font-size="32.0" fill="#FEFFFF" transform="matrix(1.00, 0.00, -0.00, -1.00, 832.6, 560.0)">3</text><text xml:space="preserve" font-family="Helvetica-Light" font-size="32.0" fill="#FEFFFF" transform="matrix(1.00, 0.00, -0.00, -1.00, 850.3, 560.0)"> </text><text xml:space="preserve" font-family="Helvetica-Light" font-size="32.0" fill="#FEFFFF" transform="matrix(1.00, 0.00, -0.00, -1.00, 859.2, 560.0)">t</text><text xml:space="preserve" font-family="Helvetica-Light" font-size="32.0" fill="#FEFFFF" transform="matrix(1.00, 0.00, -0.00, -1.00, 868.1, 560.0)">o</text><text xml:space="preserve" font-family="Helvetica-Light" font-size="32.0" fill="#FEFFFF" transform="matrix(1.00, 0.00, -0.00, -1.00, 885.9, 560.0)"> </text><text xml:space="preserve" font-family="Helvetica-Light" font-size="32.0" fill="#FEFFFF" transform="matrix(1.00, 0.00, -0.00, -1.00, 894.8, 560.0)">T</text><text xml:space="preserve" font-family="Helvetica-Light" font-size="32.0" fill="#FEFFFF" transform="matrix(1.00, 0.00, -0.00, -1.00, 912.6, 560.0)">^</text><text xml:space="preserve" font-family="Helvetica-Light" font-size="32.0" fill="#FEFFFF" transform="matrix(1.00, 0.00, -0.00, -1.00, 933.7, 560.0)">2</text><text xml:space="preserve" font-family="Helvetica-Light" font-size="32.0" fill="#FEFFFF" transform="matrix(1.00, 0.00, -0.00, -1.00, 951.5, 560.0)"> </text><text xml:space="preserve" font-family="Helvetica-Light" font-size="32.0" fill="#FEFFFF" transform="matrix(1.00, 0.00, -0.00, -1.00, 824.0, 522.0)">S</text><text xml:space="preserve" font-family="Helvetica-Light" font-size="32.0" fill="#FEFFFF" transform="matrix(1.00, 0.00, -0.00, -1.00, 843.6, 522.0)">2</text><text xml:space="preserve" font-family="Helvetica-Light" font-size="32.0" fill="#FEFFFF" transform="matrix(1.00, 0.00, -0.00, -1.00, 861.3, 522.0)"> </text><text xml:space="preserve" font-family="Helvetica-Light" font-size="32.0" fill="#FEFFFF" transform="matrix(1.00, 0.00, -0.00, -1.00, 870.2, 522.0)">t</text><text xml:space="preserve" font-family="Helvetica-Light" font-size="32.0" fill="#FEFFFF" transform="matrix(1.00, 0.00, -0.00, -1.00, 879.1, 522.0)">o</text><text xml:space="preserve" font-family="Helvetica-Light" font-size="32.0" fill="#FEFFFF" transform="matrix(1.00, 0.00, -0.00, -1.00, 896.9, 522.0)"> </text><text xml:space="preserve" font-family="Helvetica-Light" font-size="32.0" fill="#FEFFFF" transform="matrix(1.00, 0.00, -0.00, -1.00, 905.8, 522.0)">9</text><text xml:space="preserve" font-family="Helvetica-Light" font-size="32.0" fill="#FEFFFF" transform="matrix(1.00, 0.00, -0.00, -1.00, 923.6, 522.0)">0</text><text xml:space="preserve" font-family="Helvetica-Light" font-size="32.0" fill="#FEFFFF" transform="matrix(1.00, 0.00, -0.00, -1.00, 941.4, 522.0)"> </text><text xml:space="preserve" font-family="Helvetica-Light" font-size="32.0" fill="#FEFFFF" transform="matrix(1.00, 0.00, -0.00, -1.00, 778.0, 446.0)">A</text><text xml:space="preserve" font-family="Helvetica-Light" font-size="32.0" fill="#FEFFFF" transform="matrix(1.00, 0.00, -0.00, -1.00, 799.3, 446.0)">M</text><text xml:space="preserve" font-family="Helvetica-Light" font-size="32.0" fill="#FEFFFF" transform="matrix(1.00, 0.00, -0.00, -1.00, 826.0, 446.0)"> </text><text xml:space="preserve" font-family="Helvetica-Light" font-size="32.0" fill="#FEFFFF" transform="matrix(1.00, 0.00, -0.00, -1.00, 834.9, 446.0)">t</text><text xml:space="preserve" font-family="Helvetica-Light" font-size="32.0" fill="#FEFFFF" transform="matrix(1.00, 0.00, -0.00, -1.00, 843.8, 446.0)">r</text><text xml:space="preserve" font-family="Helvetica-Light" font-size="32.0" fill="#FEFFFF" transform="matrix(1.00, 0.00, -0.00, -1.00, 854.4, 446.0)">a</text><text xml:space="preserve" font-family="Helvetica-Light" font-size="32.0" fill="#FEFFFF" transform="matrix(1.00, 0.00, -0.00, -1.00, 872.2, 446.0)">c</text><text xml:space="preserve" font-family="Helvetica-Light" font-size="32.0" fill="#FEFFFF" transform="matrix(1.00, 0.00, -0.00, -1.00, 890.0, 446.0)">k</text><text xml:space="preserve" font-family="Helvetica-Light" font-size="32.0" fill="#FEFFFF" transform="matrix(1.00, 0.00, -0.00, -1.00, 906.0, 446.0)">s</text><text xml:space="preserve" font-family="Helvetica-Light" font-size="32.0" fill="#FEFFFF" transform="matrix(1.00, 0.00, -0.00, -1.00, 922.0, 446.0)"> </text><text xml:space="preserve" font-family="Helvetica-Light" font-size="32.0" fill="#FEFFFF" transform="matrix(1.00, 0.00, -0.00, -1.00, 930.9, 446.0)">w</text><text xml:space="preserve" font-family="Helvetica-Light" font-size="32.0" fill="#FEFFFF" transform="matrix(1.00, 0.00, -0.00, -1.00, 954.0, 446.0)">i</text><text xml:space="preserve" font-family="Helvetica-Light" font-size="32.0" fill="#FEFFFF" transform="matrix(1.00, 0.00, -0.00, -1.00, 961.1, 446.0)">t</text><text xml:space="preserve" font-family="Helvetica-Light" font-size="32.0" fill="#FEFFFF" transform="matrix(1.00, 0.00, -0.00, -1.00, 970.0, 446.0)">h</text><text xml:space="preserve" font-family="Helvetica-Light" font-size="32.0" fill="#FEFFFF" transform="matrix(1.00, 0.00, -0.00, -1.00, 987.8, 446.0)"> </text><text xml:space="preserve" font-family="Helvetica-Light" font-size="32.0" fill="#FEFFFF" transform="matrix(1.00, 0.00, -0.00, -1.00, 796.0, 408.0)">b</text><text xml:space="preserve" font-family="Helvetica-Light" font-size="32.0" fill="#FEFFFF" transform="matrix(1.00, 0.00, -0.00, -1.00, 815.6, 408.0)">a</text><text xml:space="preserve" font-family="Helvetica-Light" font-size="32.0" fill="#FEFFFF" transform="matrix(1.00, 0.00, -0.00, -1.00, 833.3, 408.0)">l</text><text xml:space="preserve" font-family="Helvetica-Light" font-size="32.0" fill="#FEFFFF" transform="matrix(1.00, 0.00, -0.00, -1.00, 840.4, 408.0)">l</text><text xml:space="preserve" font-family="Helvetica-Light" font-size="32.0" fill="#FEFFFF" transform="matrix(1.00, 0.00, -0.00, -1.00, 847.6, 408.0)">,</text><text xml:space="preserve" font-family="Helvetica-Light" font-size="32.0" fill="#FEFFFF" transform="matrix(1.00, 0.00, -0.00, -1.00, 856.4, 408.0)"> </text><text xml:space="preserve" font-family="Helvetica-Light" font-size="32.0" fill="#FEFFFF" transform="matrix(1.00, 0.00, -0.00, -1.00, 865.3, 408.0)">p</text><text xml:space="preserve" font-family="Helvetica-Light" font-size="32.0" fill="#FEFFFF" transform="matrix(1.00, 0.00, -0.00, -1.00, 884.9, 408.0)">a</text><text xml:space="preserve" font-family="Helvetica-Light" font-size="32.0" fill="#FEFFFF" transform="matrix(1.00, 0.00, -0.00, -1.00, 902.7, 408.0)">s</text><text xml:space="preserve" font-family="Helvetica-Light" font-size="32.0" fill="#FEFFFF" transform="matrix(1.00, 0.00, -0.00, -1.00, 918.7, 408.0)">s</text><text xml:space="preserve" font-family="Helvetica-Light" font-size="32.0" fill="#FEFFFF" transform="matrix(1.00, 0.00, -0.00, -1.00, 934.7, 408.0)"> </text><text xml:space="preserve" font-family="Helvetica-Light" font-size="32.0" fill="#FEFFFF" transform="matrix(1.00, 0.00, -0.00, -1.00, 943.6, 408.0)">t</text><text xml:space="preserve" font-family="Helvetica-Light" font-size="32.0" fill="#FEFFFF" transform="matrix(1.00, 0.00, -0.00, -1.00, 952.5, 408.0)">o</text><text xml:space="preserve" font-family="Helvetica-Light" font-size="32.0" fill="#FEFFFF" transform="matrix(1.00, 0.00, -0.00, -1.00, 970.3, 408.0)"> </text><text xml:space="preserve" font-family="Helvetica-Light" font-size="32.0" fill="#FEFFFF" transform="matrix(1.00, 0.00, -0.00, -1.00, 979.2, 408.0)"> </text><text xml:space="preserve" font-family="Helvetica-Light" font-size="32.0" fill="#FEFFFF" transform="matrix(1.00, 0.00, -0.00, -1.00, 854.0, 370.0)">T</text><text xml:space="preserve" font-family="Helvetica-Light" font-size="32.0" fill="#FEFFFF" transform="matrix(1.00, 0.00, -0.00, -1.00, 871.8, 370.0)">^</text><text xml:space="preserve" font-family="Helvetica-Light" font-size="32.0" fill="#FEFFFF" transform="matrix(1.00, 0.00, -0.00, -1.00, 892.9, 370.0)">2</text><text xml:space="preserve" font-family="Helvetica-Light" font-size="32.0" fill="#FEFFFF" transform="matrix(1.00, 0.00, -0.00, -1.00, 910.7, 370.0)"> </text><text xml:space="preserve" font-family="Helvetica-Light" font-size="32.0" fill="#FEFFFF" transform="matrix(1.00, 0.00, -0.00, -1.00, 779.0, 294.0)">1</text><text xml:space="preserve" font-family="Helvetica-Light" font-size="32.0" fill="#FEFFFF" transform="matrix(1.00, 0.00, -0.00, -1.00, 796.8, 294.0)">.</text><text xml:space="preserve" font-family="Helvetica-Light" font-size="32.0" fill="#FEFFFF" transform="matrix(1.00, 0.00, -0.00, -1.00, 805.7, 294.0)">C</text><text xml:space="preserve" font-family="Helvetica-Light" font-size="32.0" fill="#FEFFFF" transform="matrix(1.00, 0.00, -0.00, -1.00, 828.8, 294.0)">o</text><text xml:space="preserve" font-family="Helvetica-Light" font-size="32.0" fill="#FEFFFF" transform="matrix(1.00, 0.00, -0.00, -1.00, 846.6, 294.0)">n</text><text xml:space="preserve" font-family="Helvetica-Light" font-size="32.0" fill="#FEFFFF" transform="matrix(1.00, 0.00, -0.00, -1.00, 864.4, 294.0)">t</text><text xml:space="preserve" font-family="Helvetica-Light" font-size="32.0" fill="#FEFFFF" transform="matrix(1.00, 0.00, -0.00, -1.00, 873.3, 294.0)">r</text><text xml:space="preserve" font-family="Helvetica-Light" font-size="32.0" fill="#FEFFFF" transform="matrix(1.00, 0.00, -0.00, -1.00, 883.4, 294.0)">o</text><text xml:space="preserve" font-family="Helvetica-Light" font-size="32.0" fill="#FEFFFF" transform="matrix(1.00, 0.00, -0.00, -1.00, 901.1, 294.0)">l</text><text xml:space="preserve" font-family="Helvetica-Light" font-size="32.0" fill="#FEFFFF" transform="matrix(1.00, 0.00, -0.00, -1.00, 908.2, 294.0)"> </text><text xml:space="preserve" font-family="Helvetica-Light" font-size="32.0" fill="#FEFFFF" transform="matrix(1.00, 0.00, -0.00, -1.00, 917.1, 294.0)">p</text><text xml:space="preserve" font-family="Helvetica-Light" font-size="32.0" fill="#FEFFFF" transform="matrix(1.00, 0.00, -0.00, -1.00, 936.7, 294.0)">a</text><text xml:space="preserve" font-family="Helvetica-Light" font-size="32.0" fill="#FEFFFF" transform="matrix(1.00, 0.00, -0.00, -1.00, 954.5, 294.0)">s</text><text xml:space="preserve" font-family="Helvetica-Light" font-size="32.0" fill="#FEFFFF" transform="matrix(1.00, 0.00, -0.00, -1.00, 970.5, 294.0)">s</text><text xml:space="preserve" font-family="Helvetica-Light" font-size="32.0" fill="#FEFFFF" transform="matrix(1.00, 0.00, -0.00, -1.00, 986.5, 294.0)"> </text><text xml:space="preserve" font-family="Helvetica-Light" font-size="32.0" fill="#FEFFFF" transform="matrix(1.00, 0.00, -0.00, -1.00, 995.4, 294.0)"> </text><text xml:space="preserve" font-family="Helvetica-Light" font-size="32.0" fill="#FEFFFF" transform="matrix(1.00, 0.00, -0.00, -1.00, 800.0, 256.0)">t</text><text xml:space="preserve" font-family="Helvetica-Light" font-size="32.0" fill="#FEFFFF" transform="matrix(1.00, 0.00, -0.00, -1.00, 808.9, 256.0)">o</text><text xml:space="preserve" font-family="Helvetica-Light" font-size="32.0" fill="#FEFFFF" transform="matrix(1.00, 0.00, -0.00, -1.00, 826.7, 256.0)"> </text><text xml:space="preserve" font-family="Helvetica-Light" font-size="32.0" fill="#FEFFFF" transform="matrix(1.00, 0.00, -0.00, -1.00, 835.6, 256.0)">S</text><text xml:space="preserve" font-family="Helvetica-Light" font-size="32.0" fill="#FEFFFF" transform="matrix(1.00, 0.00, -0.00, -1.00, 855.1, 256.0)">2</text><text xml:space="preserve" font-family="Helvetica-Light" font-size="32.0" fill="#FEFFFF" transform="matrix(1.00, 0.00, -0.00, -1.00, 872.9, 256.0)"> </text><text xml:space="preserve" font-family="Helvetica-Light" font-size="32.0" fill="#FEFFFF" transform="matrix(1.00, 0.00, -0.00, -1.00, 881.8, 256.0)">t</text><text xml:space="preserve" font-family="Helvetica-Light" font-size="32.0" fill="#FEFFFF" transform="matrix(1.00, 0.00, -0.00, -1.00, 890.7, 256.0)">o</text><text xml:space="preserve" font-family="Helvetica-Light" font-size="32.0" fill="#FEFFFF" transform="matrix(1.00, 0.00, -0.00, -1.00, 908.5, 256.0)"> </text><text xml:space="preserve" font-family="Helvetica-Light" font-size="32.0" fill="#FEFFFF" transform="matrix(1.00, 0.00, -0.00, -1.00, 917.4, 256.0)">A</text><text xml:space="preserve" font-family="Helvetica-Light" font-size="32.0" fill="#FEFFFF" transform="matrix(1.00, 0.00, -0.00, -1.00, 938.8, 256.0)">M</text><text xml:space="preserve" font-family="Helvetica-Light" font-size="32.0" fill="#FEFFFF" transform="matrix(1.00, 0.00, -0.00, -1.00, 965.4, 256.0)"> </text><text xml:space="preserve" font-family="Helvetica-Light" font-size="32.0" fill="#FEFFFF" transform="matrix(1.00, 0.00, -0.00, -1.00, 773.0, 180.0)">2</text><text xml:space="preserve" font-family="Helvetica-Light" font-size="32.0" fill="#FEFFFF" transform="matrix(1.00, 0.00, -0.00, -1.00, 790.8, 180.0)">.</text><text xml:space="preserve" font-family="Helvetica-Light" font-size="32.0" fill="#FEFFFF" transform="matrix(1.00, 0.00, -0.00, -1.00, 799.7, 180.0)"> </text><text xml:space="preserve" font-family="Helvetica-Light" font-size="32.0" fill="#FEFFFF" transform="matrix(1.00, 0.00, -0.00, -1.00, 808.6, 180.0)">U</text><text xml:space="preserve" font-family="Helvetica-Light" font-size="32.0" fill="#FEFFFF" transform="matrix(1.00, 0.00, -0.00, -1.00, 831.7, 180.0)">s</text><text xml:space="preserve" font-family="Helvetica-Light" font-size="32.0" fill="#FEFFFF" transform="matrix(1.00, 0.00, -0.00, -1.00, 847.7, 180.0)">e</text><text xml:space="preserve" font-family="Helvetica-Light" font-size="32.0" fill="#FEFFFF" transform="matrix(1.00, 0.00, -0.00, -1.00, 865.5, 180.0)"> </text><text xml:space="preserve" font-family="Helvetica-Light" font-size="32.0" fill="#FEFFFF" transform="matrix(1.00, 0.00, -0.00, -1.00, 874.4, 180.0)">9</text><text xml:space="preserve" font-family="Helvetica-Light" font-size="32.0" fill="#FEFFFF" transform="matrix(1.00, 0.00, -0.00, -1.00, 892.2, 180.0)">0</text><text xml:space="preserve" font-family="Helvetica-Light" font-size="32.0" fill="#FEFFFF" transform="matrix(1.00, 0.00, -0.00, -1.00, 910.0, 180.0)"> </text><text xml:space="preserve" font-family="Helvetica-Light" font-size="32.0" fill="#FEFFFF" transform="matrix(1.00, 0.00, -0.00, -1.00, 918.9, 180.0)">t</text><text xml:space="preserve" font-family="Helvetica-Light" font-size="32.0" fill="#FEFFFF" transform="matrix(1.00, 0.00, -0.00, -1.00, 927.8, 180.0)">o</text><text xml:space="preserve" font-family="Helvetica-Light" font-size="32.0" fill="#FEFFFF" transform="matrix(1.00, 0.00, -0.00, -1.00, 945.5, 180.0)"> </text><text xml:space="preserve" font-family="Helvetica-Light" font-size="32.0" fill="#FEFFFF" transform="matrix(1.00, 0.00, -0.00, -1.00, 954.4, 180.0)">S</text><text xml:space="preserve" font-family="Helvetica-Light" font-size="32.0" fill="#FEFFFF" transform="matrix(1.00, 0.00, -0.00, -1.00, 974.0, 180.0)">1</text><text xml:space="preserve" font-family="Helvetica-Light" font-size="32.0" fill="#FEFFFF" transform="matrix(1.00, 0.00, -0.00, -1.00, 991.8, 180.0)"> </text><text xml:space="preserve" font-family="Helvetica-Light" font-size="32.0" fill="#FEFFFF" transform="matrix(1.00, 0.00, -0.00, -1.00, 841.0, 142.0)">t</text><text xml:space="preserve" font-family="Helvetica-Light" font-size="32.0" fill="#FEFFFF" transform="matrix(1.00, 0.00, -0.00, -1.00, 849.9, 142.0)">o</text><text xml:space="preserve" font-family="Helvetica-Light" font-size="32.0" fill="#FEFFFF" transform="matrix(1.00, 0.00, -0.00, -1.00, 867.7, 142.0)"> </text><text xml:space="preserve" font-family="Helvetica-Light" font-size="32.0" fill="#FEFFFF" transform="matrix(1.00, 0.00, -0.00, -1.00, 876.6, 142.0)">A</text><text xml:space="preserve" font-family="Helvetica-Light" font-size="32.0" fill="#FEFFFF" transform="matrix(1.00, 0.00, -0.00, -1.00, 897.9, 142.0)">M</text><text xml:space="preserve" font-family="Helvetica-Light" font-size="32.0" fill="#FEFFFF" transform="matrix(1.00, 0.00, -0.00, -1.00, 924.6, 142.0)"> </text><text xml:space="preserve" font-family="Helvetica-Light" font-size="32.0" fill="#FEFFFF" transform="matrix(1.00, 0.00, -0.00, -1.00, 768.0, 66.0)">3</text><text xml:space="preserve" font-family="Helvetica-Light" font-size="32.0" fill="#FEFFFF" transform="matrix(1.00, 0.00, -0.00, -1.00, 785.8, 66.0)">.</text><text xml:space="preserve" font-family="Helvetica-Light" font-size="32.0" fill="#FEFFFF" transform="matrix(1.00, 0.00, -0.00, -1.00, 794.7, 66.0)"> </text><text xml:space="preserve" font-family="Helvetica-Light" font-size="32.0" fill="#FEFFFF" transform="matrix(1.00, 0.00, -0.00, -1.00, 803.6, 66.0)">D</text><text xml:space="preserve" font-family="Helvetica-Light" font-size="32.0" fill="#FEFFFF" transform="matrix(1.00, 0.00, -0.00, -1.00, 826.7, 66.0)">e</text><text xml:space="preserve" font-family="Helvetica-Light" font-size="32.0" fill="#FEFFFF" transform="matrix(1.00, 0.00, -0.00, -1.00, 844.5, 66.0)">ﬂ</text><text xml:space="preserve" font-family="Helvetica-Light" font-size="32.0" fill="#FEFFFF" transform="matrix(1.00, 0.00, -0.00, -1.00, 860.5, 66.0)">e</text><text xml:space="preserve" font-family="Helvetica-Light" font-size="32.0" fill="#FEFFFF" transform="matrix(1.00, 0.00, -0.00, -1.00, 878.3, 66.0)">c</text><text xml:space="preserve" font-family="Helvetica-Light" font-size="32.0" fill="#FEFFFF" transform="matrix(1.00, 0.00, -0.00, -1.00, 896.1, 66.0)">t</text><text xml:space="preserve" font-family="Helvetica-Light" font-size="32.0" fill="#FEFFFF" transform="matrix(1.00, 0.00, -0.00, -1.00, 905.0, 66.0)"> </text><text xml:space="preserve" font-family="Helvetica-Light" font-size="32.0" fill="#FEFFFF" transform="matrix(1.00, 0.00, -0.00, -1.00, 913.9, 66.0)">t</text><text xml:space="preserve" font-family="Helvetica-Light" font-size="32.0" fill="#FEFFFF" transform="matrix(1.00, 0.00, -0.00, -1.00, 922.8, 66.0)">o</text><text xml:space="preserve" font-family="Helvetica-Light" font-size="32.0" fill="#FEFFFF" transform="matrix(1.00, 0.00, -0.00, -1.00, 940.5, 66.0)"> </text><text xml:space="preserve" font-family="Helvetica-Light" font-size="32.0" fill="#FEFFFF" transform="matrix(1.00, 0.00, -0.00, -1.00, 949.4, 66.0)">A</text><text xml:space="preserve" font-family="Helvetica-Light" font-size="32.0" fill="#FEFFFF" transform="matrix(1.00, 0.00, -0.00, -1.00, 970.8, 66.0)">M</text><text xml:space="preserve" font-family="Helvetica-Bold" font-weight="bold" font-size="64.0" fill="#FEFFFF" transform="matrix(1.00, 0.00, -0.00, -1.00, 139.0, 663.0)">S</text><text xml:space="preserve" font-family="Helvetica-Bold" font-weight="bold" font-size="64.0" fill="#FEFFFF" transform="matrix(1.00, 0.00, -0.00, -1.00, 181.7, 663.0)">e</text><text xml:space="preserve" font-family="Helvetica-Bold" font-weight="bold" font-size="64.0" fill="#FEFFFF" transform="matrix(1.00, 0.00, -0.00, -1.00, 217.3, 663.0)">t</text><text xml:space="preserve" font-family="Helvetica-Bold" font-weight="bold" font-size="64.0" fill="#FEFFFF" transform="matrix(1.00, 0.00, -0.00, -1.00, 238.6, 663.0)"> </text><text xml:space="preserve" font-family="Helvetica-Bold" font-weight="bold" font-size="64.0" fill="#FEFFFF" transform="matrix(1.00, 0.00, -0.00, -1.00, 256.4, 663.0)">P</text><text xml:space="preserve" font-family="Helvetica-Bold" font-weight="bold" font-size="64.0" fill="#FEFFFF" transform="matrix(1.00, 0.00, -0.00, -1.00, 299.1, 663.0)">l</text><text xml:space="preserve" font-family="Helvetica-Bold" font-weight="bold" font-size="64.0" fill="#FEFFFF" transform="matrix(1.00, 0.00, -0.00, -1.00, 316.8, 663.0)">a</text><text xml:space="preserve" font-family="Helvetica-Bold" font-weight="bold" font-size="64.0" fill="#FEFFFF" transform="matrix(1.00, 0.00, -0.00, -1.00, 352.4, 663.0)">y</text></g></svg>