<?xml version="1.0" encoding="UTF-8" standalone="no"?><svg xmlns="http://www.w3.org/2000/svg" xmlns:xlink="http://www.w3.org/1999/xlink" clip-rule="evenodd" stroke-miterlimit="4.00" viewBox="0 0 39 39"><desc>SVG generated by Keynote</desc><defs></defs><g transform="matrix(1.00, 0.00, -0.00, -1.00, 0.0, 39.0)"><image xlink:href="../../0C930E86-4277-443F-87C0-83660A271B3B/assets/F0B38DB35E021AA2BF6CE94940E294D7.png" width="36.00" height="36.00" transform="matrix(1.00, 0.00, -0.00, -0.99, 1.5, 37.4)" opacity="0.80"></image><path d="M 28.0 27.9 C 32.7 23.3 32.7 15.7 28.0 11.1 C 23.3 6.4 15.7 6.4 11.0 11.1 C 6.4 15.7 6.4 23.3 11.0 27.9 C 15.7 32.6 23.3 32.6 28.0 27.9 Z M 28.0 27.9 " fill="#0065C0"></path><image xlink:href="../../63577CA2-4C80-4B44-953A-DE50B5CCB9E7/assets/56A6469E11207C81AEAE89A6009A54FB.png" width="15.00" height="11.00" transform="matrix(1.00, 0.00, -0.00, -1.00, 13.0, 24.0)"></image><g><clipPath id="clip-19346"><path d="M 7.5 7.6 L 31.5 7.6 L 31.5 31.4 L 7.5 31.4 Z M 7.5 7.6 "></path></clipPath><g clip-path="url(#clip-19346)"><text xml:space="preserve" font-family="Helvetica-Bold" font-weight="bold" font-size="7.0" fill="#FEFFFF" transform="matrix(1.00, 0.00, -0.00, -1.00, 14.0, 17.0)">G</text><text xml:space="preserve" font-family="Helvetica-Bold" font-weight="bold" font-size="7.0" fill="#FEFFFF" transform="matrix(1.00, 0.00, -0.00, -1.00, 19.4, 17.0)">K</text></g></g></g></svg>