<?xml version="1.0" encoding="UTF-8" standalone="no"?><svg xmlns="http://www.w3.org/2000/svg" xmlns:xlink="http://www.w3.org/1999/xlink" clip-rule="evenodd" stroke-miterlimit="4.00" viewBox="0 0 39 38"><desc>SVG generated by Keynote</desc><defs></defs><g transform="matrix(1.00, 0.00, -0.00, -1.00, 0.0, 38.0)"><image xlink:href="../../0C930E86-4277-443F-87C0-83660A271B3B/assets/F0B38DB35E021AA2BF6CE94940E294D7.png" width="36.00" height="36.00" transform="matrix(1.00, 0.00, -0.00, -0.99, 1.4, 36.9)" opacity="0.80"></image><path d="M 27.9 27.4 C 32.6 22.8 32.6 15.3 27.9 10.6 C 23.2 6.0 15.6 6.0 10.9 10.6 C 6.3 15.3 6.3 22.8 10.9 27.4 C 15.6 32.1 23.2 32.1 27.9 27.4 Z M 27.9 27.4 " fill="#0065C0"></path><image xlink:href="../../95DCF10E-5814-4E27-A94D-FAC66EEB6456/assets/F9B3C74FF20CCA19CD25456ECD817629.png" width="15.00" height="11.00" transform="matrix(1.00, 0.00, -0.00, -1.00, 13.0, 24.0)"></image><g><clipPath id="clip-19340"><path d="M 7.4 7.1 L 33.8 7.1 L 33.8 30.9 L 7.4 30.9 Z M 7.4 7.1 "></path></clipPath><g clip-path="url(#clip-19340)"><text xml:space="preserve" font-family="Helvetica-Bold" font-weight="bold" font-size="7.0" fill="#FEFFFF" transform="matrix(1.00, 0.00, -0.00, -1.00, 14.0, 17.0)">C</text><text xml:space="preserve" font-family="Helvetica-Bold" font-weight="bold" font-size="7.0" fill="#FEFFFF" transform="matrix(1.00, 0.00, -0.00, -1.00, 19.1, 17.0)">M</text></g></g></g></svg>