<?xml version="1.0" encoding="UTF-8" standalone="no"?><svg xmlns="http://www.w3.org/2000/svg" xmlns:xlink="http://www.w3.org/1999/xlink" clip-rule="evenodd" stroke-miterlimit="4.00" viewBox="0 0 324 38"><desc>SVG generated by Keynote</desc><defs></defs><g transform="matrix(1.00, 0.00, -0.00, -1.00, 0.0, 38.0)"><text xml:space="preserve" font-family="GillSans-Light" font-size="38.0" fill="#525252" transform="matrix(1.00, 0.00, -0.00, -1.00, 1.0, 10.0)">T</text><text xml:space="preserve" font-family="GillSans-Light" font-size="38.0" fill="#525252" transform="matrix(1.00, 0.00, -0.00, -1.00, 17.9, 10.0)">e</text><text xml:space="preserve" font-family="GillSans-Light" font-size="38.0" fill="#525252" transform="matrix(1.00, 0.00, -0.00, -1.00, 36.1, 10.0)">s</text><text xml:space="preserve" font-family="GillSans-Light" font-size="38.0" fill="#525252" transform="matrix(1.00, 0.00, -0.00, -1.00, 49.5, 10.0)">t</text><text xml:space="preserve" font-family="GillSans-Light" font-size="38.0" fill="#525252" transform="matrix(1.00, 0.00, -0.00, -1.00, 61.0, 10.0)"> </text><text xml:space="preserve" font-family="GillSans-Light" font-size="38.0" fill="#525252" transform="matrix(1.00, 0.00, -0.00, -1.00, 71.5, 10.0)">o</text><text xml:space="preserve" font-family="GillSans-Light" font-size="38.0" fill="#525252" transform="matrix(1.00, 0.00, -0.00, -1.00, 92.1, 10.0)">f</text><text xml:space="preserve" font-family="GillSans-Light" font-size="38.0" fill="#525252" transform="matrix(1.00, 0.00, -0.00, -1.00, 101.3, 10.0)"> </text><text xml:space="preserve" font-family="GillSans-Light" font-size="38.0" fill="#525252" transform="matrix(1.00, 0.00, -0.00, -1.00, 111.8, 10.0)">H</text><text xml:space="preserve" font-family="GillSans-Light" font-size="38.0" fill="#525252" transform="matrix(1.00, 0.00, -0.00, -1.00, 139.1, 10.0)">T</text><text xml:space="preserve" font-family="GillSans-Light" font-size="38.0" fill="#525252" transform="matrix(1.00, 0.00, -0.00, -1.00, 160.9, 10.0)">M</text><text xml:space="preserve" font-family="GillSans-Light" font-size="38.0" fill="#525252" transform="matrix(1.00, 0.00, -0.00, -1.00, 190.6, 10.0)">L</text><text xml:space="preserve" font-family="GillSans-Light" font-size="38.0" fill="#525252" transform="matrix(1.00, 0.00, -0.00, -1.00, 208.4, 10.0)"> </text><text xml:space="preserve" font-family="GillSans-Light" font-size="38.0" fill="#525252" transform="matrix(1.00, 0.00, -0.00, -1.00, 219.0, 10.0)">E</text><text xml:space="preserve" font-family="GillSans-Light" font-size="38.0" fill="#525252" transform="matrix(1.00, 0.00, -0.00, -1.00, 237.6, 10.0)">x</text><text xml:space="preserve" font-family="GillSans-Light" font-size="38.0" fill="#525252" transform="matrix(1.00, 0.00, -0.00, -1.00, 255.8, 10.0)">p</text><text xml:space="preserve" font-family="GillSans-Light" font-size="38.0" fill="#525252" transform="matrix(1.00, 0.00, -0.00, -1.00, 275.2, 10.0)">o</text><text xml:space="preserve" font-family="GillSans-Light" font-size="38.0" fill="#525252" transform="matrix(1.00, 0.00, -0.00, -1.00, 295.8, 10.0)">r</text><text xml:space="preserve" font-family="GillSans-Light" font-size="38.0" fill="#525252" transform="matrix(1.00, 0.00, -0.00, -1.00, 311.5, 10.0)">t</text></g></svg>